<svg width="16" height="17" viewBox="0 0 16 17" fill="none" xmlns="http://www.w3.org/2000/svg">
<g id="icon-add">
<path id="Subtract" fill-rule="evenodd" clip-rule="evenodd" d="M16 8.5C16 12.9183 12.4183 16.5 8 16.5C3.58172 16.5 0 12.9183 0 8.5C0 4.08172 3.58172 0.5 8 0.5C12.4183 0.5 16 4.08172 16 8.5ZM3 8.5C3 7.94772 3.44772 7.5 4 7.5H7V4.5C7 3.94772 7.44772 3.5 8 3.5C8.55229 3.5 9 3.94772 9 4.5V7.5H12C12.5523 7.5 13 7.94772 13 8.5C13 9.05229 12.5523 9.5 12 9.5H9V12.5C9 13.0523 8.55229 13.5 8 13.5C7.44772 13.5 7 13.0523 7 12.5V9.5H4C3.44772 9.5 3 9.05229 3 8.5Z" fill="#2700FF"/>
</g>
</svg>
