<svg width="20" height="20" viewBox="0 0 20 20" fill="none" xmlns="http://www.w3.org/2000/svg">
<path d="M7.59681 0H2.37942C1.41892 0 0.640285 0.778635 0.640285 1.73913V8.69565C0.640285 9.65615 1.41892 10.4348 2.37942 10.4348H7.59681C8.5573 10.4348 9.33594 9.65615 9.33594 8.69565V1.73913C9.33594 0.778635 8.5573 0 7.59681 0Z" />
<path fill-rule="evenodd" clip-rule="evenodd" d="M6.21169 13.0512L9.51032 17.1744C10.1103 17.9245 9.98873 19.0189 9.23871 19.6189C8.93034 19.8656 8.54719 20 8.15228 20H1.73913C0.778635 20 0 19.2214 0 18.2609C0 17.8825 0.123369 17.5145 0.351399 17.2126L3.46593 13.0894C4.04485 12.3229 5.13546 12.1709 5.90188 12.7498C6.01728 12.837 6.12135 12.9382 6.21169 13.0512Z" />
<path d="M19.0751 4.34783C19.0751 1.94659 17.1285 0 14.7272 0C12.326 0 10.3794 1.94659 10.3794 4.34783C10.3794 6.74906 12.326 8.69565 14.7272 8.69565C17.1285 8.69565 19.0751 6.74906 19.0751 4.34783Z" />
<path d="M17.3359 11.3043H12.1185C11.1581 11.3043 10.3794 12.083 10.3794 13.0435V18.2609C10.3794 19.2214 11.1581 20 12.1185 20H17.3359C18.2964 20 19.0751 19.2214 19.0751 18.2609V13.0435C19.0751 12.083 18.2964 11.3043 17.3359 11.3043Z" />
</svg>
