<svg width="21" height="21" viewBox="0 0 21 21" fill="none" xmlns="http://www.w3.org/2000/svg">
<path fill-rule="evenodd" clip-rule="evenodd" d="M15.0149 1.3426C19.8021 4.10647 21.4423 10.2278 18.6784 15.0149C18.489 15.3431 18.2838 15.6564 18.0643 15.9545L6.40255 9.22162C5.6058 8.76162 4.65063 9.49455 4.88874 10.3832L6.51696 16.4598C6.66457 17.0107 7.23082 17.3376 7.78171 17.19L7.82161 17.1785C8.34826 17.0148 8.65592 16.4627 8.51191 15.9253L7.52894 12.2568L16.6369 17.5154C13.5016 20.2843 8.82856 20.8853 5.0061 18.6784C0.218937 15.9146 -1.42126 9.79325 1.3426 5.0061C1.58385 4.58824 1.85068 4.19437 2.13997 3.8253L13.6104 10.4479C14.4071 10.9079 15.3623 10.175 15.1242 9.28633L13.496 3.20974C13.3484 2.65885 12.7821 2.33192 12.2312 2.47953L12.1913 2.49108C11.6647 2.65476 11.357 3.20683 11.501 3.74428L12.484 7.41276L3.62627 2.29866C6.75651 -0.292027 11.2897 -0.808178 15.0149 1.3426Z" />
</svg>
