<svg width="16" height="17" viewBox="0 0 16 17" fill="none" xmlns="http://www.w3.org/2000/svg">
<g id="icon-waiting">
<path id="&#229;&#189;&#162;&#231;&#138;&#182;&#231;&#187;&#147;&#229;&#144;&#136;" fill-rule="evenodd" clip-rule="evenodd" d="M8 0.5C12.4183 0.5 16 4.08172 16 8.5C16 12.9183 12.4183 16.5 8 16.5C3.58172 16.5 0 12.9183 0 8.5C0 4.08172 3.58172 0.5 8 0.5ZM7.75683 3.00904C7.11626 3.00904 6.59698 3.52832 6.59698 4.16889V9.27012C6.59698 9.91069 7.11626 10.43 7.75683 10.43H11.8565C12.4971 10.43 13.0163 9.91069 13.0163 9.27012C13.0163 8.62956 12.4971 8.11027 11.8565 8.11027L8.91667 8.11028L8.91668 4.16889C8.91668 3.52832 8.3974 3.00904 7.75683 3.00904Z" fill="#FFB762"/>
</g>
</svg>
