<svg width="16" height="17" viewBox="0 0 16 17" fill="none" xmlns="http://www.w3.org/2000/svg">
<g id="icon-failed">
<path id="&#229;&#189;&#162;&#231;&#138;&#182;&#231;&#187;&#147;&#229;&#144;&#136;" fill-rule="evenodd" clip-rule="evenodd" d="M8 0.5C12.4183 0.5 16 4.08172 16 8.5C16 12.9183 12.4183 16.5 8 16.5C3.58172 16.5 0 12.9183 0 8.5C0 4.08172 3.58172 0.5 8 0.5ZM10.5655 4.37649L8.02278 6.90517L5.48005 4.37649C5.03113 3.93004 4.30851 3.92683 3.85565 4.36535L3.83978 4.38101C3.38808 4.83521 3.3901 5.56959 3.8443 6.02128L6.37793 8.54098L3.89681 11.0085C3.44261 11.4602 3.44059 12.1945 3.89228 12.6487C4.34398 13.1029 5.07836 13.105 5.53256 12.6533L8.02278 10.1767L10.513 12.6533C10.9619 13.0997 11.6845 13.1029 12.1374 12.6644L12.1533 12.6487C12.605 12.1945 12.6029 11.4602 12.1487 11.0085L9.66757 8.54098L12.2012 6.02128C12.6554 5.56959 12.6575 4.83521 12.2058 4.38101C11.7541 3.92681 11.0197 3.92479 10.5655 4.37649Z" fill="#FF5310"/>
</g>
</svg>
