<svg width="16" height="16" viewBox="0 0 16 16" fill="none" xmlns="http://www.w3.org/2000/svg">
<path d="M10.2311 0C10.9571 0 11.5512 0.594062 11.5512 1.32014V10.2311C11.5512 10.9571 10.9571 11.5512 10.2311 11.5512H1.32014C0.594062 11.5512 0 10.9571 0 10.2311V1.32014C0 0.594062 0.594062 0 1.32014 0H10.2311ZM8.59864 2.33138H2.95257C2.49252 2.33138 2.11611 2.68564 2.11611 3.11863V8.43258C2.11611 8.86557 2.49252 9.21983 2.95257 9.21983H8.59864C9.05869 9.21983 9.4351 8.86557 9.4351 8.43258V3.11863C9.4351 2.68564 9.05869 2.33138 8.59864 2.33138Z" />
<path d="M14.3928 4.44879C15.1189 4.44879 15.713 5.04286 15.713 5.76893V14.6799C15.713 15.4059 15.1189 16 14.3928 16H5.48191C4.75584 16 4.16177 15.4059 4.16177 14.6799L4.16175 12.7006H6.27787L6.27789 12.8814C6.27789 13.3144 6.65429 13.6686 7.11434 13.6686H12.7604C13.2205 13.6686 13.5969 13.3144 13.5969 12.8814V7.56742C13.5969 7.13443 13.2205 6.78017 12.7604 6.78017L12.5262 6.7801V4.44879H14.3928Z" />
</svg>
