<svg width="12" height="12" viewBox="0 0 12 12" fill="none" xmlns="http://www.w3.org/2000/svg">
<path d="M11.2556 2.8703C11.6667 2.8703 12 3.20356 12 3.61466C12 4.02576 11.6667 4.35902 11.2556 4.35902L11.2138 4.35903C11.2264 4.41326 11.2331 4.46977 11.2331 4.52783V10.7199C11.2331 11.3179 10.7483 11.8026 10.1504 11.8026H1.89474C1.29677 11.8026 0.81203 11.3179 0.81203 10.7199V4.47751C0.81203 4.43719 0.81521 4.39762 0.821334 4.35903L0.744361 4.35902C0.333262 4.35902 0 4.02576 0 3.61466C0 3.20356 0.333262 2.8703 0.744361 2.8703H11.2556ZM9.76792 4.35903L2.30285 4.35903C2.30898 4.39762 2.31216 4.43719 2.31216 4.47751V9.6729C2.31216 10.0217 2.59493 10.3045 2.94374 10.3045H9.11706C9.46587 10.3045 9.74864 10.0217 9.74864 9.6729V4.52783C9.74864 4.46977 9.75531 4.41326 9.76792 4.35903ZM4.66917 4.6297C5.08027 4.6297 5.41353 4.96296 5.41353 5.37406V9.16353C5.41353 9.57463 5.08027 9.90789 4.66917 9.90789C4.25807 9.90789 3.92481 9.57463 3.92481 9.16353V5.37406C3.92481 4.96296 4.25807 4.6297 4.66917 4.6297ZM7.37594 4.6297C7.78704 4.6297 8.1203 4.96296 8.1203 5.37406V9.16353C8.1203 9.57463 7.78704 9.90789 7.37594 9.90789C6.96484 9.90789 6.63158 9.57463 6.63158 9.16353V5.37406C6.63158 4.96296 6.96484 4.6297 7.37594 4.6297ZM9.02256 1.49436C9.02256 1.90546 8.68929 2.23872 8.2782 2.23872H3.76692C3.35582 2.23872 3.02256 1.90546 3.02256 1.49436C3.02256 1.08326 3.35582 0.75 3.76692 0.75H8.2782C8.68929 0.75 9.02256 1.08326 9.02256 1.49436Z" />
</svg>
