<svg width="20" height="20" viewBox="0 0 20 20" fill="none" xmlns="http://www.w3.org/2000/svg">
<path fill-rule="evenodd" clip-rule="evenodd" d="M10 0C15.5228 0 20 4.47715 20 10C20 15.5228 15.5228 20 10 20C4.47715 20 0 15.5228 0 10C0 4.47715 4.47715 0 10 0ZM12.2723 10.5786H7.6618C5.44621 10.5786 3.63521 12.0863 3.63521 13.9626V14.838C3.63521 15.6955 4.4562 16.3906 5.46893 16.3906H14.4516C15.4641 16.3904 16.2848 15.6953 16.2848 14.838V13.9626C16.2848 12.0854 14.4884 10.5786 12.2723 10.5786ZM9.96509 4.0824C8.76874 4.08225 7.69012 4.80281 7.23223 5.90806C6.77434 7.01331 7.02736 8.28557 7.87331 9.13151C8.71925 9.97745 9.9915 10.2305 11.0968 9.77259C12.202 9.31469 12.9226 8.23607 12.9224 7.03973C12.9226 6.25533 12.6111 5.50301 12.0565 4.94836C11.5018 4.39371 10.7495 4.0822 9.96509 4.0824Z" />
</svg>
