<svg width="18" height="18" viewBox="0 0 18 18" fill="none" xmlns="http://www.w3.org/2000/svg">
<path fill-rule="evenodd" clip-rule="evenodd" d="M11.0459 1.16123C11.5091 0.768179 12.2033 0.825076 12.5963 1.28831L16.8388 6.28831C17.1161 6.61511 17.1783 7.07321 16.9982 7.46213C16.8182 7.85106 16.4286 8.09999 16 8.09999H2.00001C1.3925 8.09999 0.900009 7.6075 0.900009 6.99999C0.900009 6.39247 1.3925 5.89999 2.00001 5.89999H13.6241L10.9188 2.71166C10.5258 2.24843 10.5827 1.55427 11.0459 1.16123Z" />
<path fill-rule="evenodd" clip-rule="evenodd" d="M6.95411 16.8387C6.49087 17.2318 5.79672 17.1749 5.40367 16.7117L1.16125 11.7117C0.883964 11.3849 0.821737 10.9268 1.0018 10.5378C1.18186 10.1489 1.57142 9.89999 2.00001 9.89999H16C16.6075 9.89999 17.1 10.3925 17.1 11C17.1 11.6075 16.6075 12.1 16 12.1H4.37595L7.08119 15.2883C7.47424 15.7515 7.41734 16.4457 6.95411 16.8387Z" />
</svg>
