<svg width="16" height="20" viewBox="0 0 16 20" fill="none" xmlns="http://www.w3.org/2000/svg">
<path fill-rule="evenodd" clip-rule="evenodd" d="M8 0V6.81818L11 4.69697L14 6.81818L14.0001 0.0399924C15.1369 0.254708 16 1.30833 16 2.57576V17.4242C16 18.8468 14.9127 20 13.5714 20H2.42857C1.08731 20 0 18.8468 0 17.4242V2.57576C0 1.15321 1.08731 0 2.42857 0H8ZM13.0714 16.3636H3.21429C2.54365 16.3636 2 16.9402 2 17.6515C2 18.3628 2.54365 18.9394 3.21429 18.9394H13.0714C13.7421 18.9394 14.2857 18.3628 14.2857 17.6515C14.2857 16.9402 13.7421 16.3636 13.0714 16.3636Z" />
</svg>
