<svg width="16" height="17" viewBox="0 0 16 17" fill="none" xmlns="http://www.w3.org/2000/svg">
<g id="icon-success">
<path id="&#229;&#189;&#162;&#231;&#138;&#182;&#231;&#187;&#147;&#229;&#144;&#136;" fill-rule="evenodd" clip-rule="evenodd" d="M8 0.5C12.4183 0.5 16 4.08172 16 8.5C16 12.9183 12.4183 16.5 8 16.5C3.58172 16.5 0 12.9183 0 8.5C0 4.08172 3.58172 0.5 8 0.5ZM13.6132 5.67521C13.1602 5.22226 12.4259 5.22226 11.9729 5.67521L7.08301 10.5651L4.16308 7.64518C3.71013 7.19223 2.97575 7.19223 2.5228 7.64518C2.06985 8.09813 2.06985 8.83251 2.5228 9.28546L6.26287 13.0255C6.71582 13.4785 7.4502 13.4785 7.90315 13.0255L13.6132 7.31549C14.0661 6.86254 14.0661 6.12816 13.6132 5.67521Z" fill="#00DB16"/>
</g>
</svg>
