<svg width="30" height="30" viewBox="0 0 30 30" fill="none" xmlns="http://www.w3.org/2000/svg">
<circle cx="15" cy="15" r="14.5" stroke="currentColor" fill="transparent"/>
<path d="M9.75 13.75H12.75V16.25H9.75C9.05964 16.25 8.5 15.6904 8.5 15C8.5 14.3096 9.05964 13.75 9.75 13.75ZM13.75 16.25V13.75H16.25V16.25H13.75ZM16.25 12.75H13.75V9.75C13.75 9.05964 14.3096 8.5 15 8.5C15.6904 8.5 16.25 9.05964 16.25 9.75V12.75ZM17.25 16.25V13.75H20.25C20.9404 13.75 21.5 14.3096 21.5 15C21.5 15.6904 20.9404 16.25 20.25 16.25H17.25ZM13.75 17.25H16.25V20.25C16.25 20.9404 15.6904 21.5 15 21.5C14.3096 21.5 13.75 20.9404 13.75 20.25V17.25Z" stroke="currentColor"/>
</svg>
