<svg width="16" height="16" viewBox="0 0 16 16" fill="none" xmlns="http://www.w3.org/2000/svg">
<path d="M7.53719 8.46281V14.5868C7.53719 15.367 6.90418 16 6.12397 16H1.41322C0.633006 16 0 15.367 0 14.5868V9.87603C0 9.09582 0.633006 8.46281 1.41322 8.46281H7.53719ZM11.3058 8.46281V10.8461H13.157V8.46281H16V11.3058H13.6923V13.157H16V16H13.157V13.6923H11.3058V16H8.46281V13.157H10.8461V11.3058H8.46281V8.46281H11.3058ZM5.61983 10.3802H1.85124V14.1488H5.61983V10.3802ZM6.12397 0C6.90418 0 7.53719 0.633006 7.53719 1.41322V7.53719H1.41322C0.633006 7.53719 0 6.90418 0 6.12397V1.41322C0 0.633006 0.633006 0 1.41322 0H6.12397ZM14.5868 0C15.367 0 16 0.633006 16 1.41322V6.12397C16 6.90418 15.367 7.53719 14.5868 7.53719H8.46281V1.41322C8.46281 0.633006 9.09582 0 9.87603 0H14.5868ZM5.61983 1.85124H1.85124V5.61983H5.61983V1.85124ZM14.1488 1.85124H10.3802V5.61983H14.1488V1.85124Z" />
</svg>
