<svg width="142" height="28" fill="none" xmlns="http://www.w3.org/2000/svg"><path d="M38.423 6.656v14.056s12.528 2.585 12.528-7.026c0-10.035-12.528-7.03-12.528-7.03zm3.245 11.615V9.173s6.004-1.256 6.004 4.526c0 5.187-6.004 4.572-6.004 4.572zM58.15 9.624c-3.003 0-5.21 2.55-5.21 5.7 0 3.15 2.207 5.702 5.21 5.702 3.005 0 5.18-2.551 5.18-5.701 0-3.15-2.175-5.701-5.18-5.701zm-.008 8.83c-1.783 0-2.172-1.817-2.172-3.13 0-1.311.207-3.085 2.172-3.085 1.927 0 2.16 1.77 2.16 3.086 0 1.312-.39 3.128-2.16 3.128zM65.938 10.358v10.298h2.923V12.37s1.775-.526 3.368.208c.469-1.783.575-2.411.575-2.411s-1.488-.641-3.431-.514c-1.944.127-3.436.705-3.436.705zM79.361 9.624c-3.22-.276-4.698.581-4.698.581l.279 2.31s1.855-.76 3.845-.387c1.39.263 1.288 1.957 1.288 1.957h-2.683c-.828 0-1.652.187-2.366.607-.786.463-1.445 1.176-1.508 2.522-.123 2.585 1.445 3.358 2.489 3.583 1.313 0 3.718.046 4.837 0a5.303 5.303 0 001.931-.488v-7.956s-.194-2.454-3.414-2.73zm.714 8.902h-2.594s-1.027-.098-1.027-1.121c0-.909.592-1.329 1.15-1.329h2.471v2.45zM105.828 9.624c-3.22-.276-4.698.581-4.698.581l.278 2.31s1.855-.76 3.845-.387c1.391.263 1.289 1.957 1.289 1.957h-2.683c-.828 0-1.652.187-2.366.607-.786.463-1.445 1.176-1.508 2.522-.123 2.585 1.445 3.358 2.488 3.583 1.314 0 3.718.046 4.838 0 1.044-.043 1.931-.488 1.931-.488v-7.956c-.004 0-.194-2.454-3.414-2.73zm.714 8.902h-2.594s-1.027-.098-1.027-1.121c0-.909.592-1.329 1.149-1.329h2.472v2.45zM94.411 6.397v5.693h-5.349V6.397h-3.236v14.187h3.236v-5.697h5.35v5.697h3.236V6.397H94.41zM120.198 10.247l-.6 2.255s-4.905-1.465-4.855 2.818c.051 4.284 3.862 3.29 5.037 2.688.262 1.757.418 2.436.418 2.436s-2.455.87-4.593.37c-2.142-.501-4.229-2.098-4.073-5.625.156-3.528 2.561-4.712 3.706-5.209 1.935-.832 4.96.267 4.96.267zM122.391 5.32l3.105-.472v8.915l3.499-3.88h3.393l-4.175 4.746s3.6 4.177 4.361 5.956c-1.019-.03-3.524 0-3.524 0s-1.095-2.632-3.499-4.505v4.505h-3.055l-.105-15.266zM141.573 10.222l-.6 2.203s-3.794-1.095-4.073.289c-.207 1.048 2.079 1.566 2.637 1.834 1.487.709 2.463 1.469 2.463 3.094 0 1.626-.739 3.333-4.445 3.333-3.705 0-3.942-.76-3.942-.76l.6-2.36s1.42.955 3.837.675c1.487-.174 1.001-1.33-.246-1.826-1.246-.497-4.495-1.171-3.646-4.38 1.154-4.33 7.415-2.102 7.415-2.102z" fill="#060001"/><path fill-rule="evenodd" clip-rule="evenodd" d="M13.384 9.292c8.189-2.75 15.507-2.199 16.348 1.236.84 3.438-5.117 8.452-13.305 11.207C8.238 24.485.916 23.934.079 20.495c-.84-3.434 5.117-8.452 13.305-11.203z" fill="url(#prefix__paint0_linear_88_208)"/><path fill-rule="evenodd" clip-rule="evenodd" d="M2.733.034c.853-.327 3.371 1.8 4.888 2.857 1.403-.484 3.562-1.015 5.46-.713 1.034.165 1.956.45 2.665.832.799-.548 5.117-3.889 5.4-2.738.212.878.186 1.732.064 2.56-.229 1.523-.622 3.09-1.019 4.644-.194.768-.562 1.51-.633 2.203-.11 1.048.249 2.173.507 3.094.261.926.397 1.92 1.018 2.56 3.38 2.628 6.359 6.41 6.984 8.278.262.786.131 1.41-.38 1.847-.858.734-2.05.607-2.983-.06-.596-.428-1.395-1.282-2.032-1.965a19.994 19.994 0 00-1.526-1.43c-.27-.226-.393-.255-.566-.28-.283-.039-.85.182-1.272.296-1.115.302-2.476.531-3.752.697.486.59 1.526 1.422 2.16 2.143.363.416.874 1.028.887 1.788.012.645-.727 1.57-2.667 1.307-.544-.072-2.4-.874-2.729-1.074-7.905-4.695-8.24-9.212-9.143-16.853C3.819 7.92 2.859 5.272 2.479 2.95c-.156-.976-.524-2.59.254-2.916z" fill="#060001"/><path d="M17.162 8.325c-.402.046-.727.772-1.187 1.107-.68.497-1.686.306-1.631-.08.05-.386.27-.416.862-.505.591-.09 1.614-.556 1.297-2.242-.28-1.473-1.935-1.142-1.935-1.142s-.296-.547-1.027-.603c-.723-.055-1.323.883-1.323.883s-.473.29-.701-.305c-.114-.297-.727-.764-1.352-.505-.634.263-1.187.9-1.031 1.587.156.68.858.947 1.343.913.486-.034.795.23.753.458-.072.366-1.053.629-1.999.085-.54-.31-.773-1.171-.756-1.358l.034-.437s-1.513 0-1.864 1.277C6.3 8.736 7.17 9.36 7.69 9.31c.346-.034.084-.513.503-.908.118-.11.46-.183.617.025.156.208.097.463-.148.603-.245.14-.427.773.266 1.172.312.178-.165 1.125-.718.403-.326-.42-.292-.607-.638-.569-.347.034-.765-.301-.837-.352-.068-.051-.473.165-.317.637.156.47.135 1.1 1.72 1.154.33.017.44.073.507.336s.857 1.464 2.024.82c1.166-.646.46-1.66-.047-1.81-.321-.093-.507-.509-.266-.76.13-.135.266-.084.613.056.992.408 1.453 1.651.807 2.17-.27.216.278.577.73.64.453.068 2.198-.11 2.388-1.087.084-.428.03-.696.042-.938.017-.45.672-.505.689-.208.017.297-.009.365.13.493.381.344 1.4-.098 1.695-.781.308-.688.224-2.144-.287-2.08zm-4.53 1.91c-.181 0-.422-.263-.291-.412.3-.331.346-.802.325-1.091-.03-.386-.253-.535-.266-.76-.008-.195.14-.318.317-.378.384-.123.672.752.642 1.503-.017.603-.313 1.138-.727 1.138zm.41-4.445c.135-.356.36-.322.452-.314.093.004.351.102.338.34 0 0-.14.721.14.946.422.344.98.2 1.111.2.182-.004.397.424.093.624-.304.2-1.213.276-1.699-.217-.52-.518-.562-1.243-.435-1.579z" fill="#fff" stroke="#DF6F28" stroke-width=".212" stroke-miterlimit="10"/><defs><linearGradient id="prefix__paint0_linear_88_208" x1="8.643" y1="9.222" x2="21.227" y2="21.746" gradientUnits="userSpaceOnUse"><stop stop-color="#DC631E"/><stop offset=".98" stop-color="#FCF5F0"/></linearGradient></defs></svg>