<?xml version="1.0" standalone="no"?><!DOCTYPE svg PUBLIC "-//W3C//DTD SVG 1.1//EN" "http://www.w3.org/Graphics/SVG/1.1/DTD/svg11.dtd"><svg t="1687660601492" class="icon" viewBox="0 0 1024 1024" version="1.1" xmlns="http://www.w3.org/2000/svg" p-id="4405" xmlns:xlink="http://www.w3.org/1999/xlink" width="200" height="200"><path d="M902.343 570.936h-331.78v331.833c0 32.337-26.226 58.537-58.564 58.537-32.337 0-58.563-26.2-58.563-58.537V570.936H121.654c-32.364 0-58.564-26.2-58.564-58.538 0-32.325 26.203-58.537 58.564-58.537h331.78V122.028c0-32.325 26.226-58.537 58.563-58.537 32.338 0 58.564 26.213 58.564 58.537v331.834h331.78c32.364 0 58.565 26.211 58.565 58.535-0.001 32.337-26.2 58.536-58.565 58.536z" fill="#ffffff" p-id="4406"></path></svg>