<?xml version="1.0" standalone="no"?><!DOCTYPE svg PUBLIC "-//W3C//DTD SVG 1.1//EN" "http://www.w3.org/Graphics/SVG/1.1/DTD/svg11.dtd"><svg t="1687327484939" class="icon" viewBox="0 0 1024 1024" version="1.1" xmlns="http://www.w3.org/2000/svg" p-id="9189" xmlns:xlink="http://www.w3.org/1999/xlink" width="200" height="200"><path d="M896.062469 0h-767.625183C57.771791 0 0.499756 57.272035 0.499756 127.937531v767.625183c0 70.665495 57.272035 127.937531 127.93753 127.93753h767.625183c70.665495 0 127.937531-57.272035 127.937531-127.93753v-767.625183c0-70.665495-57.272035-127.937531-127.937531-127.937531zM831.593948 513.149439c-0.499756 17.391508-15.192582 31.084822-32.684041 31.084822H559.726696c-8.795705 0-15.992191 7.196486-15.992191 15.992191v239.183211c0 17.391508-13.693314 32.184285-31.084822 32.684041-18.091166 0.499756-32.883943-13.993167-32.883944-31.984382V560.226452c0-8.795705-7.196486-15.992191-15.992191-15.992191H224.590337c-17.391508 0-32.184285-13.693314-32.684041-31.084822-0.499756-18.091166 13.993167-32.883943 31.984382-32.883944h239.88287c8.795705 0 15.992191-7.196486 15.992191-15.992191V225.090093c0-17.391508 13.693314-32.184285 31.084822-32.684041 18.091166-0.499756 32.883943 13.993167 32.883944 31.984382v239.88287c0 8.795705 7.196486 15.992191 15.992191 15.992191h239.88287c17.991215 0 32.484139 14.792777 31.984382 32.883944z" p-id="9190" fill="#1971c2"></path></svg>