<?xml version="1.0" standalone="no"?><!DOCTYPE svg PUBLIC "-//W3C//DTD SVG 1.1//EN" "http://www.w3.org/Graphics/SVG/1.1/DTD/svg11.dtd"><svg t="1687660826533" class="icon" viewBox="0 0 1024 1024" version="1.1" xmlns="http://www.w3.org/2000/svg" p-id="12363" xmlns:xlink="http://www.w3.org/1999/xlink" width="200" height="200"><path d="M512 1024A512 512 0 1 1 512 0a512 512 0 0 1 0 1024zM332.8 460.8a76.8 76.8 0 1 0 0-153.6 76.8 76.8 0 0 0 0 153.6z m358.4 0a76.8 76.8 0 1 0 0-153.6 76.8 76.8 0 0 0 0 153.6z m39.936 297.574A391.475 391.475 0 0 0 511.181 691.2c-78.746 0-154.112 23.245-218.112 66.048a25.6 25.6 0 0 0 28.365 42.598A340.275 340.275 0 0 1 511.18 742.4c69.222 0 135.168 20.48 191.283 58.368a25.6 25.6 0 1 0 28.672-42.394z" p-id="12364" fill="#f4ea2a"></path></svg>