<?xml version="1.0" standalone="no"?><!DOCTYPE svg PUBLIC "-//W3C//DTD SVG 1.1//EN" "http://www.w3.org/Graphics/SVG/1.1/DTD/svg11.dtd"><svg t="1687321234030" class="icon" viewBox="0 0 1024 1024" version="1.1" xmlns="http://www.w3.org/2000/svg" p-id="2376" xmlns:xlink="http://www.w3.org/1999/xlink" width="200" height="200"><path d="M415.930119 223.790358c0-52.980346 43.003528-95.983874 95.983874-95.983874s95.983874 43.003528 95.983874 95.983874-43.003528 95.983874-95.983874 95.983874S415.930119 276.770704 415.930119 223.790358z" fill="#ffffff" p-id="2377"></path><path d="M415.930119 511.741979c0-52.980346 43.003528-95.983874 95.983874-95.983874s95.983874 43.003528 95.983874 95.983874-43.003528 95.983874-95.983874 95.983874S415.930119 564.722325 415.930119 511.741979z" fill="#ffffff" p-id="2378"></path><path d="M415.930119 799.865614c0-52.980346 43.003528-95.983874 95.983874-95.983874s95.983874 43.003528 95.983874 95.983874-43.003528 95.983874-95.983874 95.983874S415.930119 852.673946 415.930119 799.865614z" fill="#ffffff" p-id="2379"></path></svg>