<?xml version="1.0" standalone="no"?><!DOCTYPE svg PUBLIC "-//W3C//DTD SVG 1.1//EN" "http://www.w3.org/Graphics/SVG/1.1/DTD/svg11.dtd"><svg t="1687680265490" class="icon" viewBox="0 0 1192 1024" version="1.1" xmlns="http://www.w3.org/2000/svg" p-id="21047" xmlns:xlink="http://www.w3.org/1999/xlink" width="232.8125" height="200"><path d="M843.494457 366.687361a38.59867 38.59867 0 1 1 38.598669-38.598669 38.59867 38.59867 0 0 1-38.598669 38.598669z m0-170.288248a134.527716 134.527716 0 1 0 134.527716 134.527716 134.527716 134.527716 0 0 0-134.527716-136.798226z m252.594235 388.824834l-157.232816-67.547672a47.68071 47.68071 0 0 0-56.76275 0l-207.184035 139.636364L380.310421 290.05765a48.248337 48.248337 0 0 0-70.385809 0L95.929047 507.45898V95.929047h1000.159645z m0 345.117516H95.929047v-283.813747L340.576497 392.230599l288.922394 359.308204a47.68071 47.68071 0 0 0 63.006652 7.946785l215.698448-144.745012 187.884701 88.54989z m0-930.341463H95.929047A95.929047 95.929047 0 0 0 0 95.929047v832.141906A95.929047 95.929047 0 0 0 95.929047 1021.72949h1000.159645A95.929047 95.929047 0 0 0 1192.017738 928.070953V95.929047A95.929047 95.929047 0 0 0 1096.088692 0z" fill="#c1c2c5" p-id="21048"></path></svg>