<?xml version="1.0" standalone="no"?><!DOCTYPE svg PUBLIC "-//W3C//DTD SVG 1.1//EN" "http://www.w3.org/Graphics/SVG/1.1/DTD/svg11.dtd"><svg t="1687660855685" class="icon" viewBox="0 0 1024 1024" version="1.1" xmlns="http://www.w3.org/2000/svg" p-id="13480" xmlns:xlink="http://www.w3.org/1999/xlink" width="200" height="200"><path d="M512 64C264.576 64 64 264.576 64 512s200.576 448 448 448 448-200.576 448-448S759.424 64 512 64z m0 832c-212.064 0-384-171.936-384-384s171.936-384 384-384 384 171.936 384 384-171.936 384-384 384z" p-id="13481" fill="#f4ea2a"></path><path d="M256 384a64 64 0 1 0 128 0 64 64 0 1 0-128 0zM640 384a64 64 0 1 0 128 0 64 64 0 1 0-128 0zM224 512c0 159.072 128.928 288 288 288s288-128.928 288-288H224z" p-id="13482" fill="#f4ea2a"></path></svg>