<svg width="74" height="74" viewBox="0 0 74 74" fill="none" xmlns="http://www.w3.org/2000/svg">
<path d="M27.7529 54.7289C27.4137 54.7289 27.0437 54.6364 26.7354 54.4822C24.3612 53.2797 22.3262 51.4914 20.8462 49.2714C19.6129 47.4214 19.6129 45.0472 20.8462 43.1972C22.3262 40.9772 24.3612 39.1889 26.7354 38.0172C27.8762 37.4314 29.2637 37.9247 29.8496 39.0655C30.4354 40.2064 29.9729 41.5939 28.8012 42.1797C27.1362 43.0122 25.7179 44.2764 24.7004 45.818C24.5154 46.0955 24.5154 46.4655 24.7004 46.7739C25.7179 48.3155 27.1362 49.5797 28.8012 50.4122C29.9421 50.998 30.4046 52.3855 29.8496 53.5264C29.4179 54.2664 28.5854 54.7289 27.7529 54.7289Z" fill="#FF007A"/>
<path d="M46.895 54.7288C46.0317 54.7288 45.23 54.2663 44.8292 53.4647C44.2434 52.3238 44.7059 50.9363 45.8775 50.3505C47.5425 49.518 48.9609 48.2538 49.9784 46.7122C50.1634 46.4347 50.1634 46.0647 49.9784 45.7563C48.9609 44.2147 47.5425 42.9505 45.8775 42.118C44.7367 41.5322 44.2742 40.1447 44.8292 39.0038C45.415 37.863 46.8025 37.4005 47.9434 37.9555C50.3175 39.158 52.3525 40.9463 53.8325 43.1663C55.0659 45.0163 55.0659 47.3905 53.8325 49.2405C52.3525 51.4605 50.3175 53.2488 47.9434 54.4205C47.5734 54.6363 47.2342 54.7288 46.895 54.7288Z" fill="#FF007A"/>
<path d="M46.25 70.1459H27.75C11.0075 70.1459 3.85417 62.9925 3.85417 46.25V27.75C3.85417 11.0075 11.0075 3.85419 27.75 3.85419H46.25C62.9925 3.85419 70.1458 11.0075 70.1458 27.75V46.25C70.1458 62.9925 62.9925 70.1459 46.25 70.1459ZM27.75 8.47919C13.5358 8.47919 8.47917 13.5359 8.47917 27.75V46.25C8.47917 60.4642 13.5358 65.5209 27.75 65.5209H46.25C60.4642 65.5209 65.5208 60.4642 65.5208 46.25V27.75C65.5208 13.5359 60.4642 8.47919 46.25 8.47919H27.75Z" fill="#FF007A"/>
<path d="M6.87728 27.01C5.61312 27.01 4.56478 25.9617 4.56478 24.6975C4.56478 23.4333 5.58228 22.385 6.87728 22.385L66.139 22.3542C67.4032 22.3542 68.4515 23.4025 68.4515 24.6667C68.4515 25.9308 67.434 26.9792 66.139 26.9792L6.87728 27.01Z" fill="#FF007A"/>
</svg>
