<?xml version="1.0" standalone="no"?>
<!DOCTYPE svg PUBLIC "-//W3C//DTD SVG 20010904//EN"
 "http://www.w3.org/TR/2001/REC-SVG-20010904/DTD/svg10.dtd">
<svg version="1.0" xmlns="http://www.w3.org/2000/svg"
 width="225.000000pt" height="225.000000pt" viewBox="0 0 225.000000 225.000000"
 preserveAspectRatio="xMidYMid meet">

<g transform="translate(0.000000,225.000000) scale(0.100000,-0.100000)"
fill="#000000" stroke="none">
<path d="M1044 1876 c-19 -19 -34 -41 -34 -50 0 -9 -6 -16 -12 -16 -7 0 -154
-22 -327 -49 l-314 -49 -19 24 c-11 13 -36 29 -57 35 -49 15 -103 -7 -131 -53
-31 -51 -25 -93 22 -144 19 -21 18 -23 -19 -172 l-38 -152 -45 -22 c-36 -18
-48 -31 -59 -64 -22 -62 -1 -111 59 -142 l45 -22 38 -152 c36 -149 37 -152 18
-172 -46 -51 -52 -93 -21 -144 28 -46 82 -68 131 -53 21 6 46 22 57 35 l19 24
314 -49 c173 -27 320 -49 327 -49 6 0 12 -7 12 -16 0 -9 15 -31 34 -50 49 -49
113 -49 162 0 19 19 34 41 34 50 0 9 6 16 13 16 6 0 153 22 326 49 l314 49 19
-24 c11 -13 36 -29 57 -35 49 -15 103 7 131 53 31 51 25 93 -21 144 -19 20
-18 23 18 173 l37 152 41 18 c41 18 75 66 75 105 0 43 -30 87 -72 106 l-43 19
-38 152 c-37 150 -37 152 -19 173 47 51 53 93 22 144 -28 46 -82 68 -131 53
-21 -6 -46 -22 -57 -35 l-19 -24 -314 49 c-173 27 -320 49 -326 49 -7 0 -13 7
-13 16 0 9 -15 31 -34 50 -29 29 -41 34 -81 34 -40 0 -52 -5 -81 -34z m107
-36 c22 -12 26 -59 7 -78 -7 -7 -21 -12 -33 -12 -29 0 -45 19 -45 52 0 39 34
57 71 38z m-72 -150 c7 0 11 -35 11 -105 l0 -105 -100 0 c-85 0 -101 -3 -109
-18 -5 -10 -6 -23 -3 -29 5 -8 128 -13 419 -15 388 -3 412 -4 432 -22 20 -18
21 -28 21 -269 0 -219 -2 -253 -17 -269 -15 -17 -47 -18 -606 -18 -535 0 -592
2 -609 17 -17 15 -18 37 -18 268 0 300 -6 286 118 295 74 5 77 6 77 30 0 24
-2 25 -82 28 -46 1 -91 -2 -101 -7 -16 -8 -30 2 -89 62 -61 62 -70 75 -62 95
4 12 16 22 26 22 10 1 155 22 323 49 l305 47 27 -28 c14 -15 31 -28 37 -28z
m485 5 c159 -25 296 -45 303 -45 8 0 18 -10 22 -22 8 -20 -1 -33 -62 -95 -57
-59 -74 -70 -88 -62 -10 5 -141 9 -298 9 l-281 0 0 104 c0 96 2 105 20 111 11
4 27 17 35 29 11 16 23 22 38 19 12 -2 152 -24 311 -48z m-1282 -2 c22 -20 23
-41 1 -65 -20 -22 -41 -23 -65 -1 -22 20 -23 46 -2 67 20 21 43 20 66 -1z
m1752 1 c21 -20 20 -43 -1 -66 -20 -22 -41 -23 -65 -1 -22 20 -23 41 -1 65 20
22 46 23 67 2z m-1595 -295 c-5 -10 -9 -67 -9 -128 l0 -111 -97 0 -98 0 -28
35 -27 34 37 155 c34 143 39 156 62 165 24 8 33 2 98 -62 59 -57 70 -74 62
-88z m1594 -15 l37 -155 -27 -34 -28 -35 -97 0 -98 0 0 113 c0 61 -5 119 -10
127 -7 12 7 32 62 87 65 66 73 70 98 62 25 -9 29 -20 63 -165z m-1872 -235
c17 -33 -3 -69 -39 -69 -33 0 -52 16 -52 45 0 29 19 45 52 45 18 0 31 -7 39
-21z m2007 9 c7 -7 12 -21 12 -33 0 -29 -19 -45 -52 -45 -36 0 -56 36 -39 69
13 23 59 29 79 9z m-1738 -180 c0 -62 5 -120 10 -128 7 -12 -7 -32 -62 -87
-65 -66 -73 -70 -98 -62 -25 9 -29 20 -63 165 l-37 155 27 34 28 35 98 0 97 0
0 -112z m1613 77 l27 -34 -37 -155 c-34 -143 -39 -156 -62 -165 -23 -7 -32 -3
-72 36 -46 44 -71 49 -84 15 -4 -10 9 -31 39 -61 37 -39 43 -50 35 -68 -4 -13
-16 -23 -26 -23 -10 -1 -155 -22 -323 -49 l-305 -47 -27 28 c-14 15 -31 28
-37 28 -7 0 -11 35 -11 105 l0 105 280 0 c311 0 323 2 360 63 17 27 20 51 20
145 l0 112 98 0 97 0 28 -35z m-1234 -285 l281 0 0 -105 c0 -70 -4 -105 -11
-105 -6 0 -23 -13 -37 -28 l-27 -28 -305 47 c-168 27 -313 48 -323 49 -10 0
-22 10 -26 23 -8 19 1 32 62 94 57 59 74 70 88 62 10 -5 141 -9 298 -9z m-527
-147 c23 -21 23 -45 -2 -68 -45 -40 -105 20 -65 65 22 24 43 25 67 3z m1753
-3 c40 -45 -20 -105 -65 -65 -24 22 -25 43 -3 67 21 23 45 23 68 -2z m-877
-132 c21 -21 15 -67 -12 -79 -34 -16 -66 3 -66 39 0 33 16 52 45 52 12 0 26
-5 33 -12z"/>
<path d="M765 1460 c-9 -28 6 -43 36 -38 18 2 24 9 24 28 0 34 -50 42 -60 10z"/>
<path d="M635 1278 c-3 -8 -4 -81 -3 -163 l3 -150 90 0 c79 0 94 3 124 24 37
27 71 91 71 136 0 45 -34 109 -71 136 -28 20 -49 25 -121 27 -68 3 -89 1 -93
-10z m180 -82 c32 -32 40 -69 25 -107 -17 -41 -47 -59 -97 -59 l-43 0 0 95 0
95 45 0 c35 0 52 -6 70 -24z"/>
<path d="M1400 1268 c-45 -30 -70 -81 -70 -143 0 -62 25 -113 70 -143 29 -20
44 -23 88 -20 85 7 132 65 132 163 0 98 -47 156 -132 163 -44 3 -59 0 -88 -20z
m127 -70 c32 -30 33 -111 1 -145 -50 -54 -128 -10 -128 72 0 81 73 124 127 73z"/>
<path d="M1053 1260 c-54 -32 -67 -63 -71 -165 -5 -104 6 -138 41 -133 17 2
23 11 25 36 l3 32 74 0 74 0 3 -32 c4 -41 40 -52 58 -17 19 34 9 199 -13 233
-26 39 -76 66 -122 66 -22 0 -54 -9 -72 -20z m121 -69 c10 -11 19 -35 19 -53
l2 -33 -70 0 -70 0 2 33 c0 18 9 42 19 53 23 25 75 25 98 0z"/>
</g>
</svg>
