<?xml version="1.0" standalone="no"?><!DOCTYPE svg PUBLIC "-//W3C//DTD SVG 1.1//EN" "http://www.w3.org/Graphics/SVG/1.1/DTD/svg11.dtd"><svg t="1687811881006" class="icon" viewBox="0 0 1042 1024" version="1.1" xmlns="http://www.w3.org/2000/svg" p-id="2570" xmlns:xlink="http://www.w3.org/1999/xlink" width="65.125" height="64"><path d="M919.602283 783.956379a118.964296 118.964296 0 0 0-64.104203 18.761254l-138.603156-139.168724a250.956158 250.956158 0 0 1-40.759899 42.008048l139.071213 139.617278a119.763892 119.763892 0 1 0 104.396045-61.217856z m0 181.196274a61.354373 61.354373 0 1 1 61.334871-61.33487 61.41288 61.41288 0 0 1-61.334871 61.33487z" fill="#666666" p-id="2571"></path><path d="M369.207142 315.081034L228.185695 173.513521a120.192944 120.192944 0 1 0-37.873551 44.855391l136.88695 137.433015a248.342844 248.342844 0 0 1 42.008048-40.720893zM120.571763 182.465097a61.334871 61.334871 0 1 1 61.334871-61.334871A61.393378 61.393378 0 0 1 120.649772 182.465097z" fill="#666666" p-id="2572"></path><path d="M317.642945 656.489061L176.71901 797.959061a120.017423 120.017423 0 1 0 43.490226 39.258218l136.808941-137.355006a249.083933 249.083933 0 0 1-39.375232-43.373212z m-196.97367 308.663592a61.354373 61.354373 0 1 1 61.33487-61.33487 61.41288 61.41288 0 0 1-61.354373 61.33487z" fill="#666666" p-id="2573"></path><path d="M706.870719 349.151628l135.755814-136.30188a120.563488 120.563488 0 1 0-34.61666-48.209793l-144.648883 145.233953a250.449097 250.449097 0 0 1 43.509729 39.27772zM919.602283 59.873365a61.334871 61.334871 0 1 1-61.334871 61.334871 61.393378 61.393378 0 0 1 61.334871-61.334871z" fill="#666666" p-id="2574"></path><path d="M716.894924 663.548909a246.89967 246.89967 0 0 0-10.024205-314.397281 250.449097 250.449097 0 0 0-43.451222-39.27772 248.22583 248.22583 0 0 0-336.142394 45.947521 254.603096 254.603096 0 0 0-19.190306 27.108258 29.253515 29.253515 0 1 0 49.906497 30.560172 189.913822 189.913822 0 1 1-6.669801 186.14987 29.253515 29.253515 0 0 0-51.954244 26.893732 251.970279 251.970279 0 0 0 18.273696 29.9556 247.874787 247.874787 0 0 0 399.251979 7.059848z" fill="#1771B9" p-id="2575"></path><path d="M335.877636 490.3876a29.253515 29.253515 0 0 0-29.253515-29.253515h-0.195023a29.253515 29.253515 0 1 0 29.448538 29.253515z" fill="#1771B9" p-id="2576"></path></svg>