<svg width="30" height="30" viewBox="0 0 30 30" fill="none" xmlns="http://www.w3.org/2000/svg">
<path d="M27.5 10.8125C27.3891 9.23189 26.6819 7.75238 25.5216 6.6733C24.3613 5.59422 22.8345 4.99613 21.25 5.00002H8.74998C7.14718 4.99785 5.6048 5.61153 4.44161 6.71424C3.27842 7.81695 2.58332 9.32439 2.49998 10.925C2.49293 11.0332 2.49293 11.1418 2.49998 11.25V20.625C2.49666 21.2005 2.60756 21.7709 2.82625 22.3032C3.04494 22.8355 3.36707 23.3191 3.77399 23.726C4.18091 24.1329 4.66452 24.4551 5.19682 24.6737C5.72912 24.8924 6.29952 25.0033 6.87498 25C8.66248 25 9.77497 23.675 10.8625 22.3875C11.2625 21.925 11.675 21.4375 12.1125 21.0125C12.6929 20.5874 13.3449 20.2698 14.0375 20.075C14.6769 20 15.323 20 15.9625 20.075C16.6551 20.2698 17.3071 20.5874 17.8875 21.0125C18.325 21.4375 18.7375 21.925 19.1375 22.3875C20.225 23.6375 21.3375 25 23.125 25C23.7004 25.0033 24.2708 24.8924 24.8031 24.6737C25.3354 24.4551 25.819 24.1329 26.226 23.726C26.6329 23.3191 26.955 22.8355 27.1737 22.3032C27.3924 21.7709 27.5033 21.2005 27.5 20.625V11.25C27.5067 11.1418 27.5067 11.0332 27.5 10.925V10.8125ZM25 20.625C25 21.1223 24.8024 21.5992 24.4508 21.9508C24.0992 22.3025 23.6223 22.5 23.125 22.5C22.5 22.5 21.875 21.7 21.05 20.775C20.625 20.2875 20.15 19.7125 19.6125 19.2C18.7074 18.4709 17.66 17.9387 16.5375 17.6375C15.5207 17.4541 14.4793 17.4541 13.4625 17.6375C12.3399 17.9387 11.2926 18.4709 10.3875 19.2C9.84998 19.7125 9.37498 20.2875 8.94998 20.775C8.17498 21.7 7.49998 22.5 6.87498 22.5C6.3777 22.5 5.90078 22.3025 5.54915 21.9508C5.19752 21.5992 4.99998 21.1223 4.99998 20.625V11.25C5.00608 11.1877 5.00608 11.1249 4.99998 11.0625C5.04812 10.1008 5.46436 9.19447 6.16248 8.53127C6.86059 7.86806 7.78706 7.49881 8.74998 7.50002H21.25C22.1868 7.49593 23.0912 7.84262 23.7852 8.47186C24.4792 9.1011 24.9125 9.96731 25 10.9V11.05C24.9938 11.1165 24.9938 11.1835 25 11.25V20.625Z" fill="#A43737"/>
<path d="M20 16.25C20.6904 16.25 21.25 15.6904 21.25 15C21.25 14.3096 20.6904 13.75 20 13.75C19.3096 13.75 18.75 14.3096 18.75 15C18.75 15.6904 19.3096 16.25 20 16.25Z" fill="#A43737"/>
<path d="M22.5 13.75C23.1904 13.75 23.75 13.1904 23.75 12.5C23.75 11.8096 23.1904 11.25 22.5 11.25C21.8096 11.25 21.25 11.8096 21.25 12.5C21.25 13.1904 21.8096 13.75 22.5 13.75Z" fill="#A43737"/>
<path d="M20 11.25C20.6904 11.25 21.25 10.6904 21.25 10C21.25 9.30964 20.6904 8.75 20 8.75C19.3096 8.75 18.75 9.30964 18.75 10C18.75 10.6904 19.3096 11.25 20 11.25Z" fill="#A43737"/>
<path d="M17.5 13.75C18.1904 13.75 18.75 13.1904 18.75 12.5C18.75 11.8096 18.1904 11.25 17.5 11.25C16.8096 11.25 16.25 11.8096 16.25 12.5C16.25 13.1904 16.8096 13.75 17.5 13.75Z" fill="#A43737"/>
<path d="M10 15C11.3807 15 12.5 13.8807 12.5 12.5C12.5 11.1193 11.3807 10 10 10C8.61929 10 7.5 11.1193 7.5 12.5C7.5 13.8807 8.61929 15 10 15Z" fill="#A43737"/>
</svg>
