<svg width="30" height="30" viewBox="0 0 30 30" fill="none" xmlns="http://www.w3.org/2000/svg">
<path d="M18.525 5.32495C18.2768 5.76956 18.0555 6.22873 17.8625 6.69995C15.966 6.40001 14.0341 6.40001 12.1375 6.69995C11.9445 6.22873 11.7233 5.76956 11.475 5.32495C9.68851 5.6302 7.95177 6.17687 6.31252 6.94995C3.38119 11.1803 2.05181 16.3161 2.56252 21.4375C4.47282 22.8735 6.61684 23.9688 8.90002 24.675C9.41991 23.9882 9.8839 23.2609 10.2875 22.5C9.54261 22.2253 8.82664 21.8778 8.15002 21.4625C8.3356 21.339 8.51114 21.201 8.67502 21.05C10.6481 22.0003 12.81 22.4939 15 22.4939C17.1901 22.4939 19.3519 22.0003 21.325 21.05C21.5 21.2 21.675 21.3375 21.85 21.4625C21.1697 21.8745 20.4545 22.2259 19.7125 22.5125C20.0994 23.2906 20.551 24.0349 21.0625 24.7375C23.3428 24.0337 25.4832 22.9382 27.3875 21.5C27.9105 16.3777 26.58 11.2377 23.6375 7.01245C22.0167 6.22337 20.2971 5.65579 18.525 5.32495V5.32495ZM10.85 18.5125C10.2245 18.4675 9.6407 18.1821 9.22117 17.7159C8.80164 17.2498 8.57901 16.6392 8.60002 16.0125C8.57584 15.3848 8.79738 14.7726 9.21753 14.3057C9.63769 13.8389 10.2233 13.5543 10.85 13.5125C11.4767 13.5543 12.0623 13.8389 12.4825 14.3057C12.9027 14.7726 13.1242 15.3848 13.1 16.0125C13.1242 16.6401 12.9027 17.2523 12.4825 17.7192C12.0623 18.186 11.4767 18.4706 10.85 18.5125V18.5125ZM19.15 18.5125C18.5245 18.4675 17.9407 18.1821 17.5212 17.7159C17.1016 17.2498 16.879 16.6392 16.9 16.0125C16.8758 15.3848 17.0974 14.7726 17.5175 14.3057C17.9377 13.8389 18.5233 13.5543 19.15 13.5125C19.7779 13.5512 20.3654 13.8348 20.7862 14.3024C21.207 14.7699 21.4274 15.384 21.4 16.0125C21.4274 16.6409 21.207 17.255 20.7862 17.7225C20.3654 18.1901 19.7779 18.4737 19.15 18.5125V18.5125Z" fill="#374FA6"/>
</svg>
