<svg width="30" height="30" viewBox="0 0 30 30" fill="none" xmlns="http://www.w3.org/2000/svg">
<g clip-path="url(#clip0_820_315)">
<path d="M15.16 27.32C21.8758 27.32 27.32 21.8758 27.32 15.16C27.32 8.44422 21.8758 3 15.16 3C8.44422 3 3 8.44422 3 15.16C3 21.8758 8.44422 27.32 15.16 27.32Z" fill="#A45E37"/>
<path d="M15.16 6.42212C11.5467 6.42212 8.5936 9.35789 8.5936 12.9885C8.5936 13.7181 8.7152 14.4303 8.94103 15.1252C9.09737 15.5942 9.61851 15.8548 10.1049 15.6985C10.5739 15.5421 10.8345 15.021 10.6782 14.5346C10.4871 13.9961 10.4002 13.4228 10.4176 12.8495C10.4871 10.4002 12.4674 8.38509 14.9168 8.26349C17.6441 8.12452 19.9024 10.2959 19.9024 12.9885C19.9024 15.5074 17.9221 17.5746 15.4379 17.7135C15.4379 17.7135 14.5173 17.7657 14.0656 17.8351C13.8398 17.8699 13.6661 17.9046 13.5445 17.922C13.4923 17.9394 13.4402 17.8873 13.4576 17.8351L13.6139 17.0708L14.4651 13.1449C14.5694 12.6585 14.2567 12.1721 13.7703 12.0678C13.2839 11.9636 12.7975 12.2763 12.6933 12.7627C12.6933 12.7627 10.6434 22.317 10.6261 22.4212C10.5218 22.9076 10.8345 23.394 11.3209 23.4982C11.8073 23.6025 12.2937 23.2898 12.3979 22.8034C12.4153 22.6991 12.6933 21.431 12.6933 21.431C12.9017 20.4582 13.7008 19.746 14.6389 19.6244C14.8473 19.5897 15.6638 19.5375 15.6638 19.5375C19.0512 19.277 21.7264 16.4454 21.7264 12.9885C21.7264 9.35789 18.7733 6.42212 15.16 6.42212ZM15.629 21.5353C15.0384 21.4137 14.4478 21.7785 14.3262 22.3865C14.2046 22.9771 14.5694 23.5677 15.1774 23.6893C15.768 23.8109 16.3586 23.4461 16.4802 22.8381C16.6018 22.2301 16.237 21.6569 15.629 21.5353Z" fill="white"/>
</g>
<defs>
<clipPath id="clip0_820_315">
<rect width="24.32" height="24.32" fill="white" transform="translate(3 3)"/>
</clipPath>
</defs>
</svg>
