<svg width="98" height="92" viewBox="0 0 98 92" fill="none" xmlns="http://www.w3.org/2000/svg">
<path d="M18.386 70.6634H15.7472C15.5912 69.8963 15.3181 69.2223 14.928 68.6416C14.5449 68.0609 14.0768 67.5733 13.5235 67.179C12.9773 66.7775 12.3708 66.4764 11.704 66.2756C11.0373 66.0749 10.3421 65.9745 9.61859 65.9745C8.29922 65.9745 7.10399 66.3115 6.0329 66.9854C4.96889 67.6594 4.12124 68.6523 3.48993 69.9644C2.86572 71.2764 2.55361 72.886 2.55361 74.7931C2.55361 76.7002 2.86572 78.3098 3.48993 79.6218C4.12124 80.9338 4.96889 81.9268 6.0329 82.6008C7.10399 83.2747 8.29922 83.6117 9.61859 83.6117C10.3421 83.6117 11.0373 83.5113 11.704 83.3105C12.3708 83.1098 12.9773 82.8123 13.5235 82.4179C14.0768 82.0164 14.5449 81.5253 14.928 80.9446C15.3181 80.3567 15.5912 79.6827 15.7472 78.9228H18.386C18.1874 80.0484 17.8256 81.0557 17.3007 81.9447C16.7758 82.8338 16.1232 83.5902 15.3429 84.2139C14.5627 84.8305 13.6866 85.3001 12.7148 85.6227C11.7501 85.9454 10.7181 86.1067 9.61859 86.1067C7.76013 86.1067 6.10738 85.6478 4.66033 84.7301C3.21329 83.8124 2.07481 82.5075 1.24488 80.8155C0.414961 79.1235 0 77.116 0 74.7931C0 72.4701 0.414961 70.4627 1.24488 68.7706C2.07481 67.0786 3.21329 65.7738 4.66033 64.8561C6.10738 63.9383 7.76013 63.4795 9.61859 63.4795C10.7181 63.4795 11.7501 63.6408 12.7148 63.9634C13.6866 64.2861 14.5627 64.7593 15.3429 65.383C16.1232 65.9996 16.7758 66.7524 17.3007 67.6414C17.8256 68.5233 18.1874 69.5306 18.386 70.6634Z" fill="#333333"/>
<path d="M23.9268 92.0001C23.5012 92.0001 23.1217 91.9642 22.7883 91.8925C22.4549 91.828 22.2244 91.7635 22.0967 91.6989L22.7351 89.462C23.3451 89.6198 23.8842 89.6771 24.3524 89.6341C24.8205 89.5911 25.2355 89.3796 25.5973 88.9996C25.9661 88.6268 26.303 88.021 26.6081 87.1821L27.0762 85.8916L21.0327 69.2868H23.7565L28.2679 82.4502H28.4381L32.9495 69.2868H35.6734L28.7361 88.2145C28.424 89.0677 28.0374 89.7739 27.5763 90.3331C27.1152 90.8995 26.5797 91.319 25.9697 91.5914C25.3667 91.8638 24.6858 92.0001 23.9268 92.0001Z" fill="#333333"/>
<path d="M39.3282 85.8056V63.7806H41.8393V71.9109H42.0521C42.2365 71.6241 42.4919 71.2585 42.8181 70.814C43.1515 70.3623 43.6268 69.9608 44.2439 69.6095C44.8681 69.251 45.7122 69.0718 46.7762 69.0718C48.1523 69.0718 49.3653 69.4195 50.4151 70.1149C51.4649 70.8104 52.2842 71.7962 52.873 73.0724C53.4617 74.3486 53.7561 75.8542 53.7561 77.5892C53.7561 79.3386 53.4617 80.855 52.873 82.1383C52.2842 83.4145 51.4685 84.4039 50.4258 85.1065C49.383 85.802 48.1807 86.1497 46.8188 86.1497C45.769 86.1497 44.9284 85.974 44.2971 85.6227C43.6658 85.2643 43.1799 84.8592 42.8394 84.4075C42.4989 83.9486 42.2365 83.5686 42.0521 83.2675H41.7541V85.8056H39.3282ZM41.7967 77.5462C41.7967 78.7937 41.9776 79.8942 42.3393 80.8478C42.7011 81.7942 43.2296 82.5362 43.9247 83.0739C44.6199 83.6045 45.4711 83.8698 46.4783 83.8698C47.5281 83.8698 48.4042 83.5902 49.1064 83.0309C49.8157 82.4645 50.3477 81.7046 50.7024 80.751C51.0642 79.7903 51.245 78.722 51.245 77.5462C51.245 76.3847 51.0677 75.338 50.713 74.4059C50.3655 73.4667 49.837 72.7247 49.1277 72.1798C48.4254 71.6277 47.5423 71.3517 46.4783 71.3517C45.4569 71.3517 44.5986 71.6134 43.9034 72.1368C43.2083 72.653 42.6834 73.3771 42.3287 74.3091C41.974 75.234 41.7967 76.313 41.7967 77.5462Z" fill="#333333"/>
<path d="M57.5971 85.8056V69.2868H60.0231V71.7819H60.1933C60.4912 70.9645 61.0303 70.3013 61.8106 69.7923C62.5909 69.2833 63.4704 69.0287 64.4493 69.0287C64.6338 69.0287 64.8643 69.0323 65.1409 69.0395C65.4176 69.0467 65.6268 69.0574 65.7687 69.0718V71.6528C65.6836 71.6313 65.4885 71.599 65.1835 71.556C64.8856 71.5058 64.5699 71.4807 64.2365 71.4807C63.4421 71.4807 62.7327 71.6492 62.1085 71.9862C61.4914 72.316 61.002 72.7748 60.6402 73.3628C60.2855 73.9435 60.1082 74.6067 60.1082 75.3523V85.8056H57.5971Z" fill="#333333"/>
<path d="M74.8872 86.1497C73.4118 86.1497 72.1172 85.7948 71.0036 85.085C69.897 84.3752 69.0316 83.3822 68.4074 82.1061C67.7903 80.8299 67.4817 79.3386 67.4817 77.6322C67.4817 75.9115 67.7903 74.4095 68.4074 73.1262C69.0316 71.8428 69.897 70.8462 71.0036 70.1364C72.1172 69.4267 73.4118 69.0718 74.8872 69.0718C76.3626 69.0718 77.6536 69.4267 78.7602 70.1364C79.8738 70.8462 80.7392 71.8428 81.3563 73.1262C81.9805 74.4095 82.2927 75.9115 82.2927 77.6322C82.2927 79.3386 81.9805 80.8299 81.3563 82.1061C80.7392 83.3822 79.8738 84.3752 78.7602 85.085C77.6536 85.7948 76.3626 86.1497 74.8872 86.1497ZM74.8872 83.8698C76.0079 83.8698 76.9301 83.5794 77.6536 82.9987C78.3771 82.4179 78.9127 81.6544 79.2602 80.708C79.6078 79.7616 79.7816 78.7364 79.7816 77.6322C79.7816 76.5281 79.6078 75.4993 79.2602 74.5457C78.9127 73.5922 78.3771 72.8215 77.6536 72.2335C76.9301 71.6456 76.0079 71.3517 74.8872 71.3517C73.7664 71.3517 72.8443 71.6456 72.1208 72.2335C71.3973 72.8215 70.8617 73.5922 70.5141 74.5457C70.1666 75.4993 69.9928 76.5281 69.9928 77.6322C69.9928 78.7364 70.1666 79.7616 70.5141 80.708C70.8617 81.6544 71.3973 82.4179 72.1208 82.9987C72.8443 83.5794 73.7664 83.8698 74.8872 83.8698Z" fill="#333333"/>
<path d="M97.7021 72.9864L95.4464 73.6316C95.3045 73.2516 95.0953 72.8824 94.8186 72.5239C94.5491 72.1583 94.1802 71.8571 93.7121 71.6205C93.2439 71.384 92.6445 71.2657 91.9139 71.2657C90.9137 71.2657 90.0803 71.4987 89.4135 71.9647C88.7538 72.4235 88.424 73.0079 88.424 73.7176C88.424 74.3486 88.651 74.8469 89.1049 75.2125C89.5589 75.5782 90.2682 75.8829 91.2329 76.1266L93.6589 76.7289C95.1201 77.0873 96.2089 77.6358 96.9254 78.3743C97.6418 79.1056 98 80.0484 98 81.2027C98 82.1491 97.7305 82.9951 97.1914 83.7407C96.6594 84.4864 95.9146 85.0743 94.957 85.5044C93.9994 85.9346 92.8857 86.1497 91.616 86.1497C89.9491 86.1497 88.5694 85.784 87.477 85.0527C86.3846 84.3215 85.693 83.2532 85.4022 81.8479L87.7856 81.2457C88.0126 82.1347 88.4417 82.8015 89.073 83.246C89.7114 83.6905 90.5449 83.9128 91.5734 83.9128C92.7438 83.9128 93.6731 83.6619 94.3611 83.16C95.0563 82.6509 95.4038 82.0415 95.4038 81.3317C95.4038 80.7582 95.2052 80.2778 94.808 79.8907C94.4108 79.4963 93.8007 79.2024 92.9779 79.0088L90.2541 78.3635C88.7574 78.0051 87.6579 77.4494 86.9557 76.6966C86.2605 75.9366 85.9129 74.9867 85.9129 73.8467C85.9129 72.9147 86.1718 72.0902 86.6897 71.3732C87.2146 70.6562 87.9274 70.0934 88.8283 69.6848C89.7362 69.2761 90.7648 69.0718 91.9139 69.0718C93.5312 69.0718 94.8009 69.4302 95.723 70.1472C96.6523 70.8642 97.312 71.8105 97.7021 72.9864Z" fill="#333333"/>
<rect x="97.3415" y="25.958" width="25.958" height="2.5682" transform="rotate(90 97.3415 25.958)" fill="#333333"/>
<rect x="89.6369" y="25.958" width="25.958" height="2.5682" transform="rotate(90 89.6369 25.958)" fill="#333333"/>
<rect x="81.9323" y="25.958" width="25.958" height="2.5682" transform="rotate(90 81.9323 25.958)" fill="#333333"/>
<path fill-rule="evenodd" clip-rule="evenodd" d="M57.3204 31.3659C57.3204 17.0297 68.8186 5.40796 83.0024 5.40796V8.00376C70.237 8.00376 59.8886 18.4634 59.8886 31.3659L57.3204 31.3659Z" fill="#333333"/>
</svg>
