<svg width="21" height="21" viewBox="0 0 21 21" fill="none" xmlns="http://www.w3.org/2000/svg">
<path d="M8.75 10.5C8.26673 10.5 7.875 10.8917 7.875 11.375C7.875 11.8583 8.26673 12.25 8.75 12.25H12.25C12.7332 12.25 13.125 11.8583 13.125 11.375C13.125 10.8917 12.7332 10.5 12.25 10.5H8.75Z" fill="#333333"/>
<path fill-rule="evenodd" clip-rule="evenodd" d="M3.5 1.75C2.05025 1.75 0.875 2.92525 0.875 4.375V16.625C0.875 18.0748 2.05025 19.25 3.5 19.25H17.5C18.9498 19.25 20.125 18.0748 20.125 16.625V4.375C20.125 2.92525 18.9498 1.75 17.5 1.75H3.5ZM17.5 3.5H3.5C3.01673 3.5 2.625 3.89173 2.625 4.375V7H18.375V4.375C18.375 3.89173 17.9832 3.5 17.5 3.5ZM2.625 16.625V8.75H18.375V16.625C18.375 17.1083 17.9832 17.5 17.5 17.5H3.5C3.01673 17.5 2.625 17.1083 2.625 16.625Z" fill="#333333"/>
</svg>
