<svg width="404" height="154" viewBox="0 0 404 154" fill="none" xmlns="http://www.w3.org/2000/svg">
<circle cx="211.5" cy="3.5" r="3.5" fill="#F4F4F4"/>
<circle cx="211.5" cy="24.5" r="3.5" fill="#F4F4F4"/>
<circle cx="211.5" cy="45.5" r="3.5" fill="#F4F4F4"/>
<circle cx="211.5" cy="66.5" r="3.5" fill="#F4F4F4"/>
<circle cx="211.5" cy="87.5" r="3.5" fill="#F4F4F4"/>
<circle cx="211.5" cy="108.5" r="3.5" fill="#F4F4F4"/>
<circle cx="211.5" cy="129.5" r="3.5" fill="#F4F4F4"/>
<circle cx="211.5" cy="150.5" r="3.5" fill="#F4F4F4"/>
<circle cx="232.5" cy="3.5" r="3.5" fill="#F4F4F4"/>
<circle cx="232.5" cy="24.5" r="3.5" fill="#F4F4F4"/>
<circle cx="232.5" cy="45.5" r="3.5" fill="#F4F4F4"/>
<circle cx="232.5" cy="66.5" r="3.5" fill="#F4F4F4"/>
<circle cx="232.5" cy="87.5" r="3.5" fill="#F4F4F4"/>
<circle cx="232.5" cy="108.5" r="3.5" fill="#F4F4F4"/>
<circle cx="232.5" cy="129.5" r="3.5" fill="#F4F4F4"/>
<circle cx="232.5" cy="150.5" r="3.5" fill="#F4F4F4"/>
<circle cx="253.5" cy="3.5" r="3.5" fill="#F4F4F4"/>
<circle cx="253.5" cy="24.5" r="3.5" fill="#F4F4F4"/>
<circle cx="253.5" cy="45.5" r="3.5" fill="#F4F4F4"/>
<circle cx="253.5" cy="66.5" r="3.5" fill="#F4F4F4"/>
<circle cx="253.5" cy="87.5" r="3.5" fill="#F4F4F4"/>
<circle cx="253.5" cy="108.5" r="3.5" fill="#F4F4F4"/>
<circle cx="253.5" cy="129.5" r="3.5" fill="#F4F4F4"/>
<circle cx="253.5" cy="150.5" r="3.5" fill="#F4F4F4"/>
<circle cx="274.5" cy="3.5" r="3.5" fill="#F4F4F4"/>
<circle cx="274.5" cy="24.5" r="3.5" fill="#F4F4F4"/>
<circle cx="274.5" cy="45.5" r="3.5" fill="#F4F4F4"/>
<circle cx="274.5" cy="66.5" r="3.5" fill="#F4F4F4"/>
<circle cx="274.5" cy="87.5" r="3.5" fill="#F4F4F4"/>
<circle cx="274.5" cy="108.5" r="3.5" fill="#F4F4F4"/>
<circle cx="274.5" cy="129.5" r="3.5" fill="#F4F4F4"/>
<circle cx="274.5" cy="150.5" r="3.5" fill="#F4F4F4"/>
<circle cx="295.5" cy="3.5" r="3.5" fill="#F4F4F4"/>
<circle cx="295.5" cy="24.5" r="3.5" fill="#F4F4F4"/>
<circle cx="295.5" cy="45.5" r="3.5" fill="#F4F4F4"/>
<circle cx="295.5" cy="66.5" r="3.5" fill="#F4F4F4"/>
<circle cx="295.5" cy="87.5" r="3.5" fill="#F4F4F4"/>
<circle cx="295.5" cy="108.5" r="3.5" fill="#F4F4F4"/>
<circle cx="295.5" cy="129.5" r="3.5" fill="#F4F4F4"/>
<circle cx="295.5" cy="150.5" r="3.5" fill="#F4F4F4"/>
<circle cx="316.5" cy="3.5" r="3.5" fill="#F4F4F4"/>
<circle cx="316.5" cy="24.5" r="3.5" fill="#F4F4F4"/>
<circle cx="316.5" cy="45.5" r="3.5" fill="#F4F4F4"/>
<circle cx="316.5" cy="66.5" r="3.5" fill="#F4F4F4"/>
<circle cx="316.5" cy="87.5" r="3.5" fill="#F4F4F4"/>
<circle cx="316.5" cy="108.5" r="3.5" fill="#F4F4F4"/>
<circle cx="316.5" cy="129.5" r="3.5" fill="#F4F4F4"/>
<circle cx="316.5" cy="150.5" r="3.5" fill="#F4F4F4"/>
<circle cx="337.5" cy="3.5" r="3.5" fill="#F4F4F4"/>
<circle cx="337.5" cy="24.5" r="3.5" fill="#F4F4F4"/>
<circle cx="337.5" cy="45.5" r="3.5" fill="#F4F4F4"/>
<circle cx="337.5" cy="66.5" r="3.5" fill="#F4F4F4"/>
<circle cx="337.5" cy="87.5" r="3.5" fill="#F4F4F4"/>
<circle cx="337.5" cy="108.5" r="3.5" fill="#F4F4F4"/>
<circle cx="337.5" cy="129.5" r="3.5" fill="#F4F4F4"/>
<circle cx="337.5" cy="150.5" r="3.5" fill="#F4F4F4"/>
<circle cx="358.5" cy="3.5" r="3.5" fill="#F4F4F4"/>
<circle cx="358.5" cy="24.5" r="3.5" fill="#F4F4F4"/>
<circle cx="358.5" cy="45.5" r="3.5" fill="#F4F4F4"/>
<circle cx="358.5" cy="66.5" r="3.5" fill="#F4F4F4"/>
<circle cx="358.5" cy="87.5" r="3.5" fill="#F4F4F4"/>
<circle cx="358.5" cy="108.5" r="3.5" fill="#F4F4F4"/>
<circle cx="358.5" cy="129.5" r="3.5" fill="#F4F4F4"/>
<circle cx="358.5" cy="150.5" r="3.5" fill="#F4F4F4"/>
<circle cx="379.5" cy="3.5" r="3.5" fill="#F4F4F4"/>
<circle cx="379.5" cy="24.5" r="3.5" fill="#F4F4F4"/>
<circle cx="379.5" cy="45.5" r="3.5" fill="#F4F4F4"/>
<circle cx="379.5" cy="66.5" r="3.5" fill="#F4F4F4"/>
<circle cx="379.5" cy="87.5" r="3.5" fill="#F4F4F4"/>
<circle cx="379.5" cy="108.5" r="3.5" fill="#F4F4F4"/>
<circle cx="379.5" cy="129.5" r="3.5" fill="#F4F4F4"/>
<circle cx="379.5" cy="150.5" r="3.5" fill="#F4F4F4"/>
<circle cx="400.5" cy="3.5" r="3.5" fill="#F4F4F4"/>
<circle cx="400.5" cy="24.5" r="3.5" fill="#F4F4F4"/>
<circle cx="400.5" cy="45.5" r="3.5" fill="#F4F4F4"/>
<circle cx="400.5" cy="66.5" r="3.5" fill="#F4F4F4"/>
<circle cx="400.5" cy="87.5" r="3.5" fill="#F4F4F4"/>
<circle cx="400.5" cy="108.5" r="3.5" fill="#F4F4F4"/>
<circle cx="400.5" cy="129.5" r="3.5" fill="#F4F4F4"/>
<circle cx="400.5" cy="150.5" r="3.5" fill="#F4F4F4"/>
<circle cx="3.5" cy="3.5" r="3.5" fill="#F4F4F4"/>
<circle cx="3.5" cy="24.5" r="3.5" fill="#F4F4F4"/>
<circle cx="3.5" cy="45.5" r="3.5" fill="#F4F4F4"/>
<circle cx="3.5" cy="66.5" r="3.5" fill="#F4F4F4"/>
<circle cx="3.5" cy="87.5" r="3.5" fill="#F4F4F4"/>
<circle cx="3.5" cy="108.5" r="3.5" fill="#F4F4F4"/>
<circle cx="3.5" cy="129.5" r="3.5" fill="#F4F4F4"/>
<circle cx="3.5" cy="150.5" r="3.5" fill="#F4F4F4"/>
<circle cx="24.5" cy="3.5" r="3.5" fill="#F4F4F4"/>
<circle cx="24.5" cy="24.5" r="3.5" fill="#F4F4F4"/>
<circle cx="24.5" cy="45.5" r="3.5" fill="#F4F4F4"/>
<circle cx="24.5" cy="66.5" r="3.5" fill="#F4F4F4"/>
<circle cx="24.5" cy="87.5" r="3.5" fill="#F4F4F4"/>
<circle cx="24.5" cy="108.5" r="3.5" fill="#F4F4F4"/>
<circle cx="24.5" cy="129.5" r="3.5" fill="#F4F4F4"/>
<circle cx="24.5" cy="150.5" r="3.5" fill="#F4F4F4"/>
<circle cx="45.5" cy="3.5" r="3.5" fill="#F4F4F4"/>
<circle cx="45.5" cy="24.5" r="3.5" fill="#F4F4F4"/>
<circle cx="45.5" cy="45.5" r="3.5" fill="#F4F4F4"/>
<circle cx="45.5" cy="66.5" r="3.5" fill="#F4F4F4"/>
<circle cx="45.5" cy="87.5" r="3.5" fill="#F4F4F4"/>
<circle cx="45.5" cy="108.5" r="3.5" fill="#F4F4F4"/>
<circle cx="45.5" cy="129.5" r="3.5" fill="#F4F4F4"/>
<circle cx="45.5" cy="150.5" r="3.5" fill="#F4F4F4"/>
<circle cx="66.5" cy="3.5" r="3.5" fill="#F4F4F4"/>
<circle cx="66.5" cy="24.5" r="3.5" fill="#F4F4F4"/>
<circle cx="66.5" cy="45.5" r="3.5" fill="#F4F4F4"/>
<circle cx="66.5" cy="66.5" r="3.5" fill="#F4F4F4"/>
<circle cx="66.5" cy="87.5" r="3.5" fill="#F4F4F4"/>
<circle cx="66.5" cy="108.5" r="3.5" fill="#F4F4F4"/>
<circle cx="66.5" cy="129.5" r="3.5" fill="#F4F4F4"/>
<circle cx="66.5" cy="150.5" r="3.5" fill="#F4F4F4"/>
<circle cx="87.5" cy="3.5" r="3.5" fill="#F4F4F4"/>
<circle cx="87.5" cy="24.5" r="3.5" fill="#F4F4F4"/>
<circle cx="87.5" cy="45.5" r="3.5" fill="#F4F4F4"/>
<circle cx="87.5" cy="66.5" r="3.5" fill="#F4F4F4"/>
<circle cx="87.5" cy="87.5" r="3.5" fill="#F4F4F4"/>
<circle cx="87.5" cy="108.5" r="3.5" fill="#F4F4F4"/>
<circle cx="87.5" cy="129.5" r="3.5" fill="#F4F4F4"/>
<circle cx="87.5" cy="150.5" r="3.5" fill="#F4F4F4"/>
<circle cx="108.5" cy="3.5" r="3.5" fill="#F4F4F4"/>
<circle cx="108.5" cy="24.5" r="3.5" fill="#F4F4F4"/>
<circle cx="108.5" cy="45.5" r="3.5" fill="#F4F4F4"/>
<circle cx="108.5" cy="66.5" r="3.5" fill="#F4F4F4"/>
<circle cx="108.5" cy="87.5" r="3.5" fill="#F4F4F4"/>
<circle cx="108.5" cy="108.5" r="3.5" fill="#F4F4F4"/>
<circle cx="108.5" cy="129.5" r="3.5" fill="#F4F4F4"/>
<circle cx="108.5" cy="150.5" r="3.5" fill="#F4F4F4"/>
<circle cx="129.5" cy="3.5" r="3.5" fill="#F4F4F4"/>
<circle cx="129.5" cy="24.5" r="3.5" fill="#F4F4F4"/>
<circle cx="129.5" cy="45.5" r="3.5" fill="#F4F4F4"/>
<circle cx="129.5" cy="66.5" r="3.5" fill="#F4F4F4"/>
<circle cx="129.5" cy="87.5" r="3.5" fill="#F4F4F4"/>
<circle cx="129.5" cy="108.5" r="3.5" fill="#F4F4F4"/>
<circle cx="129.5" cy="129.5" r="3.5" fill="#F4F4F4"/>
<circle cx="129.5" cy="150.5" r="3.5" fill="#F4F4F4"/>
<circle cx="150.5" cy="3.5" r="3.5" fill="#F4F4F4"/>
<circle cx="150.5" cy="24.5" r="3.5" fill="#F4F4F4"/>
<circle cx="150.5" cy="45.5" r="3.5" fill="#F4F4F4"/>
<circle cx="150.5" cy="66.5" r="3.5" fill="#F4F4F4"/>
<circle cx="150.5" cy="87.5" r="3.5" fill="#F4F4F4"/>
<circle cx="150.5" cy="108.5" r="3.5" fill="#F4F4F4"/>
<circle cx="150.5" cy="129.5" r="3.5" fill="#F4F4F4"/>
<circle cx="150.5" cy="150.5" r="3.5" fill="#F4F4F4"/>
<circle cx="171.5" cy="3.5" r="3.5" fill="#F4F4F4"/>
<circle cx="171.5" cy="24.5" r="3.5" fill="#F4F4F4"/>
<circle cx="171.5" cy="45.5" r="3.5" fill="#F4F4F4"/>
<circle cx="171.5" cy="66.5" r="3.5" fill="#F4F4F4"/>
<circle cx="171.5" cy="87.5" r="3.5" fill="#F4F4F4"/>
<circle cx="171.5" cy="108.5" r="3.5" fill="#F4F4F4"/>
<circle cx="171.5" cy="129.5" r="3.5" fill="#F4F4F4"/>
<circle cx="171.5" cy="150.5" r="3.5" fill="#F4F4F4"/>
<circle cx="192.5" cy="3.5" r="3.5" fill="#F4F4F4"/>
<circle cx="192.5" cy="24.5" r="3.5" fill="#F4F4F4"/>
<circle cx="192.5" cy="45.5" r="3.5" fill="#F4F4F4"/>
<circle cx="192.5" cy="66.5" r="3.5" fill="#F4F4F4"/>
<circle cx="192.5" cy="87.5" r="3.5" fill="#F4F4F4"/>
<circle cx="192.5" cy="108.5" r="3.5" fill="#F4F4F4"/>
<circle cx="192.5" cy="129.5" r="3.5" fill="#F4F4F4"/>
<circle cx="192.5" cy="150.5" r="3.5" fill="#F4F4F4"/>
</svg>
