<?xml version="1.0" standalone="no"?>
<!DOCTYPE svg PUBLIC "-//W3C//DTD SVG 20010904//EN"
 "http://www.w3.org/TR/2001/REC-SVG-20010904/DTD/svg10.dtd">
<svg version="1.0" xmlns="http://www.w3.org/2000/svg"
 width="512.000000pt" height="512.000000pt" viewBox="0 0 512.000000 512.000000"
 preserveAspectRatio="xMidYMid meet">

<g transform="translate(0.000000,512.000000) scale(0.100000,-0.100000)"
 >
<path d="M1425 5114 c-545 -47 -1012 -359 -1254 -837 -91 -180 -141 -353 -161
-556 -12 -125 -12 -2197 0 -2322 20 -203 70 -376 161 -556 238 -470 697 -781
1228 -833 125 -12 2197 -12 2322 0 205 20 366 67 555 160 468 234 782 697 834
1229 12 125 12 2197 0 2322 -49 508 -333 947 -775 1198 -98 56 -253 120 -355
146 -193 50 -139 48 -1365 50 -632 1 -1168 1 -1190 -1z m2256 -644 c10 -6 29
-30 41 -53 48 -91 24 -218 -131 -688 -215 -654 -264 -886 -327 -1549 -22 -235
-16 -497 14 -590 42 -128 112 -212 302 -360 123 -96 195 -164 221 -211 8 -13
21 -52 30 -87 20 -79 13 -86 -80 -86 -125 2 -287 73 -349 154 -18 24 -51 52
-73 63 -50 24 -106 91 -202 237 -143 219 -208 364 -251 562 l-17 76 -47 -47
c-31 -31 -52 -63 -61 -92 -7 -24 -24 -60 -38 -81 -13 -20 -40 -78 -60 -130
-19 -51 -44 -103 -55 -115 l-20 -22 27 -24 28 -24 -31 -11 c-18 -6 -37 -22
-44 -37 -9 -21 -17 -25 -36 -20 -21 5 -23 3 -20 -27 2 -26 7 -32 22 -30 10 2
16 0 14 -5 -22 -47 -34 -62 -54 -72 -15 -6 -34 -34 -52 -74 -17 -36 -60 -99
-102 -148 l-73 -84 -51 0 -51 0 -16 -78 c-18 -89 -35 -112 -112 -151 -60 -30
-102 -33 -155 -10 -20 9 -48 16 -61 15 -38 -2 -158 97 -270 222 -189 212 -207
242 -236 382 -62 300 -18 637 110 857 86 146 175 236 342 349 241 161 479 250
669 251 58 0 80 -5 120 -26 27 -14 58 -26 70 -26 12 0 29 -11 38 -25 9 -14 23
-25 31 -25 25 0 88 91 172 250 92 173 143 294 143 337 0 72 84 436 189 828 17
61 30 126 31 145 1 62 34 118 82 140 24 11 51 20 61 20 35 0 183 63 226 96 47
36 61 40 92 24z m-971 -2860 c0 -5 -5 -10 -11 -10 -5 0 -7 5 -4 10 3 6 8 10
11 10 2 0 4 -4 4 -10z m-480 -749 c0 -10 -28 -41 -36 -41 -2 0 -4 11 -4 25 0
18 5 25 20 25 11 0 20 -4 20 -9z"/>
<path d="M2445 2590 c-81 -7 -260 -57 -326 -90 -20 -11 -43 -30 -52 -43 -9
-13 -70 -73 -137 -133 -196 -174 -305 -329 -346 -494 -37 -145 3 -557 65 -678
40 -79 68 -71 196 50 144 136 267 278 347 401 44 67 79 109 92 113 15 3 22 14
24 31 3 35 29 74 53 80 26 7 75 90 168 285 94 196 131 287 131 325 0 15 11 52
25 81 38 83 39 82 -67 81 -51 -1 -129 -5 -173 -9z"/>
</g>
</svg>
