<?xml version="1.0" standalone="no"?>
<!DOCTYPE svg PUBLIC "-//W3C//DTD SVG 20010904//EN"
 "http://www.w3.org/TR/2001/REC-SVG-20010904/DTD/svg10.dtd">
<svg version="1.0" xmlns="http://www.w3.org/2000/svg"
 width="512.000000pt" height="512.000000pt" viewBox="0 0 512.000000 512.000000"
 preserveAspectRatio="xMidYMid meet">

<g fill="#dddddd" transform="translate(0.000000,512.000000) scale(0.100000,-0.100000)"
>
<path fill="#" d="M1425 5114 c-545 -47 -1012 -359 -1254 -837 -91 -180 -141 -353 -161
-556 -12 -125 -12 -2197 0 -2322 20 -203 70 -376 161 -556 238 -470 697 -781
1228 -833 125 -12 2197 -12 2322 0 205 20 366 67 555 160 468 234 782 697 834
1229 12 125 12 2197 0 2322 -49 508 -333 947 -775 1198 -98 56 -253 120 -355
146 -193 50 -139 48 -1365 50 -632 1 -1168 1 -1190 -1z m1304 -667 c151 -34
254 -72 388 -140 329 -167 628 -483 798 -839 327 -690 283 -1507 -113 -2099
-239 -356 -577 -591 -987 -685 -177 -40 -271 -44 -1061 -44 -842 0 -774 -6
-774 64 0 54 6 56 217 56 l193 0 0 1800 0 1800 -199 0 c-219 0 -211 -2 -211
64 0 18 6 38 12 44 10 10 185 12 813 10 l800 -3 124 -28z"/>
<path fill="#" d="M2010 2560 l0 -1792 308 4 c300 4 309 5 397 32 120 36 222 95 316
184 87 81 134 147 195 272 146 299 203 662 204 1291 0 411 -23 697 -76 933
-105 472 -305 725 -659 832 -87 27 -98 27 -387 32 l-298 4 0 -1792z"/>
</g>
</svg>
