<svg width="590" height="200" viewBox="0 0 590 200" fill="none" xmlns="http://www.w3.org/2000/svg">
<path d="M10 199.5L1 155H36.5V144.5H13.5V142H40.5V139.5H72V146.5H66V155H96.5V150H123V133.5H105V129H123V120H118V112.5H123V100H107V95.5H123V64.5H126.5V112.5H133V120H126.5V137.5H128.5H147V102H182V132H206V137.5H241V78.5H248V60.5H241V54.5H244V44H248V0.5H251.5V44H258V54.5H266V49H263.5V35H277V49H275V54.5H282.5V60.5H267.5L272.5 78.5H279V64.5H286L293 71V78.5H298V102H310V112.5H326.5V137.5H366.5V150.5H375.5V155H407.5V146H410V143H400.5V130H410V127.5H421.5V132H426.5V127.5H440V132H443V130H447.5V132H454V134H487.5V137.5H454V140H451V146H454V155H502V148H494.5V140H525.5V143H552.5V146H532L528 148L532 155H588.5L562.5 199.5H10Z" fill="black" stroke="black"/>
</svg>
