<svg width="560" height="167" viewBox="0 0 560 167" fill="none" xmlns="http://www.w3.org/2000/svg">
<path d="M17 133L1.5 105L103.5 104.5V77.5H107V68.5H112.5V64H109V52H130V57H137V61H143V68.5H170V62.8571L160.5 42.5H150V66H147.5V40H144.5V32.5H147.5V27H150V1H153V27H159V29H156.5V32.5H162.5V41L171.591 61H176.5V42.5H200.5V64H206.5V77.5H253V104.5H511V115H468.5V122H558.5C558.5 122 559.098 127.839 558.5 131.5C557.723 136.26 556.291 138.756 554 143C551.217 148.155 549.348 151.075 545 155C541.22 158.412 538.61 159.837 534 162C529.36 164.177 521.5 166 521.5 166H25.5V153L17 133Z" fill="black" stroke="black"/>
</svg>
