<svg width="410" height="110" viewBox="0 0 410 110" fill="none" xmlns="http://www.w3.org/2000/svg">
<path d="M15 86.5H1V83L8.5 76.5H38V69.5H26V67.5H38V64.5H26V62.5H38C38 62.5 41 59.5 44.5 58.5C48 57.5 57 58 58 58.5C59 59 60.5 60.5 60.5 60.5V76.5H105V58.5H88.5V56.5H91V54H119V52H121.5V36H123V34H125.5C125.5 34 125.347 32.7659 125.5 32C126.266 28.1706 134.553 28.2114 135.5 32C135.737 32.9472 135.5 34.5 135.5 34.5H143.5V38H147.5L163.5 36L164 38L147.5 40V44H150L163 42L163.5 44L150 46V54H183.5L190.5 24H205V21.5H215L223.5 54H231L248 0.5H265L269 16H290L296.5 72.5L327 70.5V51C327 51 329.227 48.8183 331 48C334.546 46.3635 337.507 46.2535 341 48C343.47 49.2349 346 53 346 53V55L363 51.5L363.5 53.5L346 57.5V68.5L408.5 63L371.5 109.5H15V86.5Z" fill="black" stroke="black"/>
</svg>
