<svg width="414" height="84" viewBox="0 0 414 84" fill="none" xmlns="http://www.w3.org/2000/svg">
<path d="M412.5 83.5H5.5H4.5V82H2.5V78H12.5L16.5 76V71.5H1V68H16.5V63.5L12.5 61.5H4.5V57.5H20.5V27H52.5L62.5 63.5H82L86 61.5V53.5H104.5V59L194.5 53.5L217.5 19.5H224.5V0.5H228V19.5H233.5C233.5 19.5 234.913 16.8493 236.5 16C238.566 14.8946 240.434 14.8946 242.5 16C244.087 16.8493 245.5 19.5 245.5 19.5H249L254 53.5H298.5C298.5 53.5 300.536 50.5117 302.5 49.5C305.451 47.9798 308.136 47.8213 311 49.5C312.791 50.5497 314.5 53.5 314.5 53.5H322.5C322.5 53.5 324.209 50.5497 326 49.5C328.864 47.8213 331.48 48.1218 334.5 49.5C336.639 50.4762 339 53.5 339 53.5H345C345 53.5 346.734 50.5911 348.5 49.5C351.656 47.5499 354.591 48.0362 358 49.5C360.298 50.4866 363 53.5 363 53.5H383.5L392 56.5L401.5 63L409 72.5L412.5 83.5Z" fill="black" stroke="black"/>
</svg>
