<svg t="1667815733198" class="icon" viewBox="0 0 1024 1024" version="1.1" xmlns="http://www.w3.org/2000/svg" p-id="3939" width="200" height="200"><path d="M947.2 989.866667h-870.4A42.666667 42.666667 0 0 1 34.133333 947.2v-870.4A42.666667 42.666667 0 0 1 76.8 34.133333h870.4A42.666667 42.666667 0 0 1 989.866667 76.8v870.4a42.666667 42.666667 0 0 1-42.666667 42.666667zM85.333333 938.666667h853.333334V85.333333H85.333333z" fill="#D3F36C" p-id="3940"></path><path d="M197.12 222.72a25.088 25.088 0 0 1-18.090667-7.509333L48.981333 85.333333A25.6 25.6 0 0 1 85.333333 48.981333l130.048 130.048a25.429333 25.429333 0 0 1 0 36.181334 24.746667 24.746667 0 0 1-18.261333 7.509333zM67.072 982.528a26.112 26.112 0 0 1-18.090667-7.509333 25.770667 25.770667 0 0 1 0-36.181334l130.048-130.048a25.6 25.6 0 0 1 36.181334 36.181334L85.333333 975.018667a25.429333 25.429333 0 0 1-18.261333 7.509333zM956.928 982.528a25.429333 25.429333 0 0 1-18.261333-7.509333l-130.048-130.048a25.6 25.6 0 0 1 36.181333-36.181334L975.018667 938.666667a25.770667 25.770667 0 0 1 0 36.181333 26.112 26.112 0 0 1-18.090667 7.68zM826.88 222.72a24.746667 24.746667 0 0 1-18.090667-7.509333 25.429333 25.429333 0 0 1 0-36.181334L938.666667 48.981333A25.6 25.6 0 0 1 975.018667 85.333333l-130.048 130.048a25.088 25.088 0 0 1-18.090667 7.338667zM512 853.333333a341.333333 341.333333 0 1 1 341.333333-341.333333 341.333333 341.333333 0 0 1-341.333333 341.333333z m0-629.76A290.133333 290.133333 0 1 0 802.133333 512a290.133333 290.133333 0 0 0-290.133333-289.28z" fill="#D3F36C" p-id="3941"></path><path d="M574.293333 716.8a42.666667 42.666667 0 0 1-11.264-1.536 43.861333 43.861333 0 0 1-26.282666-20.138667l-20.48-35.498666h-8.533334l-20.650666 35.498666A43.178667 43.178667 0 0 1 460.8 714.410667a43.690667 43.690667 0 0 1-32.768-4.266667l-45.738667-26.453333a43.349333 43.349333 0 0 1-15.872-59.050667l20.48-35.498667-4.266666-7.509333H341.333333a43.349333 43.349333 0 0 1-43.178666-43.178667v-52.906666A43.349333 43.349333 0 0 1 341.333333 442.368h41.130667l4.266667-7.509333-20.48-35.498667a43.349333 43.349333 0 0 1 15.872-59.050667l45.738666-26.453333a43.178667 43.178667 0 0 1 58.88 15.872l20.650667 35.498667h8.533333l20.650667-35.498667a43.178667 43.178667 0 0 1 58.88-15.872l45.738667 26.453333a43.349333 43.349333 0 0 1 15.872 59.050667l-20.48 35.498667 4.266666 7.509333H682.666667a43.349333 43.349333 0 0 1 43.178666 43.178667v52.906666A43.349333 43.349333 0 0 1 682.666667 581.632h-41.472l-4.266667 7.509333 20.48 35.498667a43.349333 43.349333 0 0 1-15.872 59.050667l-45.738667 26.453333a43.690667 43.690667 0 0 1-21.504 6.656z m-81.408-109.226667h38.229334a25.429333 25.429333 0 0 1 22.186666 12.8l23.893334 41.301334 31.914666-18.432-23.893333-41.301334a25.429333 25.429333 0 0 1 0-25.6l19.114667-33.109333a25.770667 25.770667 0 0 1 22.186666-12.8h47.786667v-36.864h-47.786667a25.770667 25.770667 0 0 1-22.186666-12.8l-19.114667-33.109333a25.429333 25.429333 0 0 1 0-25.6l23.893333-41.301334-31.914666-18.432-23.893334 41.301334a25.429333 25.429333 0 0 1-22.186666 12.8h-38.229334a25.429333 25.429333 0 0 1-22.186666-12.8l-23.893334-41.301334-31.914666 18.432 23.893333 41.301334a25.429333 25.429333 0 0 1 0 25.6l-19.114667 33.109333a25.770667 25.770667 0 0 1-22.186666 12.8h-47.786667v36.864h47.786667a25.770667 25.770667 0 0 1 22.186666 12.8l19.114667 33.109333a25.429333 25.429333 0 0 1 0 25.6l-23.893333 41.301334 31.914666 18.432 23.893334-41.301334a25.429333 25.429333 0 0 1 22.186666-12.8z m119.466667 42.666667z" fill="#D3F36C" p-id="3942"></path></svg>