<?xml version="1.0" encoding="UTF-8"?>
<svg width="120px" height="122px" viewBox="0 0 120 122" version="1.1" xmlns="http://www.w3.org/2000/svg" xmlns:xlink="http://www.w3.org/1999/xlink">
    <title>形状结合备份@1x</title>
    <g id="LOGO" stroke="none" stroke-width="1" fill="none" fill-rule="evenodd">
        <g id="Shape" transform="translate(-197.000000, -195.000000)" fill="#2700FF">
            <path d="M314.600766,231.632386 L314.6,317 L289.16,317 L289.160845,275.583746 C280.034656,282.842744 269.285543,286.624814 257,286.624814 C244.714457,286.624814 233.965344,282.842744 224.839155,275.583746 L224.84,317 L199.4,317 L199.400163,231.632949 C203.116271,233.886523 207.468075,235.18254 212.12,235.18254 C216.771894,235.18254 221.123671,233.88654 224.839762,231.632994 L224.839297,232.494465 C232.818841,252.651324 243.297284,261.450211 257,261.450211 C270.702716,261.450211 281.181159,252.651324 289.160703,232.494465 L289.160238,231.632994 C292.876329,233.88654 297.228106,235.18254 301.88,235.18254 C306.532313,235.18254 310.884454,233.886306 314.600766,231.632386 Z M212.12,225.5 C220.470545,225.5 227.24,218.672342 227.24,210.25 C227.24,201.827658 220.470545,195 212.12,195 C203.769455,195 197,201.827658 197,210.25 C197,218.672342 203.769455,225.5 212.12,225.5 Z M301.88,225.5 C310.230545,225.5 317,218.672342 317,210.25 C317,201.827658 310.230545,195 301.88,195 C293.529455,195 286.76,201.827658 286.76,210.25 C286.76,218.672342 293.529455,225.5 301.88,225.5 Z" id="形状结合备份"></path>
        </g>
    </g>
</svg>