<?xml version="1.0" encoding="UTF-8"?>
<svg width="780px" height="171px" viewBox="0 0 780 171" version="1.1" xmlns="http://www.w3.org/2000/svg" xmlns:xlink="http://www.w3.org/1999/xlink">
    <title>编组</title>
    <g id="LOGO方案" stroke="none" stroke-width="1" fill="none" fill-rule="evenodd">
        <g id="LOGO-B" transform="translate(-212.000000, -167.000000)">
            <g id="编组" transform="translate(212.000000, 167.007816)">
                <path d="M171.41819,7.99218407 C178.570346,12.4367059 186.989775,15 196.001593,15 C204.769789,15 212.977194,12.5734222 220.002187,8.34849903 L220.001593,170 L171.418259,170 L171.418848,91.5080134 C153.990582,105.264863 133.463107,112.432426 110.001593,112.432426 C86.5400782,112.432426 66.0126039,105.264863 48.5843376,91.5080134 L48.5849261,170 L0.00159281658,170 L-3.79520183e-13,8.34789866 C7.02521425,12.5731923 15.2329811,15 24.0015928,15 C33.0134101,15 41.43284,12.4367059 48.5849958,7.99218407 L48.5845474,9.84607755 C63.8231401,48.0459878 83.8337637,64.7210857 110.001593,64.7210857 C136.169422,64.7210857 156.180045,48.0459878 171.418638,9.84607755 Z" id="形状结合" fill="#2700FF"></path>
                <path d="M490.688116,29.9448242 C517.980469,29.9448242 535.001593,49.0702912 535.001593,75 L535.001593,170 L505.001593,170 L505.001593,75 C505.001593,64.9102606 500.582495,59.9448242 490.688116,59.9448242 C480.413514,59.9448242 475.13444,65.3492596 475.004068,74.6451249 L475.001593,75 L475.001593,170 L445.001593,170 L445.001593,75 C445.001593,64.9102606 440.582495,59.9448242 430.688116,59.9448242 C420.283455,59.9448242 415.001593,65.4869467 415.001593,75 L415.001593,170 L385.001593,170 L385.001593,75 C385.001593,49.232564 403.383573,29.9448242 430.688116,29.9448242 C442.835645,29.9448242 452.948399,33.7336618 460.431213,40.2249242 C468.205976,33.7451749 478.56802,29.9448242 490.688116,29.9448242 Z M360.00191,40 L360.00191,70 L315.00191,70 L315.001593,140 L360.001593,140 L360.001593,170 L240.001593,170 L240.001593,140 L285.001593,140 L285.00191,55 C285.00191,46.8205929 291.548697,40.1702698 299.688082,40.0032178 L300.00191,40 L360.00191,40 Z M300.00191,0 C308.286181,0 315.00191,6.71572875 315.00191,15 L315.00191,15.1 C315.00191,23.3842712 308.286181,30.1 300.00191,30.1 C291.717639,30.1 285.00191,23.3842712 285.00191,15.1 L285.00191,15 C285.00191,6.71572875 291.717639,0 300.00191,0 Z M620.001593,40 C628.285864,40 635.001593,46.7157288 635.001593,55 L635.001593,140 L680.00191,140 L680.00191,170 L560.00191,170 L560.00191,140 L605.001593,140 L605.001593,70 L560.001593,70 L560.001593,40 L620.001593,40 Z M620.001593,0 C611.717322,0 605.001593,6.71572875 605.001593,15 L605.001593,15.1 C605.001593,23.3842712 611.717322,30.1 620.001593,30.1 C628.285864,30.1 635.001593,23.3842712 635.001593,15.1 L635.001593,15 C635.001593,6.71572875 628.285864,0 620.001593,0 Z M735.001593,40 L735.001064,55.8579158 C747.716448,45.992832 763.423474,40 780.001593,40 L780.001593,70 C756.529572,70 735.00191,91.5278169 735.00191,115 L735.001593,170 L705.001593,170 L705.001593,40 L735.001593,40 Z" id="形状结合" fill="#151F34" fill-rule="nonzero"></path>
            </g>
        </g>
    </g>
</svg>