<?xml version="1.0" encoding="utf-8"?>
<svg version="1.1" xmlns:xlink="http://www.w3.org/1999/xlink" width="20px" height="20px" xmlns="http://www.w3.org/2000/svg">
  <g transform="matrix(1 0 0 1 -908 -369 )">
    <path d="M 4.98046875 1.34114583333333  C 6.51258680555556 0.447048611111109  8.18576388888889 0  10 0  C 11.8142361111111 0  13.4874131944444 0.447048611111109  15.01953125 1.34114583333333  C 16.5516493055556 2.23524305555555  17.7647569444444 3.44835069444444  18.6588541666667 4.98046875  C 19.5529513888889 6.51258680555555  20 8.18576388888889  20 10  C 20 11.8142361111111  19.5529513888889 13.4874131944444  18.6588541666667 15.01953125  C 17.7647569444444 16.5516493055556  16.5516493055556 17.7647569444444  15.01953125 18.6588541666667  C 13.4874131944444 19.5529513888889  11.8142361111111 20  10 20  C 8.18576388888889 20  6.51258680555556 19.5529513888889  4.98046875 18.6588541666667  C 3.44835069444444 17.7647569444444  2.23524305555556 16.5516493055556  1.34114583333333 15.01953125  C 0.447048611111111 13.4874131944444  0 11.8142361111111  0 10  C 0 8.18576388888889  0.447048611111111 6.51258680555555  1.34114583333333 4.98046875  C 2.23524305555556 3.44835069444444  3.44835069444444 2.23524305555555  4.98046875 1.34114583333333  Z M 7.91666666666667 14.8828125  L 15 10.7161458333333  C 15.2777777777778 10.5598958333333  15.4166666666667 10.3211805555556  15.4166666666667 10  C 15.4166666666667 9.67881944444444  15.2777777777778 9.44010416666667  15 9.28385416666667  L 7.91666666666667 5.1171875  C 7.64756944444445 4.95225694444444  7.36979166666667 4.94791666666667  7.08333333333333 5.10416666666667  C 6.80555555555556 5.26909722222222  6.66666666666667 5.51215277777778  6.66666666666667 5.83333333333333  L 6.66666666666667 14.1666666666667  C 6.66666666666667 14.4878472222222  6.80555555555556 14.7309027777778  7.08333333333333 14.8958333333333  C 7.22222222222222 14.9652777777778  7.36111111111111 15  7.5 15  C 7.64756944444445 15  7.78645833333333 14.9609375  7.91666666666667 14.8828125  Z " fill-rule="nonzero" fill="#ffffff" stroke="none" transform="matrix(1 0 0 1 908 369 )" />
  </g>
</svg>