<svg width="1527" height="289" viewBox="0 0 1527 289" fill="none" xmlns="http://www.w3.org/2000/svg">
    <g filter="url(#filter0_d_1195_2108)">
        <path
            d="M1431.17 253.028L1325.88 222.496C1319.53 220.656 1314.17 216.333 1310.97 210.478C1307.78 204.622 1307.01 197.715 1308.83 191.274L1339.13 84.4278C1340.96 77.9875 1345.23 72.542 1351.01 69.2893C1356.79 66.0366 1363.6 65.2431 1369.95 67.0835L1475.24 97.6148C1481.58 99.4551 1486.94 103.778 1490.14 109.634C1493.34 115.489 1494.11 122.397 1492.28 128.837L1461.98 235.683C1460.16 242.124 1455.88 247.569 1450.1 250.822C1444.33 254.075 1437.51 254.868 1431.17 253.028ZM1377.22 180.502L1412.98 190.87L1413.69 215.639L1438.37 222.794L1431.54 110.408L1404.69 102.622L1339.17 194.026L1363.7 201.141L1377.22 180.5L1377.22 180.502ZM1412.79 171.719L1387.06 164.26L1407.8 132.855C1409.55 130.238 1410.98 127.424 1412.08 124.471L1412.64 124.634C1412 127.815 1411.7 131.055 1411.72 134.3L1412.79 171.717L1412.79 171.719Z"
            fill="url(#paint0_linear_1195_2108)" />
    </g>
    <g filter="url(#filter1_d_1195_2108)">
        <path
            d="M95.1213 165.725L23.8073 146.394C21.0736 145.656 18.5113 144.377 16.2668 142.633C14.0224 140.888 12.14 138.71 10.7273 136.225C9.31456 133.74 8.39927 130.996 8.03378 128.15C7.6683 125.303 7.85978 122.411 8.59729 119.638L27.781 47.2618C28.5138 44.4875 29.7785 41.886 31.5027 39.6062C33.2268 37.3264 35.3766 35.413 37.8291 33.9756C40.2815 32.5381 42.9884 31.6048 45.7949 31.229C48.6015 30.8532 51.4525 31.0423 54.185 31.7855L125.499 51.1159C128.233 51.8544 130.795 53.1326 133.039 54.8776C135.284 56.6225 137.166 58.7998 138.579 61.2849C139.992 63.7701 140.907 66.5143 141.272 69.3605C141.638 72.2067 141.446 75.0991 140.709 77.8722L121.525 150.248C120.792 153.023 119.528 155.624 117.804 157.904C116.079 160.184 113.93 162.097 111.477 163.534C109.025 164.972 106.318 165.905 103.511 166.281C100.705 166.657 97.8537 166.468 95.1213 165.725ZM88.1774 75.9263C89.1628 78.2666 89.1793 81.2756 88.2269 84.8686L77.8034 124.194L90.1159 127.532L100.616 87.9157C101.084 86.1893 101.418 84.429 101.616 82.6505C101.691 81.8942 101.694 81.1325 101.625 80.3759C101.549 79.5324 101.426 78.6939 101.257 77.8646C100.77 75.6149 99.9119 73.4655 98.7189 71.507L98.7605 71.5183C97.5 69.4597 95.9001 67.6365 94.0305 66.1282L94.0711 66.1392C90.9824 63.7029 86.5847 61.6995 81.0001 60.1857C78.7877 59.5709 76.5126 59.2162 74.2195 59.1286C72.0926 59.0593 69.965 59.2548 67.8841 59.7109C64.2682 60.5418 60.8116 61.9733 57.6542 63.9475C56.0765 65.0551 54.273 65.7872 52.3786 66.0891L49.3459 74.3758L57.2388 77.6311C56.7612 77.8894 56.3017 78.1807 55.8635 78.5032C54.0764 80.01 52.8322 82.0755 52.3267 84.3753L44.1876 115.083L56.4637 118.41L64.6014 87.7081C64.7841 86.7625 65.1792 85.872 65.7561 85.1059C66.333 84.3398 67.0762 83.7187 67.9277 83.2909C68.8598 82.7446 70.5624 82.7998 72.9875 83.4572L75.9786 76.3202C74.157 75.5277 72.1845 74.6479 70.1162 73.7047C68.0181 72.7478 65.9536 71.8284 63.9779 70.9692L64.0822 70.908C64.653 70.6264 65.2449 70.391 65.8522 70.2041C66.6289 69.9495 67.4673 69.689 68.3458 69.4292C69.1544 69.17 69.984 68.984 70.8248 68.8733C71.5522 68.7785 72.2847 68.731 73.018 68.7311C73.9034 68.7547 74.7866 68.8301 75.6633 68.957C76.6255 69.0962 77.5783 69.2948 78.5165 69.5515C80.7411 70.0992 82.8673 70.9954 84.8185 72.2081C86.2798 73.1097 87.4554 74.4172 88.2066 75.976L88.1774 75.9263Z"
            fill="url(#paint1_linear_1195_2108)" />
    </g>
    <g filter="url(#filter2_d_1195_2108)">
        <path
            d="M507.52 109.846L445.362 159.381C443.193 161.113 440.709 162.394 438.052 163.15C435.395 163.905 432.617 164.122 429.877 163.787C427.137 163.451 424.49 162.571 422.086 161.195C419.682 159.819 417.569 157.976 415.867 155.77L367.086 92.6543C365.38 90.4517 364.119 87.9293 363.374 85.2312C362.63 82.5331 362.416 79.7123 362.747 76.9305C363.077 74.1486 363.945 71.46 365.299 69.0189C366.654 66.5778 368.47 64.4319 370.642 62.704L432.8 13.1697C434.969 11.4379 437.453 10.1576 440.11 9.40171C442.767 8.64588 445.545 8.42953 448.285 8.76492C451.024 9.10032 453.672 9.98098 456.076 11.3564C458.48 12.7319 460.593 14.575 462.295 16.7807L511.078 79.8986C512.784 82.1014 514.045 84.6241 514.789 87.3221C515.533 90.0202 515.746 92.8408 515.416 95.6226C515.086 98.4045 514.219 101.093 512.864 103.534C511.51 105.975 509.694 108.121 507.522 109.849L507.52 109.846ZM440.625 74.3247C442.781 73.2935 445.196 72.9582 447.546 73.3635C448.861 73.4851 450.138 73.8806 451.296 74.5258C452.453 75.1709 453.468 76.0516 454.276 77.1128C455.441 78.5653 456.22 80.2967 456.539 82.1421C456.807 84.0286 456.602 85.9532 455.946 87.7387C454.867 90.6809 452.53 94.0645 448.801 98.083L455.533 101.355C459.78 96.6567 462.215 92.5142 463.209 88.3105C463.91 85.6247 463.964 82.8066 463.365 80.0954C462.766 77.3842 461.532 74.8596 459.769 72.7352C458.208 70.6444 456.183 68.9568 453.859 67.8099C451.533 66.7383 448.989 66.2446 446.437 66.3696C440.911 66.4915 435.183 68.8858 429.412 73.4846C426.741 75.6812 424.29 78.1416 422.097 80.8297C420.828 79.1869 419.609 77.5047 418.318 75.7233L418.308 75.7107L418.037 75.3355C424.371 69.98 430.036 64.9694 435.357 60.0147L431.271 54.7288C424.411 61.0987 419.18 65.7067 414.311 69.6692C413.715 68.6535 413.121 67.6677 412.597 66.7999L412.579 66.7764C411.42 64.8525 410.322 63.0293 409.344 61.1935L404.024 65.4334C405.559 68.4407 407.297 71.3365 409.226 74.0999L399.626 81.7506L403.757 87.0952L412.952 79.767C413.201 80.1033 413.444 80.4331 413.683 80.7565L413.831 80.9572C415.431 83.1282 416.814 85.0036 418.058 86.6137C415.902 90.4473 414.641 94.732 414.372 99.1384C414.012 104.29 415.154 108.616 417.766 111.995C418.901 113.508 420.275 114.819 421.833 115.874C423.133 116.778 424.62 117.367 426.18 117.594C427.74 117.822 429.33 117.683 430.829 117.188C432.293 116.717 433.658 115.971 434.852 114.99C436.937 113.264 438.609 111.079 439.741 108.602C441.157 105.496 442.132 102.202 442.637 98.8188C443.245 94.8127 443.389 90.7482 443.067 86.708C442.717 82.5003 441.897 78.3466 440.624 74.3269L440.625 74.3247ZM430.876 109.236C430.343 109.739 429.704 110.109 429.006 110.319C428.309 110.529 427.574 110.572 426.857 110.445C425.309 110.062 423.951 109.121 423.034 107.797C421.471 105.58 420.735 102.871 420.958 100.154C420.947 97.4572 421.496 94.7884 422.569 92.3214C425.952 96.4092 429.903 99.9743 434.299 102.904C434.169 104.137 433.799 105.331 433.212 106.418C432.624 107.505 431.829 108.463 430.875 109.236L430.876 109.236ZM436.23 96.3324C432.481 93.3593 429.108 89.9276 426.187 86.1154C428.59 83.0133 431.384 80.2445 434.496 77.88C436.249 83.8575 436.839 90.1244 436.232 96.3307L436.23 96.3324Z"
            fill="url(#paint2_linear_1195_2108)" />
    </g>
    <g filter="url(#filter3_d_1195_2108)">
        <path
            d="M288.494 248.396L216.473 266.63C213.371 267.418 210.147 267.578 206.984 267.099C203.821 266.62 200.782 265.513 198.041 263.841C195.3 262.168 192.91 259.964 191.009 257.353C189.108 254.742 187.733 251.776 186.962 248.624L169.006 175.495C168.23 172.345 168.073 169.071 168.544 165.859C169.015 162.647 170.106 159.562 171.753 156.778C173.4 153.995 175.571 151.569 178.142 149.638C180.714 147.708 183.635 146.311 186.738 145.529L258.759 127.295C261.861 126.507 265.086 126.347 268.249 126.826C271.411 127.304 274.45 128.412 277.191 130.084C279.932 131.756 282.322 133.961 284.223 136.572C286.124 139.183 287.499 142.149 288.27 145.301L306.227 218.431C307.003 221.581 307.16 224.855 306.689 228.067C306.217 231.279 305.127 234.364 303.48 237.148C301.833 239.931 299.662 242.357 297.09 244.288C294.519 246.218 291.598 247.615 288.494 248.397L288.494 248.396ZM220.136 218.442L224.15 234.79L265.868 224.228L264.28 217.759L230.645 226.275L228.22 216.397L220.136 218.442ZM241.555 166.103L252.863 212.157L260.878 210.128L256.146 190.856L264.641 188.705L262.984 181.958L254.489 184.109L249.572 164.08L241.555 166.103ZM224.143 190.905C220.386 191.742 217.004 193.812 214.521 196.794C213.491 198.056 212.765 199.543 212.401 201.139C212.036 202.735 212.043 204.395 212.421 205.988C212.82 207.573 213.582 209.039 214.645 210.267C215.709 211.496 217.043 212.451 218.54 213.056C222.11 214.445 226.027 214.629 229.708 213.581C238.045 211.47 242.932 205.199 241.327 198.665C240.921 197.079 240.158 195.61 239.097 194.376C238.036 193.141 236.707 192.174 235.215 191.55C231.695 190.102 227.803 189.875 224.143 190.905ZM204.077 187.414L205.631 193.744L241.047 184.778L239.493 178.448L204.077 187.414ZM210.881 176.01L212.401 182.201L230.556 177.605L229.036 171.417L210.881 176.01ZM228.104 207.041C226.477 207.491 224.754 207.44 223.156 206.892C222.489 206.68 221.885 206.303 221.398 205.794C220.911 205.285 220.556 204.661 220.367 203.978C220.207 203.263 220.222 202.52 220.409 201.812C220.597 201.105 220.952 200.455 221.443 199.918C222.599 198.673 224.082 197.791 225.717 197.377C227.352 196.963 229.07 197.035 230.665 197.583C231.351 197.819 231.97 198.222 232.467 198.756C232.964 199.29 233.324 199.94 233.517 200.649C234.168 203.301 231.793 206.109 228.106 207.043L228.104 207.041Z"
            fill="url(#paint3_linear_1195_2108)" />
    </g>
    <defs>
        <filter id="filter0_d_1195_2108" x="1280.86" y="41.1115" width="245.386" height="247.888"
            filterUnits="userSpaceOnUse" color-interpolation-filters="sRGB">
            <feFlood flood-opacity="0" result="BackgroundImageFix" />
            <feColorMatrix in="SourceAlpha" type="matrix" values="0 0 0 0 0 0 0 0 0 0 0 0 0 0 0 0 0 0 127 0"
                result="hardAlpha" />
            <feOffset dx="3" dy="5" />
            <feGaussianBlur stdDeviation="15" />
            <feColorMatrix type="matrix" values="0 0 0 0 0.329412 0 0 0 0 0.580392 0 0 0 0 0.933333 0 0 0 1 0" />
            <feBlend mode="normal" in2="BackgroundImageFix" result="effect1_dropShadow_1195_2108" />
            <feBlend mode="normal" in="SourceGraphic" in2="effect1_dropShadow_1195_2108" result="shape" />
        </filter>
        <filter id="filter1_d_1195_2108" x="0.853516" y="26.0411" width="153.6" height="155.428"
            filterUnits="userSpaceOnUse" color-interpolation-filters="sRGB">
            <feFlood flood-opacity="0" result="BackgroundImageFix" />
            <feColorMatrix in="SourceAlpha" type="matrix" values="0 0 0 0 0 0 0 0 0 0 0 0 0 0 0 0 0 0 127 0"
                result="hardAlpha" />
            <feOffset dx="3" dy="5" />
            <feGaussianBlur stdDeviation="5" />
            <feColorMatrix type="matrix" values="0 0 0 0 0.329412 0 0 0 0 0.580392 0 0 0 0 0.933333 0 0 0 1 0" />
            <feBlend mode="normal" in2="BackgroundImageFix" result="effect1_dropShadow_1195_2108" />
            <feBlend mode="normal" in="SourceGraphic" in2="effect1_dropShadow_1195_2108" result="shape" />
        </filter>
        <filter id="filter2_d_1195_2108" x="355.596" y="3.61169" width="172.971" height="175.328"
            filterUnits="userSpaceOnUse" color-interpolation-filters="sRGB">
            <feFlood flood-opacity="0" result="BackgroundImageFix" />
            <feColorMatrix in="SourceAlpha" type="matrix" values="0 0 0 0 0 0 0 0 0 0 0 0 0 0 0 0 0 0 127 0"
                result="hardAlpha" />
            <feOffset dx="3" dy="5" />
            <feGaussianBlur stdDeviation="5" />
            <feColorMatrix type="matrix" values="0 0 0 0 0.329412 0 0 0 0 0.580392 0 0 0 0 0.933333 0 0 0 1 0" />
            <feBlend mode="normal" in2="BackgroundImageFix" result="effect1_dropShadow_1195_2108" />
            <feBlend mode="normal" in="SourceGraphic" in2="effect1_dropShadow_1195_2108" result="shape" />
        </filter>
        <filter id="filter3_d_1195_2108" x="161.278" y="121.556" width="158.676" height="160.813"
            filterUnits="userSpaceOnUse" color-interpolation-filters="sRGB">
            <feFlood flood-opacity="0" result="BackgroundImageFix" />
            <feColorMatrix in="SourceAlpha" type="matrix" values="0 0 0 0 0 0 0 0 0 0 0 0 0 0 0 0 0 0 127 0"
                result="hardAlpha" />
            <feOffset dx="3" dy="5" />
            <feGaussianBlur stdDeviation="5" />
            <feColorMatrix type="matrix" values="0 0 0 0 0.329412 0 0 0 0 0.580392 0 0 0 0 0.933333 0 0 0 1 0" />
            <feBlend mode="normal" in2="BackgroundImageFix" result="effect1_dropShadow_1195_2108" />
            <feBlend mode="normal" in="SourceGraphic" in2="effect1_dropShadow_1195_2108" result="shape" />
        </filter>
        <linearGradient id="paint0_linear_1195_2108" x1="1438.44" y1="248.577" x2="1355.08" y2="71.958"
            gradientUnits="userSpaceOnUse">
            <stop stop-color="#0566ED" />
            <stop offset="1" stop-color="#3EC4FF" stop-opacity="0.514" />
        </linearGradient>
        <linearGradient id="paint1_linear_1195_2108" x1="103.562" y1="163.222" x2="40.1368" y2="34.7182"
            gradientUnits="userSpaceOnUse">
            <stop stop-color="#0566ED" />
            <stop offset="1" stop-color="#3EC4FF" stop-opacity="0.514" />
        </linearGradient>
        <linearGradient id="paint2_linear_1195_2108" x1="509.709" y1="102.014" x2="365.509" y2="74.525"
            gradientUnits="userSpaceOnUse">
            <stop stop-color="#0566ED" />
            <stop offset="1" stop-color="#3EC4FF" stop-opacity="0.514" />
        </linearGradient>
        <linearGradient id="paint3_linear_1195_2108" x1="296.645" y1="241.317" x2="173.485" y2="156.134"
            gradientUnits="userSpaceOnUse">
            <stop stop-color="#0566ED" />
            <stop offset="1" stop-color="#3EC4FF" stop-opacity="0.514" />
        </linearGradient>
    </defs>
</svg>