<svg width="1332" height="332" viewBox="0 0 1332 332" fill="none" xmlns="http://www.w3.org/2000/svg">
<path d="M0.249219 90L31.3292 3.23999H49.8092L80.8292 90H63.3692L56.2892 69.9H25.0892L17.8292 90H0.249219ZM28.9892 54.6H52.0892L40.6292 20.16L28.9892 54.6ZM117.066 90V27.96H134.286V36.72C135.246 35.2 136.486 33.74 138.006 32.34C139.566 30.9 141.526 29.72 143.886 28.8C146.246 27.88 149.046 27.42 152.286 27.42C156.086 27.42 159.626 28.16 162.906 29.64C166.226 31.12 168.906 33.46 170.946 36.66C172.986 39.82 174.006 43.96 174.006 49.08V90H156.486V51.24C156.486 47.88 155.486 45.36 153.486 43.68C151.486 42 149.046 41.16 146.166 41.16C144.246 41.16 142.386 41.5 140.586 42.18C138.826 42.86 137.386 43.88 136.266 45.24C135.146 46.6 134.586 48.28 134.586 50.28V90H117.066ZM202.599 63C202.559 66.16 203.059 68.92 204.099 71.28C205.139 73.6 206.639 75.4 208.599 76.68C210.599 77.92 212.999 78.54 215.799 78.54C218.799 78.54 221.419 77.9 223.659 76.62C225.939 75.34 227.519 73.24 228.399 70.32H244.179C243.499 74.72 241.739 78.48 238.899 81.6C236.099 84.72 232.699 87.1 228.699 88.74C224.699 90.38 220.539 91.2 216.219 91.2C210.099 91.2 204.699 89.92 200.019 87.36C195.379 84.76 191.759 81.1 189.159 76.38C186.559 71.66 185.259 66.1 185.259 59.7C185.259 53.5 186.439 47.92 188.799 42.96C191.159 37.96 194.579 34.02 199.059 31.14C203.579 28.22 208.999 26.76 215.319 26.76C221.639 26.76 226.939 28.1 231.219 30.78C235.539 33.42 238.779 37.12 240.939 41.88C243.139 46.6 244.239 52.06 244.239 58.26V63H202.599ZM202.539 52.56H227.859C227.859 50.08 227.399 47.8 226.479 45.72C225.559 43.64 224.159 42 222.279 40.8C220.439 39.6 218.119 39 215.319 39C212.599 39 210.279 39.66 208.359 40.98C206.479 42.26 205.039 43.94 204.039 46.02C203.039 48.1 202.539 50.28 202.539 52.56ZM339.384 27.96L318.984 90H305.064L293.484 52.44L281.964 90H268.404L248.304 27.96H263.784L275.664 66.42H276.144L287.544 27.96H300.024L311.544 66.42H312.024L323.544 27.96H339.384ZM393.155 91.08C388.595 91.08 384.975 90.54 382.295 89.46C379.615 88.38 377.635 86.96 376.355 85.2C375.075 83.4 374.255 81.42 373.895 79.26C373.535 77.06 373.355 74.84 373.355 72.6V0.839996H390.515V70.44C390.515 72.72 390.995 74.58 391.955 76.02C392.955 77.42 394.815 78.28 397.535 78.6L400.475 78.78V89.58C399.275 89.98 398.055 90.32 396.815 90.6C395.575 90.92 394.355 91.08 393.155 91.08ZM429.793 91.2C425.833 91.2 422.273 90.46 419.113 88.98C415.953 87.5 413.453 85.36 411.613 82.56C409.773 79.72 408.853 76.28 408.853 72.24C408.853 65.44 411.393 60.28 416.473 56.76C421.553 53.2 429.573 51.36 440.533 51.24L448.273 51.12V47.4C448.273 44.56 447.433 42.38 445.753 40.86C444.113 39.3 441.553 38.54 438.073 38.58C435.513 38.62 433.073 39.22 430.753 40.38C428.473 41.54 426.913 43.56 426.073 46.44H411.493C411.733 41.96 413.033 38.28 415.393 35.4C417.753 32.48 420.953 30.32 424.993 28.92C429.073 27.48 433.693 26.76 438.853 26.76C445.213 26.76 450.313 27.56 454.153 29.16C457.993 30.72 460.773 32.98 462.493 35.94C464.213 38.86 465.073 42.34 465.073 46.38V90H450.433L448.993 79.32C446.873 83.8 444.213 86.9 441.013 88.62C437.853 90.34 434.113 91.2 429.793 91.2ZM435.673 79.68C437.273 79.68 438.813 79.4 440.293 78.84C441.813 78.24 443.153 77.46 444.313 76.5C445.513 75.5 446.473 74.38 447.193 73.14C447.913 71.9 448.273 70.62 448.273 69.3V60.12L441.973 60.24C439.053 60.28 436.333 60.64 433.813 61.32C431.293 61.96 429.253 63.02 427.693 64.5C426.173 65.98 425.413 67.98 425.413 70.5C425.413 73.38 426.413 75.64 428.413 77.28C430.413 78.88 432.833 79.68 435.673 79.68ZM480.582 90V27.96H497.802V36.72C498.762 35.2 500.002 33.74 501.522 32.34C503.082 30.9 505.042 29.72 507.402 28.8C509.762 27.88 512.562 27.42 515.802 27.42C519.602 27.42 523.142 28.16 526.422 29.64C529.742 31.12 532.422 33.46 534.462 36.66C536.502 39.82 537.522 43.96 537.522 49.08V90H520.002V51.24C520.002 47.88 519.002 45.36 517.002 43.68C515.002 42 512.562 41.16 509.682 41.16C507.762 41.16 505.902 41.5 504.102 42.18C502.342 42.86 500.902 43.88 499.782 45.24C498.662 46.6 498.102 48.28 498.102 50.28V90H480.582ZM580.455 110.52C569.415 110.52 561.015 109.12 555.255 106.32C549.535 103.52 546.675 99.84 546.675 95.28C546.675 93.16 547.235 91.38 548.355 89.94C549.475 88.5 550.775 87.36 552.255 86.52C553.775 85.64 555.155 84.98 556.395 84.54C557.675 84.06 558.455 83.74 558.735 83.58C558.095 83.22 557.175 82.7 555.975 82.02C554.775 81.3 553.655 80.34 552.615 79.14C551.615 77.9 551.115 76.3 551.115 74.34C551.115 72.14 552.155 70.1 554.235 68.22C556.355 66.34 559.555 65.04 563.835 64.32C559.755 62.4 556.655 59.8 554.535 56.52C552.415 53.24 551.355 49.88 551.355 46.44C551.355 42.36 552.635 38.86 555.195 35.94C557.755 33.02 561.235 30.8 565.635 29.28C570.075 27.76 575.095 27 580.695 27C584.975 27 588.475 27.46 591.195 28.38C593.915 29.26 596.435 30.42 598.755 31.86C599.675 31.5 600.895 31.04 602.415 30.48C603.935 29.88 605.575 29.24 607.335 28.56C609.095 27.84 610.815 27.14 612.495 26.46C614.175 25.74 615.675 25.1 616.995 24.54L616.935 38.1L606.195 39.84C606.635 40.92 606.975 42.08 607.215 43.32C607.455 44.56 607.575 45.58 607.575 46.38C607.575 49.98 606.515 53.34 604.395 56.46C602.315 59.58 599.175 62.1 594.975 64.02C590.815 65.94 585.655 66.9 579.495 66.9C578.735 66.9 577.715 66.88 576.435 66.84C575.195 66.8 574.175 66.74 573.375 66.66C571.015 66.78 569.395 67.08 568.515 67.56C567.635 68.04 567.195 68.6 567.195 69.24C567.195 70.2 568.095 70.84 569.895 71.16C571.695 71.44 574.415 71.7 578.055 71.94C579.335 72.02 581.115 72.12 583.395 72.24C585.675 72.36 588.195 72.52 590.955 72.72C598.555 73.24 604.215 75.12 607.935 78.36C611.695 81.56 613.575 85.6 613.575 90.48C613.575 96.28 610.815 101.06 605.295 104.82C599.815 108.62 591.535 110.52 580.455 110.52ZM583.275 100.74C588.155 100.74 591.635 100.14 593.715 98.94C595.795 97.74 596.835 96.02 596.835 93.78C596.835 91.9 596.035 90.38 594.435 89.22C592.835 88.02 590.495 87.32 587.415 87.12L573.195 86.16C571.355 86.08 569.715 86.36 568.275 87C566.875 87.64 565.775 88.52 564.975 89.64C564.215 90.76 563.835 91.96 563.835 93.24C563.835 95.84 565.415 97.74 568.575 98.94C571.735 100.14 576.635 100.74 583.275 100.74ZM579.975 57.12C583.295 57.12 585.955 56.22 587.955 54.42C589.995 52.58 591.015 50.1 591.015 46.98C591.015 43.74 589.995 41.14 587.955 39.18C585.955 37.22 583.295 36.24 579.975 36.24C576.695 36.24 574.015 37.22 571.935 39.18C569.895 41.14 568.875 43.74 568.875 46.98C568.875 50.06 569.855 52.52 571.815 54.36C573.815 56.2 576.535 57.12 579.975 57.12ZM648.872 91.2C645.992 91.2 643.152 90.76 640.352 89.88C637.592 89 635.072 87.7 632.792 85.98C630.512 84.26 628.672 82.14 627.272 79.62C625.912 77.1 625.232 74.18 625.232 70.86V27.96H642.752V68.64C642.752 71.52 643.692 73.88 645.572 75.72C647.452 77.56 650.212 78.48 653.852 78.48C657.292 78.48 660.012 77.6 662.012 75.84C664.052 74.04 665.072 71.54 665.072 68.34V27.96H682.412V90H669.212L667.172 77.7C666.452 81.34 665.092 84.14 663.092 86.1C661.132 88.02 658.872 89.34 656.312 90.06C653.792 90.82 651.312 91.2 648.872 91.2ZM714.676 91.2C710.716 91.2 707.156 90.46 703.996 88.98C700.836 87.5 698.336 85.36 696.496 82.56C694.656 79.72 693.736 76.28 693.736 72.24C693.736 65.44 696.276 60.28 701.356 56.76C706.436 53.2 714.456 51.36 725.416 51.24L733.156 51.12V47.4C733.156 44.56 732.316 42.38 730.636 40.86C728.996 39.3 726.436 38.54 722.956 38.58C720.396 38.62 717.956 39.22 715.636 40.38C713.356 41.54 711.796 43.56 710.956 46.44H696.376C696.616 41.96 697.916 38.28 700.276 35.4C702.636 32.48 705.836 30.32 709.876 28.92C713.956 27.48 718.576 26.76 723.736 26.76C730.096 26.76 735.196 27.56 739.036 29.16C742.876 30.72 745.656 32.98 747.376 35.94C749.096 38.86 749.956 42.34 749.956 46.38V90H735.316L733.876 79.32C731.756 83.8 729.096 86.9 725.896 88.62C722.736 90.34 718.996 91.2 714.676 91.2ZM720.556 79.68C722.156 79.68 723.696 79.4 725.176 78.84C726.696 78.24 728.036 77.46 729.196 76.5C730.396 75.5 731.356 74.38 732.076 73.14C732.796 71.9 733.156 70.62 733.156 69.3V60.12L726.856 60.24C723.936 60.28 721.216 60.64 718.696 61.32C716.176 61.96 714.136 63.02 712.576 64.5C711.056 65.98 710.296 67.98 710.296 70.5C710.296 73.38 711.296 75.64 713.296 77.28C715.296 78.88 717.716 79.68 720.556 79.68ZM794.205 110.52C783.165 110.52 774.765 109.12 769.005 106.32C763.285 103.52 760.425 99.84 760.425 95.28C760.425 93.16 760.985 91.38 762.105 89.94C763.225 88.5 764.525 87.36 766.005 86.52C767.525 85.64 768.905 84.98 770.145 84.54C771.425 84.06 772.205 83.74 772.485 83.58C771.845 83.22 770.925 82.7 769.725 82.02C768.525 81.3 767.405 80.34 766.365 79.14C765.365 77.9 764.865 76.3 764.865 74.34C764.865 72.14 765.905 70.1 767.985 68.22C770.105 66.34 773.305 65.04 777.585 64.32C773.505 62.4 770.405 59.8 768.285 56.52C766.165 53.24 765.105 49.88 765.105 46.44C765.105 42.36 766.385 38.86 768.945 35.94C771.505 33.02 774.985 30.8 779.385 29.28C783.825 27.76 788.845 27 794.445 27C798.725 27 802.225 27.46 804.945 28.38C807.665 29.26 810.185 30.42 812.505 31.86C813.425 31.5 814.645 31.04 816.165 30.48C817.685 29.88 819.325 29.24 821.085 28.56C822.845 27.84 824.565 27.14 826.245 26.46C827.925 25.74 829.425 25.1 830.745 24.54L830.685 38.1L819.945 39.84C820.385 40.92 820.725 42.08 820.965 43.32C821.205 44.56 821.325 45.58 821.325 46.38C821.325 49.98 820.265 53.34 818.145 56.46C816.065 59.58 812.925 62.1 808.725 64.02C804.565 65.94 799.405 66.9 793.245 66.9C792.485 66.9 791.465 66.88 790.185 66.84C788.945 66.8 787.925 66.74 787.125 66.66C784.765 66.78 783.145 67.08 782.265 67.56C781.385 68.04 780.945 68.6 780.945 69.24C780.945 70.2 781.845 70.84 783.645 71.16C785.445 71.44 788.165 71.7 791.805 71.94C793.085 72.02 794.865 72.12 797.145 72.24C799.425 72.36 801.945 72.52 804.705 72.72C812.305 73.24 817.965 75.12 821.685 78.36C825.445 81.56 827.325 85.6 827.325 90.48C827.325 96.28 824.565 101.06 819.045 104.82C813.565 108.62 805.285 110.52 794.205 110.52ZM797.025 100.74C801.905 100.74 805.385 100.14 807.465 98.94C809.545 97.74 810.585 96.02 810.585 93.78C810.585 91.9 809.785 90.38 808.185 89.22C806.585 88.02 804.245 87.32 801.165 87.12L786.945 86.16C785.105 86.08 783.465 86.36 782.025 87C780.625 87.64 779.525 88.52 778.725 89.64C777.965 90.76 777.585 91.96 777.585 93.24C777.585 95.84 779.165 97.74 782.325 98.94C785.485 100.14 790.385 100.74 797.025 100.74ZM793.725 57.12C797.045 57.12 799.705 56.22 801.705 54.42C803.745 52.58 804.765 50.1 804.765 46.98C804.765 43.74 803.745 41.14 801.705 39.18C799.705 37.22 797.045 36.24 793.725 36.24C790.445 36.24 787.765 37.22 785.685 39.18C783.645 41.14 782.625 43.74 782.625 46.98C782.625 50.06 783.605 52.52 785.565 54.36C787.565 56.2 790.285 57.12 793.725 57.12ZM853.693 63C853.653 66.16 854.153 68.92 855.193 71.28C856.233 73.6 857.733 75.4 859.693 76.68C861.693 77.92 864.093 78.54 866.893 78.54C869.893 78.54 872.513 77.9 874.753 76.62C877.033 75.34 878.613 73.24 879.493 70.32H895.273C894.593 74.72 892.833 78.48 889.993 81.6C887.193 84.72 883.793 87.1 879.793 88.74C875.793 90.38 871.633 91.2 867.313 91.2C861.193 91.2 855.793 89.92 851.113 87.36C846.473 84.76 842.853 81.1 840.253 76.38C837.653 71.66 836.353 66.1 836.353 59.7C836.353 53.5 837.533 47.92 839.893 42.96C842.253 37.96 845.673 34.02 850.153 31.14C854.673 28.22 860.093 26.76 866.413 26.76C872.733 26.76 878.033 28.1 882.313 30.78C886.633 33.42 889.873 37.12 892.033 41.88C894.233 46.6 895.333 52.06 895.333 58.26V63H853.693ZM853.633 52.56H878.953C878.953 50.08 878.493 47.8 877.573 45.72C876.653 43.64 875.253 42 873.373 40.8C871.533 39.6 869.213 39 866.413 39C863.693 39 861.373 39.66 859.453 40.98C857.573 42.26 856.133 43.94 855.133 46.02C854.133 48.1 853.633 50.28 853.633 52.56ZM957.114 91.2C952.794 91.2 948.634 90.5 944.634 89.1C940.634 87.66 937.254 85.42 934.494 82.38C931.734 79.3 929.974 75.32 929.214 70.44H944.394C944.914 72.64 945.854 74.38 947.214 75.66C948.614 76.94 950.194 77.86 951.954 78.42C953.714 78.94 955.394 79.2 956.994 79.2C960.354 79.2 963.054 78.68 965.094 77.64C967.174 76.56 968.214 74.92 968.214 72.72C968.214 71.04 967.594 69.7 966.354 68.7C965.154 67.7 963.154 66.94 960.354 66.42L949.434 64.14C943.954 62.98 939.554 61.02 936.234 58.26C932.914 55.46 931.214 51.5 931.134 46.38C931.134 42.66 932.114 39.32 934.074 36.36C936.074 33.4 939.014 31.06 942.894 29.34C946.774 27.62 951.534 26.76 957.174 26.76C964.814 26.76 970.914 28.44 975.474 31.8C980.074 35.16 982.414 39.9 982.494 46.02H967.854C967.414 43.62 966.214 41.78 964.254 40.5C962.334 39.18 959.914 38.52 956.994 38.52C953.954 38.52 951.454 39.06 949.494 40.14C947.534 41.22 946.554 42.86 946.554 45.06C946.554 46.7 947.354 48 948.954 48.96C950.554 49.88 953.034 50.68 956.394 51.36L966.474 53.64C969.954 54.48 972.774 55.64 974.934 57.12C977.134 58.56 978.834 60.14 980.034 61.86C981.234 63.58 982.054 65.32 982.494 67.08C982.974 68.8 983.214 70.36 983.214 71.76C983.214 75.88 982.114 79.4 979.914 82.32C977.714 85.2 974.654 87.4 970.734 88.92C966.814 90.44 962.274 91.2 957.114 91.2ZM1009.9 63C1009.86 66.16 1010.36 68.92 1011.4 71.28C1012.44 73.6 1013.94 75.4 1015.9 76.68C1017.9 77.92 1020.3 78.54 1023.1 78.54C1026.1 78.54 1028.72 77.9 1030.96 76.62C1033.24 75.34 1034.82 73.24 1035.7 70.32H1051.48C1050.8 74.72 1049.04 78.48 1046.2 81.6C1043.4 84.72 1040 87.1 1036 88.74C1032 90.38 1027.84 91.2 1023.52 91.2C1017.4 91.2 1012 89.92 1007.32 87.36C1002.68 84.76 999.064 81.1 996.464 76.38C993.864 71.66 992.564 66.1 992.564 59.7C992.564 53.5 993.744 47.92 996.104 42.96C998.464 37.96 1001.88 34.02 1006.36 31.14C1010.88 28.22 1016.3 26.76 1022.62 26.76C1028.94 26.76 1034.24 28.1 1038.52 30.78C1042.84 33.42 1046.08 37.12 1048.24 41.88C1050.44 46.6 1051.54 52.06 1051.54 58.26V63H1009.9ZM1009.84 52.56H1035.16C1035.16 50.08 1034.7 47.8 1033.78 45.72C1032.86 43.64 1031.46 42 1029.58 40.8C1027.74 39.6 1025.42 39 1022.62 39C1019.9 39 1017.58 39.66 1015.66 40.98C1013.78 42.26 1012.34 43.94 1011.34 46.02C1010.34 48.1 1009.84 50.28 1009.84 52.56ZM1063.71 90V27.96H1080.57V42.66C1081.57 39.5 1082.97 36.74 1084.77 34.38C1086.61 31.98 1088.83 30.12 1091.43 28.8C1094.03 27.44 1096.97 26.76 1100.25 26.76C1100.81 26.76 1101.33 26.8 1101.81 26.88C1102.33 26.92 1102.71 27 1102.95 27.12V43.8C1102.59 43.64 1102.15 43.54 1101.63 43.5C1101.15 43.46 1100.71 43.42 1100.31 43.38C1096.87 43.1 1093.93 43.2 1091.49 43.68C1089.05 44.16 1087.07 44.98 1085.55 46.14C1084.03 47.3 1082.93 48.72 1082.25 50.4C1081.57 52.08 1081.23 53.96 1081.23 56.04V90H1063.71ZM1168.38 27.96L1145.1 90H1132.44L1109.1 27.96H1124.94L1138.5 67.5H1138.98L1152.36 27.96H1168.38ZM1195.02 27.96V90H1178.28V27.96H1195.02ZM1195.2 3.3V19.08H1178.16V3.3H1195.2ZM1237.47 26.76C1242.67 26.76 1247.15 27.82 1250.91 29.94C1254.71 32.06 1257.69 34.92 1259.85 38.52C1262.05 42.12 1263.31 46.14 1263.63 50.58H1249.05C1248.77 48.94 1248.19 47.32 1247.31 45.72C1246.43 44.08 1245.19 42.74 1243.59 41.7C1241.99 40.62 1239.99 40.08 1237.59 40.08C1233.51 40.08 1230.19 41.66 1227.63 44.82C1225.11 47.94 1223.85 52.7 1223.85 59.1C1223.85 65.14 1225.09 69.94 1227.57 73.5C1230.05 77.02 1233.51 78.78 1237.95 78.78C1240.31 78.78 1242.27 78.2 1243.83 77.04C1245.43 75.88 1246.67 74.5 1247.55 72.9C1248.43 71.26 1248.99 69.74 1249.23 68.34H1263.45C1263.17 72.62 1261.93 76.5 1259.73 79.98C1257.53 83.42 1254.53 86.16 1250.73 88.2C1246.97 90.2 1242.55 91.2 1237.47 91.2C1231.71 91.2 1226.57 89.92 1222.05 87.36C1217.53 84.8 1213.97 81.14 1211.37 76.38C1208.81 71.58 1207.53 65.86 1207.53 59.22C1207.53 52.82 1208.77 47.18 1211.25 42.3C1213.73 37.42 1217.21 33.62 1221.69 30.9C1226.21 28.14 1231.47 26.76 1237.47 26.76ZM1290.1 63C1290.06 66.16 1290.56 68.92 1291.6 71.28C1292.64 73.6 1294.14 75.4 1296.1 76.68C1298.1 77.92 1300.5 78.54 1303.3 78.54C1306.3 78.54 1308.92 77.9 1311.16 76.62C1313.44 75.34 1315.02 73.24 1315.9 70.32H1331.68C1331 74.72 1329.24 78.48 1326.4 81.6C1323.6 84.72 1320.2 87.1 1316.2 88.74C1312.2 90.38 1308.04 91.2 1303.72 91.2C1297.6 91.2 1292.2 89.92 1287.52 87.36C1282.88 84.76 1279.26 81.1 1276.66 76.38C1274.06 71.66 1272.76 66.1 1272.76 59.7C1272.76 53.5 1273.94 47.92 1276.3 42.96C1278.66 37.96 1282.08 34.02 1286.56 31.14C1291.08 28.22 1296.5 26.76 1302.82 26.76C1309.14 26.76 1314.44 28.1 1318.72 30.78C1323.04 33.42 1326.28 37.12 1328.44 41.88C1330.64 46.6 1331.74 52.06 1331.74 58.26V63H1290.1ZM1290.04 52.56H1315.36C1315.36 50.08 1314.9 47.8 1313.98 45.72C1313.06 43.64 1311.66 42 1309.78 40.8C1307.94 39.6 1305.62 39 1302.82 39C1300.1 39 1297.78 39.66 1295.86 40.98C1293.98 42.26 1292.54 43.94 1291.54 46.02C1290.54 48.1 1290.04 50.28 1290.04 52.56ZM142.305 324L153.96 291.465H160.89L172.523 324H165.975L163.32 316.462H151.62L148.898 324H142.305ZM153.083 310.725H161.745L157.448 297.81L153.083 310.725ZM177.408 291.465H183.956V324H177.408V291.465ZM213.998 305.302H208.823L208.868 317.7C208.868 318.27 208.935 318.697 209.07 318.982C209.22 319.252 209.445 319.432 209.745 319.522C210.06 319.597 210.458 319.635 210.938 319.635H214.065V323.685C213.765 323.82 213.293 323.947 212.648 324.068C212.018 324.188 211.133 324.248 209.993 324.248C207.953 324.248 206.37 323.985 205.245 323.46C204.135 322.935 203.363 322.2 202.928 321.255C202.493 320.31 202.275 319.215 202.275 317.97V305.302H198.495V300.735H202.5L204.143 293.715H208.823V300.712H213.998V305.302ZM218.851 324V300.735H225.174V306.247C225.549 305.062 226.074 304.027 226.749 303.142C227.439 302.242 228.271 301.545 229.246 301.05C230.221 300.54 231.324 300.285 232.554 300.285C232.764 300.285 232.959 300.3 233.139 300.33C233.334 300.345 233.476 300.375 233.566 300.42V306.675C233.431 306.615 233.266 306.577 233.071 306.562C232.891 306.547 232.726 306.532 232.576 306.517C231.286 306.412 230.184 306.45 229.269 306.63C228.354 306.81 227.611 307.117 227.041 307.552C226.471 307.987 226.059 308.52 225.804 309.15C225.549 309.78 225.421 310.485 225.421 311.265V324H218.851ZM243.619 324.45C242.134 324.45 240.799 324.173 239.614 323.617C238.429 323.062 237.491 322.26 236.801 321.21C236.111 320.145 235.766 318.855 235.766 317.34C235.766 314.79 236.719 312.855 238.624 311.535C240.529 310.2 243.536 309.51 247.646 309.465L250.549 309.42V308.025C250.549 306.96 250.234 306.142 249.604 305.572C248.989 304.987 248.029 304.702 246.724 304.717C245.764 304.732 244.849 304.957 243.979 305.392C243.124 305.827 242.539 306.585 242.224 307.665H236.756C236.846 305.985 237.334 304.605 238.219 303.525C239.104 302.43 240.304 301.62 241.819 301.095C243.349 300.555 245.081 300.285 247.016 300.285C249.401 300.285 251.314 300.585 252.754 301.185C254.194 301.77 255.236 302.617 255.881 303.727C256.526 304.822 256.849 306.127 256.849 307.642V324H251.359L250.819 319.995C250.024 321.675 249.026 322.837 247.826 323.482C246.641 324.128 245.239 324.45 243.619 324.45ZM245.824 320.13C246.424 320.13 247.001 320.025 247.556 319.815C248.126 319.59 248.629 319.297 249.064 318.937C249.514 318.562 249.874 318.142 250.144 317.677C250.414 317.212 250.549 316.732 250.549 316.237V312.795L248.186 312.84C247.091 312.855 246.071 312.99 245.126 313.245C244.181 313.485 243.416 313.882 242.831 314.437C242.261 314.992 241.976 315.742 241.976 316.687C241.976 317.767 242.351 318.615 243.101 319.23C243.851 319.83 244.759 320.13 245.824 320.13ZM262.665 324V300.735H269.122V304.02C269.482 303.45 269.947 302.902 270.517 302.377C271.102 301.837 271.837 301.395 272.722 301.05C273.607 300.705 274.657 300.532 275.872 300.532C277.297 300.532 278.625 300.81 279.855 301.365C281.1 301.92 282.105 302.797 282.87 303.997C283.635 305.182 284.017 306.735 284.017 308.655V324H277.447V309.465C277.447 308.205 277.072 307.26 276.322 306.63C275.572 306 274.657 305.685 273.577 305.685C272.857 305.685 272.16 305.812 271.485 306.067C270.825 306.322 270.285 306.705 269.865 307.215C269.445 307.725 269.235 308.355 269.235 309.105V324H262.665ZM298.278 324.45C296.658 324.45 295.098 324.188 293.598 323.662C292.098 323.122 290.831 322.282 289.796 321.142C288.761 319.987 288.101 318.495 287.816 316.665H293.508C293.703 317.49 294.056 318.142 294.566 318.622C295.091 319.102 295.683 319.447 296.343 319.657C297.003 319.852 297.633 319.95 298.233 319.95C299.493 319.95 300.506 319.755 301.271 319.365C302.051 318.96 302.441 318.345 302.441 317.52C302.441 316.89 302.208 316.387 301.743 316.012C301.293 315.637 300.543 315.352 299.493 315.157L295.398 314.302C293.343 313.867 291.693 313.132 290.448 312.097C289.203 311.047 288.566 309.562 288.536 307.642C288.536 306.247 288.903 304.995 289.638 303.885C290.388 302.775 291.491 301.897 292.946 301.252C294.401 300.607 296.186 300.285 298.301 300.285C301.166 300.285 303.453 300.915 305.163 302.175C306.888 303.435 307.766 305.212 307.796 307.507H302.306C302.141 306.607 301.691 305.917 300.956 305.437C300.236 304.942 299.328 304.695 298.233 304.695C297.093 304.695 296.156 304.897 295.421 305.302C294.686 305.707 294.318 306.322 294.318 307.147C294.318 307.762 294.618 308.25 295.218 308.61C295.818 308.955 296.748 309.255 298.008 309.51L301.788 310.365C303.093 310.68 304.151 311.115 304.961 311.67C305.786 312.21 306.423 312.802 306.873 313.447C307.323 314.092 307.631 314.745 307.796 315.405C307.976 316.05 308.066 316.635 308.066 317.16C308.066 318.705 307.653 320.025 306.828 321.12C306.003 322.2 304.856 323.025 303.386 323.595C301.916 324.165 300.213 324.45 298.278 324.45ZM320.099 324.405C318.389 324.405 317.032 324.203 316.027 323.797C315.022 323.392 314.279 322.86 313.799 322.2C313.319 321.525 313.012 320.782 312.877 319.972C312.742 319.147 312.674 318.315 312.674 317.475V290.565H319.109V316.665C319.109 317.52 319.289 318.217 319.649 318.757C320.024 319.282 320.722 319.605 321.742 319.725L322.844 319.792V323.842C322.394 323.992 321.937 324.12 321.472 324.225C321.007 324.345 320.549 324.405 320.099 324.405ZM333.838 324.45C332.353 324.45 331.018 324.173 329.833 323.617C328.648 323.062 327.711 322.26 327.021 321.21C326.331 320.145 325.986 318.855 325.986 317.34C325.986 314.79 326.938 312.855 328.843 311.535C330.748 310.2 333.756 309.51 337.866 309.465L340.768 309.42V308.025C340.768 306.96 340.453 306.142 339.823 305.572C339.208 304.987 338.248 304.702 336.943 304.717C335.983 304.732 335.068 304.957 334.198 305.392C333.343 305.827 332.758 306.585 332.443 307.665H326.976C327.066 305.985 327.553 304.605 328.438 303.525C329.323 302.43 330.523 301.62 332.038 301.095C333.568 300.555 335.301 300.285 337.236 300.285C339.621 300.285 341.533 300.585 342.973 301.185C344.413 301.77 345.456 302.617 346.101 303.727C346.746 304.822 347.068 306.127 347.068 307.642V324H341.578L341.038 319.995C340.243 321.675 339.246 322.837 338.046 323.482C336.861 324.128 335.458 324.45 333.838 324.45ZM336.043 320.13C336.643 320.13 337.221 320.025 337.776 319.815C338.346 319.59 338.848 319.297 339.283 318.937C339.733 318.562 340.093 318.142 340.363 317.677C340.633 317.212 340.768 316.732 340.768 316.237V312.795L338.406 312.84C337.311 312.855 336.291 312.99 335.346 313.245C334.401 313.485 333.636 313.882 333.051 314.437C332.481 314.992 332.196 315.742 332.196 316.687C332.196 317.767 332.571 318.615 333.321 319.23C334.071 319.83 334.978 320.13 336.043 320.13ZM366.049 305.302H360.874L360.919 317.7C360.919 318.27 360.986 318.697 361.121 318.982C361.271 319.252 361.496 319.432 361.796 319.522C362.111 319.597 362.509 319.635 362.989 319.635H366.116V323.685C365.816 323.82 365.344 323.947 364.699 324.068C364.069 324.188 363.184 324.248 362.044 324.248C360.004 324.248 358.421 323.985 357.296 323.46C356.186 322.935 355.414 322.2 354.979 321.255C354.544 320.31 354.326 319.215 354.326 317.97V305.302H350.546V300.735H354.551L356.194 293.715H360.874V300.712H366.049V305.302ZM377.517 300.735V324H371.239V300.735H377.517ZM377.584 291.487V297.405H371.194V291.487H377.584ZM393.46 324.45C391.18 324.45 389.193 323.963 387.498 322.987C385.818 322.012 384.513 320.632 383.583 318.847C382.668 317.062 382.21 314.947 382.21 312.502C382.21 310.057 382.668 307.92 383.583 306.09C384.513 304.26 385.818 302.835 387.498 301.815C389.193 300.795 391.188 300.285 393.483 300.285C395.778 300.285 397.765 300.787 399.445 301.792C401.125 302.782 402.423 304.192 403.338 306.022C404.253 307.852 404.71 310.012 404.71 312.502C404.71 314.842 404.26 316.912 403.36 318.712C402.475 320.497 401.193 321.9 399.513 322.92C397.848 323.94 395.83 324.45 393.46 324.45ZM393.483 319.567C394.638 319.567 395.568 319.23 396.273 318.555C396.978 317.88 397.488 316.995 397.803 315.9C398.133 314.79 398.298 313.582 398.298 312.277C398.298 311.047 398.148 309.885 397.848 308.79C397.563 307.695 397.068 306.81 396.363 306.135C395.658 305.46 394.698 305.122 393.483 305.122C392.328 305.122 391.39 305.445 390.67 306.09C389.965 306.72 389.448 307.582 389.118 308.677C388.788 309.757 388.623 310.957 388.623 312.277C388.623 313.492 388.773 314.662 389.073 315.787C389.373 316.897 389.875 317.805 390.58 318.51C391.285 319.215 392.253 319.567 393.483 319.567ZM409.09 324V300.735H415.548V304.02C415.908 303.45 416.373 302.902 416.943 302.377C417.528 301.837 418.263 301.395 419.148 301.05C420.033 300.705 421.083 300.532 422.298 300.532C423.723 300.532 425.05 300.81 426.28 301.365C427.525 301.92 428.53 302.797 429.295 303.997C430.06 305.182 430.443 306.735 430.443 308.655V324H423.873V309.465C423.873 308.205 423.498 307.26 422.748 306.63C421.998 306 421.083 305.685 420.003 305.685C419.283 305.685 418.585 305.812 417.91 306.067C417.25 306.322 416.71 306.705 416.29 307.215C415.87 307.725 415.66 308.355 415.66 309.105V324H409.09ZM466.361 305.235V310.027H445.099V305.235H466.361ZM458.149 318.24H453.356V296.977H458.149V318.24ZM481.336 324V290.565H487.861V304.087C488.236 303.547 488.709 303.015 489.279 302.49C489.849 301.95 490.561 301.5 491.416 301.14C492.271 300.78 493.314 300.6 494.544 300.6C496.029 300.6 497.379 300.892 498.594 301.477C499.824 302.047 500.806 302.88 501.541 303.975C502.291 305.07 502.666 306.405 502.666 307.98V324H496.074V308.947C496.074 307.897 495.691 307.095 494.926 306.54C494.176 305.97 493.261 305.685 492.181 305.685C491.476 305.685 490.794 305.812 490.134 306.067C489.474 306.322 488.934 306.712 488.514 307.237C488.109 307.747 487.906 308.385 487.906 309.15V324H481.336ZM516.32 324.45C515.24 324.45 514.175 324.285 513.125 323.955C512.09 323.625 511.145 323.137 510.29 322.492C509.435 321.847 508.745 321.052 508.22 320.107C507.71 319.162 507.455 318.067 507.455 316.822V300.735H514.025V315.99C514.025 317.07 514.378 317.955 515.083 318.645C515.788 319.335 516.823 319.68 518.188 319.68C519.478 319.68 520.498 319.35 521.248 318.69C522.013 318.015 522.395 317.077 522.395 315.877V300.735H528.898V324H523.948L523.183 319.387C522.913 320.752 522.403 321.802 521.653 322.537C520.918 323.257 520.07 323.752 519.11 324.023C518.165 324.308 517.235 324.45 516.32 324.45ZM534.378 324V300.735H540.813V304.02C541.518 303 542.463 302.122 543.648 301.388C544.848 300.652 546.356 300.285 548.171 300.285C548.966 300.285 549.776 300.427 550.601 300.712C551.426 300.997 552.198 301.417 552.918 301.972C553.653 302.512 554.246 303.195 554.696 304.02C555.446 302.955 556.428 302.07 557.643 301.365C558.873 300.645 560.238 300.285 561.738 300.285C562.608 300.285 563.486 300.427 564.371 300.712C565.271 300.997 566.096 301.462 566.846 302.107C567.596 302.752 568.196 303.615 568.646 304.695C569.111 305.76 569.343 307.08 569.343 308.655V324H562.773V309.465C562.773 308.535 562.586 307.792 562.211 307.237C561.851 306.667 561.386 306.262 560.816 306.022C560.261 305.767 559.668 305.64 559.038 305.64C558.453 305.64 557.861 305.76 557.261 306C556.661 306.225 556.151 306.592 555.731 307.102C555.311 307.612 555.101 308.28 555.101 309.105V324H548.553V308.88C548.553 308.175 548.366 307.582 547.991 307.102C547.616 306.622 547.143 306.262 546.573 306.022C546.018 305.767 545.448 305.64 544.863 305.64C544.263 305.64 543.663 305.767 543.063 306.022C542.463 306.262 541.961 306.645 541.556 307.17C541.151 307.68 540.948 308.325 540.948 309.105V324H534.378ZM581.25 324.45C579.765 324.45 578.43 324.173 577.245 323.617C576.06 323.062 575.123 322.26 574.433 321.21C573.743 320.145 573.398 318.855 573.398 317.34C573.398 314.79 574.35 312.855 576.255 311.535C578.16 310.2 581.168 309.51 585.278 309.465L588.18 309.42V308.025C588.18 306.96 587.865 306.142 587.235 305.572C586.62 304.987 585.66 304.702 584.355 304.717C583.395 304.732 582.48 304.957 581.61 305.392C580.755 305.827 580.17 306.585 579.855 307.665H574.388C574.478 305.985 574.965 304.605 575.85 303.525C576.735 302.43 577.935 301.62 579.45 301.095C580.98 300.555 582.713 300.285 584.648 300.285C587.033 300.285 588.945 300.585 590.385 301.185C591.825 301.77 592.868 302.617 593.513 303.727C594.158 304.822 594.48 306.127 594.48 307.642V324H588.99L588.45 319.995C587.655 321.675 586.658 322.837 585.458 323.482C584.273 324.128 582.87 324.45 581.25 324.45ZM583.455 320.13C584.055 320.13 584.633 320.025 585.188 319.815C585.758 319.59 586.26 319.297 586.695 318.937C587.145 318.562 587.505 318.142 587.775 317.677C588.045 317.212 588.18 316.732 588.18 316.237V312.795L585.818 312.84C584.723 312.855 583.703 312.99 582.758 313.245C581.813 313.485 581.048 313.882 580.463 314.437C579.893 314.992 579.608 315.742 579.608 316.687C579.608 317.767 579.983 318.615 580.733 319.23C581.483 319.83 582.39 320.13 583.455 320.13ZM600.296 324V300.735H606.754V304.02C607.114 303.45 607.579 302.902 608.149 302.377C608.734 301.837 609.469 301.395 610.354 301.05C611.239 300.705 612.289 300.532 613.504 300.532C614.929 300.532 616.256 300.81 617.486 301.365C618.731 301.92 619.736 302.797 620.501 303.997C621.266 305.182 621.649 306.735 621.649 308.655V324H615.079V309.465C615.079 308.205 614.704 307.26 613.954 306.63C613.204 306 612.289 305.685 611.209 305.685C610.489 305.685 609.791 305.812 609.116 306.067C608.456 306.322 607.916 306.705 607.496 307.215C607.076 307.725 606.866 308.355 606.866 309.105V324H600.296ZM636.507 331.245V300.735H643.1L643.122 304.087C643.467 303.532 643.887 303.03 644.382 302.58C644.892 302.115 645.455 301.71 646.07 301.365C646.685 301.02 647.352 300.757 648.072 300.577C648.792 300.382 649.55 300.285 650.345 300.285C652.07 300.285 653.607 300.712 654.957 301.567C656.307 302.407 657.365 303.712 658.13 305.482C658.91 307.237 659.3 309.472 659.3 312.187C659.3 315.007 658.88 317.325 658.04 319.14C657.215 320.94 656.075 322.275 654.62 323.145C653.165 324.015 651.522 324.45 649.692 324.45C648.942 324.45 648.237 324.345 647.577 324.135C646.917 323.94 646.302 323.662 645.732 323.302C645.177 322.942 644.675 322.53 644.225 322.065C643.79 321.585 643.407 321.067 643.077 320.512V331.245H636.507ZM648.117 319.635C649.542 319.635 650.735 319.042 651.695 317.857C652.67 316.672 653.157 314.797 653.157 312.232C653.157 309.982 652.692 308.227 651.762 306.967C650.847 305.692 649.632 305.055 648.117 305.055C646.422 305.055 645.155 305.745 644.315 307.125C643.49 308.49 643.077 310.192 643.077 312.232C643.077 313.537 643.257 314.752 643.617 315.877C643.992 317.002 644.547 317.91 645.282 318.6C646.032 319.29 646.977 319.635 648.117 319.635ZM663.666 324V300.735H669.988V306.247C670.363 305.062 670.888 304.027 671.563 303.142C672.253 302.242 673.086 301.545 674.061 301.05C675.036 300.54 676.138 300.285 677.368 300.285C677.578 300.285 677.773 300.3 677.953 300.33C678.148 300.345 678.291 300.375 678.381 300.42V306.675C678.246 306.615 678.081 306.577 677.886 306.562C677.706 306.547 677.541 306.532 677.391 306.517C676.101 306.412 674.998 306.45 674.083 306.63C673.168 306.81 672.426 307.117 671.856 307.552C671.286 307.987 670.873 308.52 670.618 309.15C670.363 309.78 670.236 310.485 670.236 311.265V324H663.666ZM691.849 324.45C689.569 324.45 687.581 323.963 685.886 322.987C684.206 322.012 682.901 320.632 681.971 318.847C681.056 317.062 680.599 314.947 680.599 312.502C680.599 310.057 681.056 307.92 681.971 306.09C682.901 304.26 684.206 302.835 685.886 301.815C687.581 300.795 689.576 300.285 691.871 300.285C694.166 300.285 696.154 300.787 697.834 301.792C699.514 302.782 700.811 304.192 701.726 306.022C702.641 307.852 703.099 310.012 703.099 312.502C703.099 314.842 702.649 316.912 701.749 318.712C700.864 320.497 699.581 321.9 697.901 322.92C696.236 323.94 694.219 324.45 691.849 324.45ZM691.871 319.567C693.026 319.567 693.956 319.23 694.661 318.555C695.366 317.88 695.876 316.995 696.191 315.9C696.521 314.79 696.686 313.582 696.686 312.277C696.686 311.047 696.536 309.885 696.236 308.79C695.951 307.695 695.456 306.81 694.751 306.135C694.046 305.46 693.086 305.122 691.871 305.122C690.716 305.122 689.779 305.445 689.059 306.09C688.354 306.72 687.836 307.582 687.506 308.677C687.176 309.757 687.011 310.957 687.011 312.277C687.011 313.492 687.161 314.662 687.461 315.787C687.761 316.897 688.264 317.805 688.969 318.51C689.674 319.215 690.641 319.567 691.871 319.567ZM717.469 324.45C715.189 324.45 713.202 323.963 711.507 322.987C709.827 322.012 708.522 320.632 707.592 318.847C706.677 317.062 706.219 314.947 706.219 312.502C706.219 310.057 706.677 307.92 707.592 306.09C708.522 304.26 709.827 302.835 711.507 301.815C713.202 300.795 715.197 300.285 717.492 300.285C719.787 300.285 721.774 300.787 723.454 301.792C725.134 302.782 726.432 304.192 727.347 306.022C728.262 307.852 728.719 310.012 728.719 312.502C728.719 314.842 728.269 316.912 727.369 318.712C726.484 320.497 725.202 321.9 723.522 322.92C721.857 323.94 719.839 324.45 717.469 324.45ZM717.492 319.567C718.647 319.567 719.577 319.23 720.282 318.555C720.987 317.88 721.497 316.995 721.812 315.9C722.142 314.79 722.307 313.582 722.307 312.277C722.307 311.047 722.157 309.885 721.857 308.79C721.572 307.695 721.077 306.81 720.372 306.135C719.667 305.46 718.707 305.122 717.492 305.122C716.337 305.122 715.399 305.445 714.679 306.09C713.974 306.72 713.457 307.582 713.127 308.677C712.797 309.757 712.632 310.957 712.632 312.277C712.632 313.492 712.782 314.662 713.082 315.787C713.382 316.897 713.884 317.805 714.589 318.51C715.294 319.215 716.262 319.567 717.492 319.567ZM746.637 300.735V305.302H741.732V324H735.162V305.302H730.865V300.735H735.162V297.382C735.162 295.507 735.71 294.052 736.805 293.017C737.915 291.982 739.482 291.465 741.507 291.465H746.84L746.862 295.83H743.802C742.962 295.83 742.385 296.04 742.07 296.46C741.77 296.865 741.62 297.54 741.62 298.485V300.735H746.637ZM750.501 324V300.735H756.824V306.247C757.199 305.062 757.724 304.027 758.399 303.142C759.089 302.242 759.921 301.545 760.896 301.05C761.871 300.54 762.974 300.285 764.204 300.285C764.414 300.285 764.609 300.3 764.789 300.33C764.984 300.345 765.126 300.375 765.216 300.42V306.675C765.081 306.615 764.916 306.577 764.721 306.562C764.541 306.547 764.376 306.532 764.226 306.517C762.936 306.412 761.834 306.45 760.919 306.63C760.004 306.81 759.261 307.117 758.691 307.552C758.121 307.987 757.709 308.52 757.454 309.15C757.199 309.78 757.071 310.485 757.071 311.265V324H750.501ZM774.095 313.875C774.08 315.06 774.267 316.095 774.657 316.98C775.047 317.85 775.61 318.525 776.345 319.005C777.095 319.47 777.995 319.702 779.045 319.702C780.17 319.702 781.152 319.462 781.992 318.982C782.847 318.502 783.44 317.715 783.77 316.62H789.687C789.432 318.27 788.772 319.68 787.707 320.85C786.657 322.02 785.382 322.912 783.882 323.527C782.382 324.143 780.822 324.45 779.202 324.45C776.907 324.45 774.882 323.97 773.127 323.01C771.387 322.035 770.03 320.662 769.055 318.892C768.08 317.122 767.592 315.037 767.592 312.638C767.592 310.312 768.035 308.22 768.92 306.36C769.805 304.485 771.087 303.007 772.767 301.927C774.462 300.832 776.495 300.285 778.865 300.285C781.235 300.285 783.222 300.787 784.827 301.792C786.447 302.782 787.662 304.17 788.472 305.955C789.297 307.725 789.71 309.772 789.71 312.097V313.875H774.095ZM774.072 309.96H783.567C783.567 309.03 783.395 308.175 783.05 307.395C782.705 306.615 782.18 306 781.475 305.55C780.785 305.1 779.915 304.875 778.865 304.875C777.845 304.875 776.975 305.122 776.255 305.617C775.55 306.097 775.01 306.727 774.635 307.507C774.26 308.287 774.072 309.105 774.072 309.96ZM800.889 324.45C799.404 324.45 798.069 324.173 796.884 323.617C795.699 323.062 794.762 322.26 794.072 321.21C793.382 320.145 793.037 318.855 793.037 317.34C793.037 314.79 793.989 312.855 795.894 311.535C797.799 310.2 800.807 309.51 804.917 309.465L807.819 309.42V308.025C807.819 306.96 807.504 306.142 806.874 305.572C806.259 304.987 805.299 304.702 803.994 304.717C803.034 304.732 802.119 304.957 801.249 305.392C800.394 305.827 799.809 306.585 799.494 307.665H794.027C794.117 305.985 794.604 304.605 795.489 303.525C796.374 302.43 797.574 301.62 799.089 301.095C800.619 300.555 802.352 300.285 804.287 300.285C806.672 300.285 808.584 300.585 810.024 301.185C811.464 301.77 812.507 302.617 813.152 303.727C813.797 304.822 814.119 306.127 814.119 307.642V324H808.629L808.089 319.995C807.294 321.675 806.297 322.837 805.097 323.482C803.912 324.128 802.509 324.45 800.889 324.45ZM803.094 320.13C803.694 320.13 804.272 320.025 804.827 319.815C805.397 319.59 805.899 319.297 806.334 318.937C806.784 318.562 807.144 318.142 807.414 317.677C807.684 317.212 807.819 316.732 807.819 316.237V312.795L805.457 312.84C804.362 312.855 803.342 312.99 802.397 313.245C801.452 313.485 800.687 313.882 800.102 314.437C799.532 314.992 799.247 315.742 799.247 316.687C799.247 317.767 799.622 318.615 800.372 319.23C801.122 319.83 802.029 320.13 803.094 320.13ZM828.575 324.45C825.455 324.45 823.025 323.377 821.285 321.232C819.545 319.072 818.675 316.072 818.675 312.232C818.675 309.802 819.028 307.695 819.733 305.91C820.438 304.125 821.48 302.745 822.86 301.77C824.24 300.78 825.928 300.285 827.923 300.285C828.763 300.285 829.543 300.382 830.263 300.577C830.998 300.757 831.665 301.012 832.265 301.342C832.865 301.672 833.39 302.055 833.84 302.49C834.29 302.925 834.658 303.39 834.943 303.885V290.565H841.535V324H836.765L836.023 319.23C835.813 319.875 835.52 320.505 835.145 321.12C834.77 321.735 834.29 322.297 833.705 322.807C833.12 323.302 832.4 323.7 831.545 324C830.705 324.3 829.715 324.45 828.575 324.45ZM830.015 319.725C831.665 319.725 832.895 319.147 833.705 317.992C834.53 316.837 834.943 314.887 834.943 312.142C834.928 310.552 834.74 309.232 834.38 308.182C834.02 307.132 833.48 306.352 832.76 305.842C832.055 305.317 831.155 305.055 830.06 305.055C828.635 305.055 827.45 305.602 826.505 306.697C825.56 307.777 825.088 309.592 825.088 312.142C825.088 314.737 825.53 316.65 826.415 317.88C827.3 319.11 828.5 319.725 830.015 319.725ZM853.928 300.735V324H847.65V300.735H853.928ZM853.995 291.487V297.405H847.605V291.487H853.995ZM860.013 324V300.735H866.471V304.02C866.831 303.45 867.296 302.902 867.866 302.377C868.451 301.837 869.186 301.395 870.071 301.05C870.956 300.705 872.006 300.532 873.221 300.532C874.646 300.532 875.973 300.81 877.203 301.365C878.448 301.92 879.453 302.797 880.218 303.997C880.983 305.182 881.366 306.735 881.366 308.655V324H874.796V309.465C874.796 308.205 874.421 307.26 873.671 306.63C872.921 306 872.006 305.685 870.926 305.685C870.206 305.685 869.508 305.812 868.833 306.067C868.173 306.322 867.633 306.705 867.213 307.215C866.793 307.725 866.583 308.355 866.583 309.105V324H860.013ZM897.465 331.695C893.325 331.695 890.175 331.17 888.015 330.12C885.87 329.07 884.798 327.69 884.798 325.98C884.798 325.185 885.008 324.518 885.428 323.977C885.848 323.437 886.335 323.01 886.89 322.695C887.46 322.365 887.978 322.117 888.443 321.952C888.923 321.772 889.215 321.652 889.32 321.592C889.08 321.457 888.735 321.262 888.285 321.007C887.835 320.737 887.415 320.377 887.025 319.927C886.65 319.462 886.463 318.862 886.463 318.127C886.463 317.302 886.853 316.537 887.633 315.832C888.428 315.127 889.628 314.64 891.233 314.37C889.703 313.65 888.54 312.675 887.745 311.445C886.95 310.215 886.553 308.955 886.553 307.665C886.553 306.135 887.033 304.822 887.993 303.727C888.953 302.632 890.258 301.8 891.908 301.23C893.573 300.66 895.455 300.375 897.555 300.375C899.16 300.375 900.473 300.547 901.493 300.892C902.513 301.222 903.458 301.657 904.328 302.197C904.673 302.062 905.13 301.89 905.7 301.68C906.27 301.455 906.885 301.215 907.545 300.96C908.205 300.69 908.85 300.427 909.48 300.172C910.11 299.902 910.673 299.662 911.168 299.452L911.145 304.537L907.118 305.19C907.283 305.595 907.41 306.03 907.5 306.495C907.59 306.96 907.635 307.342 907.635 307.642C907.635 308.992 907.238 310.252 906.443 311.422C905.663 312.592 904.485 313.537 902.91 314.257C901.35 314.977 899.415 315.337 897.105 315.337C896.82 315.337 896.438 315.33 895.958 315.315C895.493 315.3 895.11 315.277 894.81 315.247C893.925 315.292 893.318 315.405 892.988 315.585C892.658 315.765 892.493 315.975 892.493 316.215C892.493 316.575 892.83 316.815 893.505 316.935C894.18 317.04 895.2 317.137 896.565 317.227C897.045 317.257 897.713 317.295 898.568 317.34C899.423 317.385 900.368 317.445 901.403 317.52C904.253 317.715 906.375 318.42 907.77 319.635C909.18 320.835 909.885 322.35 909.885 324.18C909.885 326.355 908.85 328.148 906.78 329.558C904.725 330.983 901.62 331.695 897.465 331.695ZM898.523 328.028C900.353 328.028 901.658 327.803 902.438 327.353C903.218 326.903 903.608 326.258 903.608 325.418C903.608 324.713 903.308 324.143 902.708 323.707C902.108 323.257 901.23 322.995 900.075 322.92L894.743 322.56C894.053 322.53 893.438 322.635 892.898 322.875C892.373 323.115 891.96 323.445 891.66 323.865C891.375 324.285 891.233 324.735 891.233 325.215C891.233 326.19 891.825 326.903 893.01 327.353C894.195 327.803 896.033 328.028 898.523 328.028ZM897.285 311.67C898.53 311.67 899.528 311.332 900.278 310.657C901.043 309.967 901.425 309.037 901.425 307.867C901.425 306.652 901.043 305.677 900.278 304.942C899.528 304.207 898.53 303.84 897.285 303.84C896.055 303.84 895.05 304.207 894.27 304.942C893.505 305.677 893.123 306.652 893.123 307.867C893.123 309.022 893.49 309.945 894.225 310.635C894.975 311.325 895.995 311.67 897.285 311.67ZM924.481 324V300.735H930.916V304.02C931.621 303 932.566 302.122 933.751 301.388C934.951 300.652 936.458 300.285 938.273 300.285C939.068 300.285 939.878 300.427 940.703 300.712C941.528 300.997 942.301 301.417 943.021 301.972C943.756 302.512 944.348 303.195 944.798 304.02C945.548 302.955 946.531 302.07 947.746 301.365C948.976 300.645 950.341 300.285 951.841 300.285C952.711 300.285 953.588 300.427 954.473 300.712C955.373 300.997 956.198 301.462 956.948 302.107C957.698 302.752 958.298 303.615 958.748 304.695C959.213 305.76 959.446 307.08 959.446 308.655V324H952.876V309.465C952.876 308.535 952.688 307.792 952.313 307.237C951.953 306.667 951.488 306.262 950.918 306.022C950.363 305.767 949.771 305.64 949.141 305.64C948.556 305.64 947.963 305.76 947.363 306C946.763 306.225 946.253 306.592 945.833 307.102C945.413 307.612 945.203 308.28 945.203 309.105V324H938.656V308.88C938.656 308.175 938.468 307.582 938.093 307.102C937.718 306.622 937.246 306.262 936.676 306.022C936.121 305.767 935.551 305.64 934.966 305.64C934.366 305.64 933.766 305.767 933.166 306.022C932.566 306.262 932.063 306.645 931.658 307.17C931.253 307.68 931.051 308.325 931.051 309.105V324H924.481ZM971.353 324.45C969.868 324.45 968.533 324.173 967.348 323.617C966.163 323.062 965.226 322.26 964.536 321.21C963.846 320.145 963.501 318.855 963.501 317.34C963.501 314.79 964.453 312.855 966.358 311.535C968.263 310.2 971.271 309.51 975.381 309.465L978.283 309.42V308.025C978.283 306.96 977.968 306.142 977.338 305.572C976.723 304.987 975.763 304.702 974.458 304.717C973.498 304.732 972.583 304.957 971.713 305.392C970.858 305.827 970.273 306.585 969.958 307.665H964.491C964.581 305.985 965.068 304.605 965.953 303.525C966.838 302.43 968.038 301.62 969.553 301.095C971.083 300.555 972.816 300.285 974.751 300.285C977.136 300.285 979.048 300.585 980.488 301.185C981.928 301.77 982.971 302.617 983.616 303.727C984.261 304.822 984.583 306.127 984.583 307.642V324H979.093L978.553 319.995C977.758 321.675 976.761 322.837 975.561 323.482C974.376 324.128 972.973 324.45 971.353 324.45ZM973.558 320.13C974.158 320.13 974.736 320.025 975.291 319.815C975.861 319.59 976.363 319.297 976.798 318.937C977.248 318.562 977.608 318.142 977.878 317.677C978.148 317.212 978.283 316.732 978.283 316.237V312.795L975.921 312.84C974.826 312.855 973.806 312.99 972.861 313.245C971.916 313.485 971.151 313.882 970.566 314.437C969.996 314.992 969.711 315.742 969.711 316.687C969.711 317.767 970.086 318.615 970.836 319.23C971.586 319.83 972.493 320.13 973.558 320.13ZM990.399 324V300.735H996.721V306.247C997.096 305.062 997.621 304.027 998.296 303.142C998.986 302.242 999.819 301.545 1000.79 301.05C1001.77 300.54 1002.87 300.285 1004.1 300.285C1004.31 300.285 1004.51 300.3 1004.69 300.33C1004.88 300.345 1005.02 300.375 1005.11 300.42V306.675C1004.98 306.615 1004.81 306.577 1004.62 306.562C1004.44 306.547 1004.27 306.532 1004.12 306.517C1002.83 306.412 1001.73 306.45 1000.82 306.63C999.901 306.81 999.159 307.117 998.589 307.552C998.019 307.987 997.606 308.52 997.351 309.15C997.096 309.78 996.969 310.485 996.969 311.265V324H990.399ZM1031.16 324H1024.61L1018.33 313.965L1015.25 317.25V324H1008.68V290.565H1015.25V310.387L1023.8 300.735H1030.87L1022.41 310.005L1031.16 324ZM1039.04 313.875C1039.03 315.06 1039.21 316.095 1039.6 316.98C1039.99 317.85 1040.56 318.525 1041.29 319.005C1042.04 319.47 1042.94 319.702 1043.99 319.702C1045.12 319.702 1046.1 319.462 1046.94 318.982C1047.79 318.502 1048.39 317.715 1048.72 316.62H1054.63C1054.38 318.27 1053.72 319.68 1052.65 320.85C1051.6 322.02 1050.33 322.912 1048.83 323.527C1047.33 324.143 1045.77 324.45 1044.15 324.45C1041.85 324.45 1039.83 323.97 1038.07 323.01C1036.33 322.035 1034.98 320.662 1034 318.892C1033.03 317.122 1032.54 315.037 1032.54 312.638C1032.54 310.312 1032.98 308.22 1033.87 306.36C1034.75 304.485 1036.03 303.007 1037.71 301.927C1039.41 300.832 1041.44 300.285 1043.81 300.285C1046.18 300.285 1048.17 300.787 1049.77 301.792C1051.39 302.782 1052.61 304.17 1053.42 305.955C1054.24 307.725 1054.66 309.772 1054.66 312.097V313.875H1039.04ZM1039.02 309.96H1048.51C1048.51 309.03 1048.34 308.175 1048 307.395C1047.65 306.615 1047.13 306 1046.42 305.55C1045.73 305.1 1044.86 304.875 1043.81 304.875C1042.79 304.875 1041.92 305.122 1041.2 305.617C1040.5 306.097 1039.96 306.727 1039.58 307.507C1039.21 308.287 1039.02 309.105 1039.02 309.96ZM1072.65 305.302H1067.47L1067.52 317.7C1067.52 318.27 1067.58 318.697 1067.72 318.982C1067.87 319.252 1068.09 319.432 1068.39 319.522C1068.71 319.597 1069.11 319.635 1069.59 319.635H1072.71V323.685C1072.41 323.82 1071.94 323.947 1071.3 324.068C1070.67 324.188 1069.78 324.248 1068.64 324.248C1066.6 324.248 1065.02 323.985 1063.89 323.46C1062.78 322.935 1062.01 322.2 1061.58 321.255C1061.14 320.31 1060.92 319.215 1060.92 317.97V305.302H1057.14V300.735H1061.15L1062.79 293.715H1067.47V300.712H1072.65V305.302ZM1077.5 331.245V300.735H1084.09L1084.11 304.087C1084.46 303.532 1084.88 303.03 1085.37 302.58C1085.88 302.115 1086.45 301.71 1087.06 301.365C1087.68 301.02 1088.34 300.757 1089.06 300.577C1089.78 300.382 1090.54 300.285 1091.34 300.285C1093.06 300.285 1094.6 300.712 1095.95 301.567C1097.3 302.407 1098.36 303.712 1099.12 305.482C1099.9 307.237 1100.29 309.472 1100.29 312.187C1100.29 315.007 1099.87 317.325 1099.03 319.14C1098.21 320.94 1097.07 322.275 1095.61 323.145C1094.16 324.015 1092.51 324.45 1090.68 324.45C1089.93 324.45 1089.23 324.345 1088.57 324.135C1087.91 323.94 1087.29 323.662 1086.72 323.302C1086.17 322.942 1085.67 322.53 1085.22 322.065C1084.78 321.585 1084.4 321.067 1084.07 320.512V331.245H1077.5ZM1089.11 319.635C1090.53 319.635 1091.73 319.042 1092.69 317.857C1093.66 316.672 1094.15 314.797 1094.15 312.232C1094.15 309.982 1093.68 308.227 1092.75 306.967C1091.84 305.692 1090.62 305.055 1089.11 305.055C1087.41 305.055 1086.15 305.745 1085.31 307.125C1084.48 308.49 1084.07 310.192 1084.07 312.232C1084.07 313.537 1084.25 314.752 1084.61 315.877C1084.98 317.002 1085.54 317.91 1086.27 318.6C1087.02 319.29 1087.97 319.635 1089.11 319.635ZM1112.08 324.405C1110.37 324.405 1109.01 324.203 1108.01 323.797C1107 323.392 1106.26 322.86 1105.78 322.2C1105.3 321.525 1104.99 320.782 1104.86 319.972C1104.72 319.147 1104.66 318.315 1104.66 317.475V290.565H1111.09V316.665C1111.09 317.52 1111.27 318.217 1111.63 318.757C1112.01 319.282 1112.7 319.605 1113.72 319.725L1114.83 319.792V323.842C1114.38 323.992 1113.92 324.12 1113.45 324.225C1112.99 324.345 1112.53 324.405 1112.08 324.405ZM1125.82 324.45C1124.34 324.45 1123 324.173 1121.82 323.617C1120.63 323.062 1119.69 322.26 1119 321.21C1118.31 320.145 1117.97 318.855 1117.97 317.34C1117.97 314.79 1118.92 312.855 1120.83 311.535C1122.73 310.2 1125.74 309.51 1129.85 309.465L1132.75 309.42V308.025C1132.75 306.96 1132.44 306.142 1131.81 305.572C1131.19 304.987 1130.23 304.702 1128.93 304.717C1127.97 304.732 1127.05 304.957 1126.18 305.392C1125.33 305.827 1124.74 306.585 1124.43 307.665H1118.96C1119.05 305.985 1119.54 304.605 1120.42 303.525C1121.31 302.43 1122.51 301.62 1124.02 301.095C1125.55 300.555 1127.28 300.285 1129.22 300.285C1131.6 300.285 1133.52 300.585 1134.96 301.185C1136.4 301.77 1137.44 302.617 1138.08 303.727C1138.73 304.822 1139.05 306.127 1139.05 307.642V324H1133.56L1133.02 319.995C1132.23 321.675 1131.23 322.837 1130.03 323.482C1128.84 324.128 1127.44 324.45 1125.82 324.45ZM1128.03 320.13C1128.63 320.13 1129.2 320.025 1129.76 319.815C1130.33 319.59 1130.83 319.297 1131.27 318.937C1131.72 318.562 1132.08 318.142 1132.35 317.677C1132.62 317.212 1132.75 316.732 1132.75 316.237V312.795L1130.39 312.84C1129.29 312.855 1128.27 312.99 1127.33 313.245C1126.38 313.485 1125.62 313.882 1125.03 314.437C1124.46 314.992 1124.18 315.742 1124.18 316.687C1124.18 317.767 1124.55 318.615 1125.3 319.23C1126.05 319.83 1126.96 320.13 1128.03 320.13ZM1154.83 300.285C1156.78 300.285 1158.46 300.682 1159.87 301.477C1161.3 302.272 1162.42 303.345 1163.23 304.695C1164.05 306.045 1164.52 307.552 1164.64 309.217H1159.18C1159.07 308.602 1158.85 307.995 1158.52 307.395C1158.19 306.78 1157.73 306.277 1157.13 305.887C1156.53 305.482 1155.78 305.28 1154.88 305.28C1153.35 305.28 1152.1 305.872 1151.14 307.057C1150.2 308.227 1149.73 310.012 1149.73 312.412C1149.73 314.677 1150.19 316.477 1151.12 317.812C1152.05 319.132 1153.35 319.792 1155.01 319.792C1155.9 319.792 1156.63 319.575 1157.22 319.14C1157.82 318.705 1158.28 318.187 1158.61 317.587C1158.94 316.972 1159.15 316.402 1159.24 315.877H1164.58C1164.47 317.482 1164.01 318.937 1163.18 320.242C1162.36 321.532 1161.23 322.56 1159.81 323.325C1158.4 324.075 1156.74 324.45 1154.83 324.45C1152.67 324.45 1150.75 323.97 1149.05 323.01C1147.36 322.05 1146.02 320.677 1145.05 318.892C1144.09 317.092 1143.61 314.947 1143.61 312.457C1143.61 310.057 1144.07 307.942 1145 306.112C1145.93 304.282 1147.24 302.857 1148.92 301.837C1150.61 300.802 1152.58 300.285 1154.83 300.285ZM1174.57 313.875C1174.55 315.06 1174.74 316.095 1175.13 316.98C1175.52 317.85 1176.08 318.525 1176.82 319.005C1177.57 319.47 1178.47 319.702 1179.52 319.702C1180.64 319.702 1181.63 319.462 1182.47 318.982C1183.32 318.502 1183.91 317.715 1184.24 316.62H1190.16C1189.91 318.27 1189.25 319.68 1188.18 320.85C1187.13 322.02 1185.86 322.912 1184.36 323.527C1182.86 324.143 1181.3 324.45 1179.68 324.45C1177.38 324.45 1175.36 323.97 1173.6 323.01C1171.86 322.035 1170.5 320.662 1169.53 318.892C1168.55 317.122 1168.07 315.037 1168.07 312.638C1168.07 310.312 1168.51 308.22 1169.39 306.36C1170.28 304.485 1171.56 303.007 1173.24 301.927C1174.94 300.832 1176.97 300.285 1179.34 300.285C1181.71 300.285 1183.7 300.787 1185.3 301.792C1186.92 302.782 1188.14 304.17 1188.95 305.955C1189.77 307.725 1190.18 309.772 1190.18 312.097V313.875H1174.57ZM1174.55 309.96H1184.04C1184.04 309.03 1183.87 308.175 1183.52 307.395C1183.18 306.615 1182.65 306 1181.95 305.55C1181.26 305.1 1180.39 304.875 1179.34 304.875C1178.32 304.875 1177.45 305.122 1176.73 305.617C1176.02 306.097 1175.48 306.727 1175.11 307.507C1174.73 308.287 1174.55 309.105 1174.55 309.96Z" fill="white"/>
<path d="M313.648 234V171.96H330.808V180.72C332.688 178 335.208 175.66 338.368 173.7C341.568 171.74 345.588 170.76 350.428 170.76C352.548 170.76 354.708 171.14 356.908 171.9C359.108 172.66 361.168 173.78 363.088 175.26C365.048 176.7 366.628 178.52 367.828 180.72C369.828 177.88 372.448 175.52 375.688 173.64C378.968 171.72 382.608 170.76 386.608 170.76C388.928 170.76 391.268 171.14 393.628 171.9C396.028 172.66 398.228 173.9 400.228 175.62C402.228 177.34 403.828 179.64 405.028 182.52C406.268 185.36 406.888 188.88 406.888 193.08V234H389.368V195.24C389.368 192.76 388.868 190.78 387.868 189.3C386.908 187.78 385.668 186.7 384.148 186.06C382.668 185.38 381.088 185.04 379.408 185.04C377.848 185.04 376.268 185.36 374.668 186C373.068 186.6 371.708 187.58 370.588 188.94C369.468 190.3 368.908 192.08 368.908 194.28V234H351.448V193.68C351.448 191.8 350.948 190.22 349.948 188.94C348.948 187.66 347.688 186.7 346.168 186.06C344.688 185.38 343.168 185.04 341.608 185.04C340.008 185.04 338.408 185.38 336.808 186.06C335.208 186.7 333.868 187.72 332.788 189.12C331.708 190.48 331.168 192.2 331.168 194.28V234H313.648ZM438.641 235.2C434.681 235.2 431.121 234.46 427.961 232.98C424.801 231.5 422.301 229.36 420.461 226.56C418.621 223.72 417.701 220.28 417.701 216.24C417.701 209.44 420.241 204.28 425.321 200.76C430.401 197.2 438.421 195.36 449.381 195.24L457.121 195.12V191.4C457.121 188.56 456.281 186.38 454.601 184.86C452.961 183.3 450.401 182.54 446.921 182.58C444.361 182.62 441.921 183.22 439.601 184.38C437.321 185.54 435.761 187.56 434.921 190.44H420.341C420.581 185.96 421.881 182.28 424.241 179.4C426.601 176.48 429.801 174.32 433.841 172.92C437.921 171.48 442.541 170.76 447.701 170.76C454.061 170.76 459.161 171.56 463.001 173.16C466.841 174.72 469.621 176.98 471.341 179.94C473.061 182.86 473.921 186.34 473.921 190.38V234H459.281L457.841 223.32C455.721 227.8 453.061 230.9 449.861 232.62C446.701 234.34 442.961 235.2 438.641 235.2ZM444.521 223.68C446.121 223.68 447.661 223.4 449.141 222.84C450.661 222.24 452.001 221.46 453.161 220.5C454.361 219.5 455.321 218.38 456.041 217.14C456.761 215.9 457.121 214.62 457.121 213.3V204.12L450.821 204.24C447.901 204.28 445.181 204.64 442.661 205.32C440.141 205.96 438.101 207.02 436.541 208.5C435.021 209.98 434.261 211.98 434.261 214.5C434.261 217.38 435.261 219.64 437.261 221.28C439.261 222.88 441.681 223.68 444.521 223.68ZM489.43 234V171.96H506.29V186.66C507.29 183.5 508.69 180.74 510.49 178.38C512.33 175.98 514.55 174.12 517.15 172.8C519.75 171.44 522.69 170.76 525.97 170.76C526.53 170.76 527.05 170.8 527.53 170.88C528.05 170.92 528.43 171 528.67 171.12V187.8C528.31 187.64 527.87 187.54 527.35 187.5C526.87 187.46 526.43 187.42 526.03 187.38C522.59 187.1 519.65 187.2 517.21 187.68C514.77 188.16 512.79 188.98 511.27 190.14C509.75 191.3 508.65 192.72 507.97 194.4C507.29 196.08 506.95 197.96 506.95 200.04V234H489.43ZM598.12 234H580.66L563.92 207.24L555.7 216V234H538.18V144.84H555.7V197.7L578.5 171.96H597.34L574.78 196.68L598.12 234ZM619.142 207C619.102 210.16 619.602 212.92 620.642 215.28C621.682 217.6 623.182 219.4 625.142 220.68C627.142 221.92 629.542 222.54 632.342 222.54C635.342 222.54 637.962 221.9 640.202 220.62C642.482 219.34 644.062 217.24 644.942 214.32H660.722C660.042 218.72 658.282 222.48 655.442 225.6C652.642 228.72 649.242 231.1 645.242 232.74C641.242 234.38 637.082 235.2 632.762 235.2C626.642 235.2 621.242 233.92 616.562 231.36C611.922 228.76 608.302 225.1 605.702 220.38C603.102 215.66 601.802 210.1 601.802 203.7C601.802 197.5 602.982 191.92 605.342 186.96C607.702 181.96 611.122 178.02 615.602 175.14C620.122 172.22 625.542 170.76 631.862 170.76C638.182 170.76 643.482 172.1 647.762 174.78C652.082 177.42 655.322 181.12 657.482 185.88C659.682 190.6 660.782 196.06 660.782 202.26V207H619.142ZM619.082 196.56H644.402C644.402 194.08 643.942 191.8 643.022 189.72C642.102 187.64 640.702 186 638.822 184.8C636.982 183.6 634.662 183 631.862 183C629.142 183 626.822 183.66 624.902 184.98C623.022 186.26 621.582 187.94 620.582 190.02C619.582 192.1 619.082 194.28 619.082 196.56ZM708.753 184.14H694.953L695.073 217.2C695.073 218.72 695.253 219.86 695.613 220.62C696.013 221.34 696.613 221.82 697.413 222.06C698.253 222.26 699.313 222.36 700.593 222.36H708.933V233.16C708.133 233.52 706.873 233.86 705.153 234.18C703.473 234.5 701.113 234.66 698.073 234.66C692.633 234.66 688.413 233.96 685.413 232.56C682.453 231.16 680.393 229.2 679.233 226.68C678.073 224.16 677.493 221.24 677.493 217.92V184.14H667.413V171.96H678.093L682.473 153.24H694.953V171.9H708.753V184.14ZM721.695 253.32V171.96H739.275L739.335 180.9C740.255 179.42 741.375 178.08 742.695 176.88C744.055 175.64 745.555 174.56 747.195 173.64C748.835 172.72 750.615 172.02 752.535 171.54C754.455 171.02 756.475 170.76 758.595 170.76C763.195 170.76 767.295 171.9 770.895 174.18C774.495 176.42 777.315 179.9 779.355 184.62C781.435 189.3 782.475 195.26 782.475 202.5C782.475 210.02 781.355 216.2 779.115 221.04C776.915 225.84 773.875 229.4 769.995 231.72C766.115 234.04 761.735 235.2 756.855 235.2C754.855 235.2 752.975 234.92 751.215 234.36C749.455 233.84 747.815 233.1 746.295 232.14C744.815 231.18 743.475 230.08 742.275 228.84C741.115 227.56 740.095 226.18 739.215 224.7V253.32H721.695ZM752.655 222.36C756.455 222.36 759.635 220.78 762.195 217.62C764.795 214.46 766.095 209.46 766.095 202.62C766.095 196.62 764.855 191.94 762.375 188.58C759.935 185.18 756.695 183.48 752.655 183.48C748.135 183.48 744.755 185.32 742.515 189C740.315 192.64 739.215 197.18 739.215 202.62C739.215 206.1 739.695 209.34 740.655 212.34C741.655 215.34 743.135 217.76 745.095 219.6C747.095 221.44 749.615 222.36 752.655 222.36ZM813.917 235.08C809.357 235.08 805.737 234.54 803.057 233.46C800.377 232.38 798.397 230.96 797.117 229.2C795.837 227.4 795.017 225.42 794.657 223.26C794.297 221.06 794.117 218.84 794.117 216.6V144.84H811.277V214.44C811.277 216.72 811.757 218.58 812.717 220.02C813.717 221.42 815.577 222.28 818.297 222.6L821.237 222.78V233.58C820.037 233.98 818.817 234.32 817.577 234.6C816.337 234.92 815.117 235.08 813.917 235.08ZM850.555 235.2C846.595 235.2 843.035 234.46 839.875 232.98C836.715 231.5 834.215 229.36 832.375 226.56C830.535 223.72 829.615 220.28 829.615 216.24C829.615 209.44 832.155 204.28 837.235 200.76C842.315 197.2 850.335 195.36 861.295 195.24L869.035 195.12V191.4C869.035 188.56 868.195 186.38 866.515 184.86C864.875 183.3 862.315 182.54 858.835 182.58C856.275 182.62 853.835 183.22 851.515 184.38C849.235 185.54 847.675 187.56 846.835 190.44H832.255C832.495 185.96 833.795 182.28 836.155 179.4C838.515 176.48 841.715 174.32 845.755 172.92C849.835 171.48 854.455 170.76 859.615 170.76C865.975 170.76 871.075 171.56 874.915 173.16C878.755 174.72 881.535 176.98 883.255 179.94C884.975 182.86 885.835 186.34 885.835 190.38V234H871.195L869.755 223.32C867.635 227.8 864.975 230.9 861.775 232.62C858.615 234.34 854.875 235.2 850.555 235.2ZM856.435 223.68C858.035 223.68 859.575 223.4 861.055 222.84C862.575 222.24 863.915 221.46 865.075 220.5C866.275 219.5 867.235 218.38 867.955 217.14C868.675 215.9 869.035 214.62 869.035 213.3V204.12L862.735 204.24C859.815 204.28 857.095 204.64 854.575 205.32C852.055 205.96 850.015 207.02 848.455 208.5C846.935 209.98 846.175 211.98 846.175 214.5C846.175 217.38 847.175 219.64 849.175 221.28C851.175 222.88 853.595 223.68 856.435 223.68ZM927.924 170.76C933.124 170.76 937.604 171.82 941.364 173.94C945.164 176.06 948.144 178.92 950.304 182.52C952.504 186.12 953.764 190.14 954.084 194.58H939.504C939.224 192.94 938.644 191.32 937.764 189.72C936.884 188.08 935.644 186.74 934.044 185.7C932.444 184.62 930.444 184.08 928.044 184.08C923.964 184.08 920.644 185.66 918.084 188.82C915.564 191.94 914.304 196.7 914.304 203.1C914.304 209.14 915.544 213.94 918.024 217.5C920.504 221.02 923.964 222.78 928.404 222.78C930.764 222.78 932.724 222.2 934.284 221.04C935.884 219.88 937.124 218.5 938.004 216.9C938.884 215.26 939.444 213.74 939.684 212.34H953.904C953.624 216.62 952.384 220.5 950.184 223.98C947.984 227.42 944.984 230.16 941.184 232.2C937.424 234.2 933.004 235.2 927.924 235.2C922.164 235.2 917.024 233.92 912.504 231.36C907.984 228.8 904.424 225.14 901.824 220.38C899.264 215.58 897.984 209.86 897.984 203.22C897.984 196.82 899.224 191.18 901.704 186.3C904.184 181.42 907.664 177.62 912.144 174.9C916.664 172.14 921.924 170.76 927.924 170.76ZM980.548 207C980.508 210.16 981.008 212.92 982.048 215.28C983.088 217.6 984.588 219.4 986.548 220.68C988.548 221.92 990.948 222.54 993.748 222.54C996.748 222.54 999.368 221.9 1001.61 220.62C1003.89 219.34 1005.47 217.24 1006.35 214.32H1022.13C1021.45 218.72 1019.69 222.48 1016.85 225.6C1014.05 228.72 1010.65 231.1 1006.65 232.74C1002.65 234.38 998.488 235.2 994.168 235.2C988.048 235.2 982.648 233.92 977.968 231.36C973.328 228.76 969.708 225.1 967.108 220.38C964.508 215.66 963.208 210.1 963.208 203.7C963.208 197.5 964.388 191.92 966.748 186.96C969.108 181.96 972.528 178.02 977.008 175.14C981.528 172.22 986.948 170.76 993.268 170.76C999.588 170.76 1004.89 172.1 1009.17 174.78C1013.49 177.42 1016.73 181.12 1018.89 185.88C1021.09 190.6 1022.19 196.06 1022.19 202.26V207H980.548ZM980.488 196.56H1005.81C1005.81 194.08 1005.35 191.8 1004.43 189.72C1003.51 187.64 1002.11 186 1000.23 184.8C998.388 183.6 996.068 183 993.268 183C990.548 183 988.228 183.66 986.308 184.98C984.428 186.26 982.988 187.94 981.988 190.02C980.988 192.1 980.488 194.28 980.488 196.56Z" fill="#4D90EF"/>
</svg>
