<svg width="24" height="24" viewBox="0 0 24 24" fill="none" xmlns="http://www.w3.org/2000/svg">
<path d="M12 22.0001C17.5229 22.0001 22 17.523 22 12.0001C22 6.47725 17.5229 2.00012 12 2.00012C6.47715 2.00012 2 6.47725 2 12.0001C2 17.523 6.47715 22.0001 12 22.0001Z" stroke="#323335" stroke-width="2"/>
<path d="M3 15.4928C4.31596 16.0205 5.2633 16.0205 5.84195 15.4928C6.70995 14.7012 5.96095 12.2989 7.1766 11.6363C8.3922 10.9738 10.2443 13.9107 11.9754 12.9443C13.7064 11.9779 11.8123 9.40115 13.0136 8.3565C14.2149 7.31185 15.777 8.49 16.0501 6.74325C16.3231 4.99652 14.7761 5.7541 14.4792 4.10346C14.2813 3.00305 14.2813 2.42442 14.4792 2.36755" stroke="#323335" stroke-width="2" stroke-linecap="round"/>
<path d="M14.5102 21.6753C13.5732 20.7163 13.2358 19.8249 13.4982 19.001C13.8918 17.7652 14.5411 17.8382 14.8242 17.0741C15.1072 16.31 14.3076 15.2217 16.0819 14.2913C17.2648 13.6711 18.8913 14.3897 20.9612 16.4472" stroke="#323335" stroke-width="2" stroke-linecap="round"/>
</svg>
