<svg width="44" height="20" viewBox="0 0 44 20" fill="none" xmlns="http://www.w3.org/2000/svg">
<rect x="0.5" y="0.5" width="43" height="19" rx="9.5" fill="#8056FA"/>
<path d="M8.06 7.796H9.572L10.808 12.38L12.032 7.796H13.292L14.516 12.38L15.752 7.796H17.264L15.176 14H13.904L12.668 9.464L11.42 14H10.148L8.06 7.796ZM20.9281 7.628C21.8641 7.628 22.6201 7.928 23.1961 8.552C23.7601 9.164 24.0481 9.944 24.0481 10.904C24.0481 11.852 23.7601 12.632 23.2081 13.232C22.6321 13.856 21.8641 14.168 20.9281 14.168C19.9801 14.168 19.2241 13.856 18.6481 13.232C18.0841 12.632 17.8081 11.852 17.8081 10.904C17.8081 9.944 18.0841 9.164 18.6601 8.552C19.2241 7.928 19.9801 7.628 20.9281 7.628ZM20.9281 8.744C20.3521 8.744 19.9201 8.96 19.6081 9.416C19.3441 9.8 19.2121 10.304 19.2121 10.904C19.2121 11.504 19.3441 11.996 19.6081 12.38C19.9201 12.824 20.3521 13.052 20.9281 13.052C21.4921 13.052 21.9361 12.824 22.2481 12.38C22.5121 11.984 22.6561 11.492 22.6561 10.904C22.6561 10.304 22.5121 9.8 22.2481 9.416C21.9361 8.96 21.4921 8.744 20.9281 8.744ZM28.1714 7.628C28.4714 7.628 28.7354 7.676 28.9514 7.784V9.152C28.6394 9.056 28.3514 9.02 28.0634 9.02C27.7034 9.02 27.3794 9.152 27.0914 9.44C26.7554 9.764 26.5994 10.184 26.5994 10.712V14H25.2434V7.796H26.5994V8.684C26.7674 8.372 26.9594 8.132 27.1874 7.964C27.4634 7.736 27.7874 7.628 28.1714 7.628ZM32.9357 7.628C34.4837 7.628 35.2637 8.468 35.2637 10.172V14H33.8957V10.292C33.8957 9.272 33.4277 8.768 32.4917 8.768C32.1557 8.768 31.8557 8.888 31.6037 9.128C31.3157 9.392 31.1477 9.776 31.0997 10.268V14H29.7317V7.796H31.0997V8.516C31.3397 8.228 31.6157 8 31.9157 7.856C32.2277 7.7 32.5637 7.628 32.9357 7.628Z" fill="white"/>
<rect x="0.5" y="0.5" width="43" height="19" rx="9.5" stroke="#F4F4F5"/>
</svg>
