<svg width="24" height="24" viewBox="0 0 24 24" fill="none" xmlns="http://www.w3.org/2000/svg">
<path d="M4.5 6.00006C5.60457 6.00006 6.5 5.10463 6.5 4.00006C6.5 2.89549 5.60457 2.00006 4.5 2.00006C3.39543 2.00006 2.5 2.89549 2.5 4.00006C2.5 5.10463 3.39543 6.00006 4.5 6.00006Z" fill="#323335" stroke="#323335" stroke-width="2"/>
<path d="M6.5 9.00005H2.5V21.5H6.5V9.00005Z" fill="#323335" stroke="#323335" stroke-width="2" stroke-linejoin="round"/>
<path d="M10.5 13.75V21.5H14V14.5C14 13.25 14.75 12.25 16 12.25C17.25 12.25 18 13.5 18 14.5V21.5H21.5V13.75C21.5 12.25 19.75 9 16 9C12.25 9 10.5 12.25 10.5 13.75Z" fill="#323335" stroke="#323335" stroke-width="2" stroke-linejoin="round"/>
</svg>
