<svg width="24" height="24" viewBox="0 0 24 24" fill="none" xmlns="http://www.w3.org/2000/svg">
<path fill-rule="evenodd" clip-rule="evenodd" d="M6.13817 2.99297C6.31784 2.68754 6.64574 2.5 7.0001 2.5H17.0002C17.3545 2.5 17.6824 2.68755 17.8621 2.99299L22.8619 11.493C23.046 11.8059 23.046 12.1941 22.8619 12.507L17.8621 21.007C17.6824 21.3125 17.3545 21.5 17.0002 21.5H7.0001C6.64574 21.5 6.31784 21.3125 6.13817 21.007L1.13807 12.507C0.953977 12.1941 0.953977 11.8059 1.13807 11.493L6.13817 2.99297ZM8.5 12C8.5 10.067 10.067 8.5 12 8.5C13.933 8.5 15.5 10.067 15.5 12C15.5 13.933 13.933 15.5 12 15.5C10.067 15.5 8.5 13.933 8.5 12Z" fill="#323335"/>
</svg>
