<svg width="200" height="200" viewBox="0 0 200 200" fill="none" xmlns="http://www.w3.org/2000/svg">
<g clip-path="url(#clip0_214_36383)">
<path d="M127.5 163.279C127.5 164.812 115.187 166.057 100 166.057C84.813 166.057 72.5 164.812 72.5 163.279C72.5 161.745 84.813 160.501 100 160.501C115.187 160.501 127.5 161.745 127.5 163.279Z" fill="url(#paint0_linear_214_36383)" fill-opacity="0.2648"/>
<path d="M42.9796 123.728L42.9352 123.892L42.8018 124.057L42.5407 124.233L42.0685 124.426L41.3833 124.592L40.6352 124.691L39.7574 124.728L38.8796 124.691L38.1315 124.592L37.4463 124.426L36.9759 124.233L36.7148 124.057L36.5796 123.892L36.5352 123.728L36.5796 123.565L36.7148 123.398L36.9759 123.224L37.4463 123.031L38.1315 122.865L38.8796 122.766L39.7574 122.728L40.6352 122.766L41.3833 122.865L42.0685 123.031L42.5407 123.224L42.8018 123.398L42.9352 123.565L42.9796 123.728Z" fill="#9DA1A6" fill-opacity="0.373364"/>
<path d="M36.9197 123.727L37.066 123.734L37.2845 123.642L37.6179 123.381L38.0901 122.899L38.692 122.179L39.2938 121.379L39.9401 120.457L41.166 118.555L41.7234 117.618L42.1716 116.81L42.5494 116.055L42.7531 115.56L42.9105 114.953L42.9771 114.357L42.9568 113.77L42.8512 113.19L42.6716 112.664L42.4197 112.186L42.092 111.762L41.7049 111.427L41.2531 111.172L40.7586 111.025L40.2716 110.986L39.7827 111.055L39.3123 111.218L38.8697 111.473L38.4475 111.827L38.0864 112.246L37.7808 112.746L37.5308 113.338L37.3845 113.87L37.2086 114.718L36.892 116.76L36.642 119.075L36.5605 120.233L36.5234 121.27L36.5327 122.244L36.5957 122.951L36.6901 123.388L36.8012 123.622L36.9197 123.727Z" fill="url(#paint1_linear_214_36383)" fill-opacity="0.359459"/>
<path d="M37.0888 123.727L37.2166 123.64L37.3518 123.442L37.4888 123.066L37.6296 122.442L37.7499 121.56L37.8296 120.607L37.8833 119.503L37.9073 117.188L37.8388 114.907L37.6888 112.953L37.5833 112.142L37.4777 111.616L37.2388 110.91L36.9277 110.297L36.5462 109.764L36.087 109.301L35.5925 108.946L35.0573 108.69L34.6314 108.568L34.2018 108.514L33.7629 108.531L33.311 108.616L32.8814 108.779L32.4944 108.998L32.1462 109.273L31.8333 109.61L31.4925 110.12L31.2296 110.694L31.0481 111.346L30.9629 112.016L30.974 112.716L31.0888 113.449L31.2388 113.96L31.5203 114.72L32.3036 116.494L33.311 118.51L34.4184 120.505L34.9851 121.433L35.5018 122.214L36.0203 122.914L36.4333 123.377L36.7277 123.625L36.937 123.723L37.0888 123.727Z" fill="url(#paint2_linear_214_36383)" fill-opacity="0.62352"/>
<path d="M31.7778 45.499C31.5556 45.499 31.3333 45.499 31.1111 45.4435C30.8333 45.499 30.5556 45.499 30.2778 45.499C26 45.499 22.5 42.0546 22.5 37.7212C22.5 33.3879 25.9444 29.999 30.2778 29.999C30.7778 29.999 31.2778 30.0546 31.7222 30.1101C33.5 26.7768 37 24.499 41.0556 24.499C46.8333 24.499 51.5556 29.2212 51.5556 34.999H57.7778C60.6667 34.999 63.0556 37.3324 63.0556 40.2212C63.0556 43.1101 60.7222 45.499 57.7778 45.499H31.7778Z" fill="url(#paint3_linear_214_36383)" fill-opacity="0.56"/>
<path d="M20 147.999L21.7704 145.482L23.487 143.199L25.15 141.138L26.7611 139.282L28.3241 137.621L29.8389 136.14L31.3093 134.827L32.737 133.673L34.2241 132.595L35.6685 131.677L37.0741 130.903L38.4426 130.267L39.7796 129.76L41.0889 129.373L42.3722 129.103L43.6389 128.941L44.8889 128.888L46.1259 128.94L47.3944 129.097L48.7019 129.364L50.05 129.745L51.4463 130.249L52.8926 130.884L54.3963 131.658L55.9611 132.584L57.5907 133.673L59.15 134.827L60.7704 136.138L62.4593 137.619L64.2148 139.282L66.0444 141.138L67.95 143.201L69.9333 145.482L72 147.999H20Z" fill="url(#paint4_linear_214_36383)" fill-opacity="0.8"/>
<path d="M152.512 110.213L152.477 110.341L152.373 110.471L152.171 110.606L151.804 110.756L151.273 110.886L150.693 110.963L150.012 110.991L149.33 110.963L148.749 110.886L148.219 110.756L147.852 110.606L147.651 110.471L147.547 110.341L147.512 110.213L147.547 110.086L147.651 109.958L147.852 109.821L148.219 109.673L148.749 109.543L149.33 109.465L150.012 109.436L150.693 109.465L151.273 109.543L151.804 109.673L152.171 109.821L152.373 109.958L152.477 110.086L152.512 110.213Z" fill="#9DA1A6" fill-opacity="0.53592"/>
<path d="M147.844 110.214L147.963 110.219L148.137 110.151L148.394 109.967L148.759 109.623L149.22 109.11L149.683 108.538L150.178 107.88L151.116 106.523L151.887 105.277L152.181 104.736L152.344 104.38L152.474 103.943L152.528 103.519L152.513 103.104L152.431 102.697L152.294 102.329L152.102 101.99L151.853 101.691L151.566 101.453L151.233 101.269L150.87 101.166L150.503 101.14L150.126 101.191L149.761 101.314L149.415 101.501L149.081 101.756L148.79 102.06L148.544 102.414L148.344 102.825L148.226 103.184L148.087 103.779L147.844 105.223L147.657 106.875L147.566 108.447L147.572 109.147L147.615 109.656L147.681 109.971L147.761 110.14L147.844 110.214Z" fill="url(#paint5_linear_214_36383)" fill-opacity="0.4612"/>
<path d="M147.733 110.213L147.851 110.137L147.972 109.958L148.092 109.611L148.209 109.039L148.301 108.245L148.353 107.395L148.379 106.443L148.35 104.535L148.238 102.848L148.151 102.148L148.066 101.713L147.892 101.228L147.655 100.795L147.353 100.411L146.996 100.078L146.607 99.8187L146.185 99.6279L145.738 99.5113L145.294 99.4854L144.844 99.5465L144.418 99.7039L144.046 99.9335L143.718 100.241L143.45 100.602L143.244 101.008L143.1 101.465L143.027 101.939L143.035 102.426L143.122 102.935L143.263 103.356L143.54 104.011L144.305 105.539L145.261 107.221L145.772 108.041L146.253 108.759L146.738 109.411L147.129 109.856L147.409 110.104L147.6 110.204L147.733 110.213Z" fill="url(#paint6_linear_214_36383)" fill-opacity="0.8"/>
<path d="M161.243 163.986L161.199 164.151L161.062 164.316L160.797 164.492L160.315 164.684L159.621 164.851L158.858 164.949L157.965 164.986L157.073 164.949L156.312 164.851L155.615 164.684L155.136 164.492L154.869 164.316L154.734 164.151L154.688 163.986L154.734 163.823L154.869 163.657L155.136 163.483L155.615 163.29L156.312 163.123L157.073 163.025L157.965 162.986L158.858 163.025L159.621 163.123L160.315 163.29L160.797 163.483L161.062 163.657L161.199 163.823L161.243 163.986Z" fill="#9DA1A6" fill-opacity="0.428288"/>
<path d="M155.635 164.154L155.799 164.165L156.037 164.084L156.381 163.86L156.875 163.428L157.509 162.767L158.149 162.021L158.859 161.132L159.561 160.195L160.268 159.208L161.577 157.252L162.624 155.519L163.02 154.773L163.246 154.265L163.462 153.523L163.555 152.803L163.533 152.095L163.396 151.401L163.162 150.771L162.831 150.195L162.518 149.808L162.161 149.48L161.757 149.208L161.301 148.988L160.816 148.847L160.338 148.78L159.861 148.786L159.379 148.862L158.762 149.065L158.183 149.375L157.631 149.799L157.153 150.306L156.748 150.902L156.412 151.599L156.244 152.128L156.046 152.954L155.87 153.864L155.69 154.958L155.39 157.31L155.274 158.53L155.188 159.708L155.14 160.856L155.133 161.851L155.177 162.775L155.266 163.432L155.379 163.834L155.505 164.053L155.635 164.154Z" fill="url(#paint7_linear_214_36383)" fill-opacity="0.41365"/>
<path d="M155.634 164.21L155.812 164.104L155.991 163.865L156.175 163.421L156.363 162.676L156.526 161.623L156.636 160.486L156.71 159.167L156.745 157.81L156.747 156.4L156.715 154.999L156.658 153.678L156.571 152.408L156.465 151.35L156.326 150.387L156.189 149.765L155.969 149.139L155.689 148.561L155.345 148.028L154.943 147.539L154.5 147.111L154.015 146.745L153.491 146.439L152.95 146.21L152.386 146.054L151.806 145.98L151.225 145.995L150.634 146.099L150.067 146.295L149.558 146.563L149.097 146.9L148.688 147.302L148.338 147.756L148.043 148.265L147.817 148.81L147.656 149.387L147.563 150.006L147.545 150.63L147.604 151.271L147.745 151.932L147.952 152.547L148.33 153.454L148.786 154.43L149.363 155.576L149.989 156.752L150.682 157.984L151.402 159.204L152.126 160.363L152.865 161.471L153.541 162.402L154.219 163.236L154.763 163.789L155.149 164.084L155.426 164.204L155.634 164.21Z" fill="url(#paint8_linear_214_36383)" fill-opacity="0.71752"/>
<path d="M71.8672 83.7773H129.478V102.111H71.8672V83.7773Z" fill="url(#paint9_linear_214_36383)" fill-opacity="0.8"/>
<path d="M63.7591 94.9435L78.9813 70.999V89.2212L63.4258 124.443V95.999L63.4461 95.7083L63.5091 95.4305L63.6147 95.1694L63.7591 94.9435Z" fill="url(#paint10_linear_214_36383)" fill-opacity="0.604167"/>
<path d="M63.7572 96.444L78.9794 72.4995V90.7217L63.4238 125.944V97.4995L63.4442 97.2088L63.5072 96.9291L63.6127 96.6699L63.7572 96.444Z" fill="url(#paint11_linear_214_36383)" fill-opacity="0.8"/>
<path d="M78.9805 70.999H122.869V89.3879H78.9805V70.999Z" fill="url(#paint12_linear_214_36383)" fill-opacity="0.604167"/>
<path d="M78.9805 71.999H122.869V88.499H78.9805V71.999Z" fill="url(#paint13_linear_214_36383)" fill-opacity="0.8"/>
<path d="M137.589 94.499L122.867 70.999V89.2212L137.923 124.055V95.5546L137.902 95.3009L137.839 95.0268L137.736 94.7601L137.589 94.499Z" fill="url(#paint14_linear_214_36383)" fill-opacity="0.604167"/>
<path d="M137.592 95.7217L122.926 72.4995V90.7217L137.926 125.277V96.8329L137.889 96.444L137.778 96.0754L137.592 95.7217Z" fill="url(#paint15_linear_214_36383)" fill-opacity="0.8"/>
<path d="M137.924 95.4878V134.877L137.883 135.434L137.779 135.954L137.611 136.441L137.381 136.903L136.985 137.464L136.509 137.938L135.948 138.334L135.489 138.566L135 138.734L134.481 138.838L133.924 138.877H67.4238L66.8664 138.838L66.3461 138.734L65.859 138.566L65.3998 138.334L64.8386 137.938L64.3627 137.464L63.9664 136.903L63.7349 136.441L63.5683 135.954L63.4627 135.434L63.4238 134.877V95.4878H93.9238L93.9609 96.1878L94.0609 96.8582L94.2257 97.4989L94.4516 98.1174L94.8442 98.9045L95.3238 99.6211L95.896 100.273L96.5461 100.849L97.2609 101.334L98.0479 101.73L98.6683 101.96L99.3146 102.127L99.9905 102.229L100.702 102.266L101.411 102.229L102.087 102.125L102.729 101.96L103.346 101.73L104.128 101.334L104.837 100.849L105.479 100.273L106.044 99.6211L106.518 98.9045L106.905 98.1174L107.187 97.2896L107.361 96.4156L107.424 95.4878H137.924Z" fill="url(#paint16_linear_214_36383)" fill-opacity="0.8"/>
<path d="M137.924 96.4888V132.989L137.883 133.546L137.779 134.067L137.611 134.554L137.381 135.015L136.985 135.576L136.509 136.05L135.948 136.446L135.489 136.678L135 136.846L134.481 136.95L133.924 136.989H67.4238L66.8664 136.95L66.3461 136.846L65.859 136.678L65.3998 136.446L64.8386 136.05L64.3627 135.576L63.9664 135.015L63.7349 134.554L63.5683 134.067L63.4627 133.546L63.4238 132.989V96.4888H93.9238L93.9609 97.1888L94.0609 97.8591L94.2257 98.4999L94.4498 99.1184L94.8423 99.9054L95.3201 100.622L95.8886 101.274L96.5349 101.85L97.2442 102.335L98.0257 102.731L98.6405 102.961L99.2794 103.128L99.946 103.23L100.646 103.267L101.346 103.23L102.015 103.128L102.657 102.961L103.276 102.731L104.061 102.335L104.778 101.85L105.431 101.274L106.005 100.622L106.49 99.9054L106.889 99.1184L107.118 98.4999L107.283 97.8573L107.385 97.1888L107.424 96.4888H137.924Z" fill="url(#paint17_linear_214_36383)" fill-opacity="0.8"/>
<path d="M91.4701 109.265H110.859L111.522 109.311L112.146 109.439L112.739 109.646L113.3 109.928L113.811 110.272L114.276 110.681L114.685 111.146L115.029 111.657L115.311 112.218L115.518 112.811L115.646 113.435L115.692 114.098L115.646 114.761L115.518 115.387L115.311 115.979L115.029 116.539L114.685 117.05L114.276 117.515L113.811 117.924L113.3 118.268L112.739 118.552L112.146 118.759L111.522 118.885L110.859 118.931H91.4701L90.8052 118.885L90.1812 118.759L89.5886 118.552L89.0275 118.268L88.5182 117.924L88.0534 117.515L87.6441 117.05L87.2978 116.539L87.0164 115.979L86.8089 115.387L86.6812 114.761L86.6367 114.098L86.6812 113.435L86.8089 112.811L87.0164 112.218L87.2978 111.657L87.6441 111.146L88.0534 110.681L88.5182 110.272L89.0275 109.928L89.5886 109.646L90.1812 109.439L90.8052 109.311L91.4701 109.265Z" fill="url(#paint18_linear_214_36383)" fill-opacity="0.8"/>
<path d="M91.1367 108.958H111.192L111.813 109.001L112.398 109.119L112.95 109.31L113.472 109.571L113.948 109.891L114.379 110.271L114.759 110.702L115.077 111.177L115.34 111.701L115.531 112.252L115.65 112.836L115.692 113.458L115.65 114.08L115.531 114.664L115.34 115.215L115.077 115.739L114.759 116.214L114.379 116.645L113.948 117.025L113.472 117.345L112.95 117.606L112.398 117.797L111.813 117.915L111.192 117.958H91.1367L90.5145 117.915L89.9312 117.797L89.3775 117.606L88.8552 117.345L88.3793 117.025L87.9478 116.645L87.5682 116.214L87.2497 115.739L86.9867 115.215L86.796 114.664L86.6793 114.08L86.6367 113.458L86.6793 112.836L86.796 112.252L86.9867 111.701L87.2497 111.177L87.5682 110.702L87.9478 110.271L88.3793 109.891L88.8552 109.571L89.3775 109.31L89.9312 109.119L90.5145 109.001L91.1367 108.958Z" fill="url(#paint19_linear_214_36383)" fill-opacity="0.8"/>
<path d="M103.5 113.39C103.5 114.801 102.355 115.945 100.944 115.945C99.5331 115.945 98.3887 114.801 98.3887 113.39C98.3887 111.978 99.5331 110.834 100.944 110.834C102.355 110.834 103.5 111.978 103.5 113.39Z" fill="url(#paint20_linear_214_36383)" fill-opacity="0.8"/>
<path d="M103.5 113.889C103.5 115.3 102.355 116.444 100.944 116.444C99.5331 116.444 98.3887 115.3 98.3887 113.889C98.3887 112.477 99.5331 111.333 100.944 111.333C102.355 111.333 103.5 112.477 103.5 113.889Z" fill="url(#paint21_linear_214_36383)" fill-opacity="0.8"/>
</g>
<defs>
<linearGradient id="paint0_linear_214_36383" x1="139.018" y1="163.279" x2="58.7232" y2="163.279" gradientUnits="userSpaceOnUse">
<stop stop-color="#C8CACD" stop-opacity="0"/>
<stop offset="1" stop-color="#B2B5B8"/>
</linearGradient>
<linearGradient id="paint1_linear_214_36383" x1="39.7837" y1="112.215" x2="39.5274" y2="123.728" gradientUnits="userSpaceOnUse">
<stop stop-color="#F4F5F5"/>
<stop offset="1" stop-color="#B3B6B9"/>
</linearGradient>
<linearGradient id="paint2_linear_214_36383" x1="34.4226" y1="109.65" x2="34.5923" y2="123.7" gradientUnits="userSpaceOnUse">
<stop stop-color="#F3F4F4"/>
<stop offset="1" stop-color="#B3B6B9"/>
</linearGradient>
<linearGradient id="paint3_linear_214_36383" x1="42.7764" y1="45.5013" x2="42.7764" y2="15.2256" gradientUnits="userSpaceOnUse">
<stop stop-color="#F8F8F9"/>
<stop offset="1" stop-color="#E2E3E4"/>
</linearGradient>
<linearGradient id="paint4_linear_214_36383" x1="45.9974" y1="147.929" x2="45.9974" y2="129.437" gradientUnits="userSpaceOnUse">
<stop stop-color="#F4F5F5" stop-opacity="0"/>
<stop offset="1" stop-color="#EEEFF0"/>
</linearGradient>
<linearGradient id="paint5_linear_214_36383" x1="150.09" y1="102.004" x2="149.825" y2="110.226" gradientUnits="userSpaceOnUse">
<stop stop-color="#F4F5F5"/>
<stop offset="1" stop-color="#B3B6B9"/>
</linearGradient>
<linearGradient id="paint6_linear_214_36383" x1="145.68" y1="100.312" x2="145.872" y2="110.196" gradientUnits="userSpaceOnUse">
<stop stop-color="#F3F4F4"/>
<stop offset="1" stop-color="#B3B6B9"/>
</linearGradient>
<linearGradient id="paint7_linear_214_36383" x1="159.407" y1="150.311" x2="158.957" y2="164.227" gradientUnits="userSpaceOnUse">
<stop stop-color="#F4F5F5"/>
<stop offset="1" stop-color="#B3B6B9"/>
</linearGradient>
<linearGradient id="paint8_linear_214_36383" x1="152.115" y1="147.355" x2="152.455" y2="164.161" gradientUnits="userSpaceOnUse">
<stop stop-color="#F3F4F4"/>
<stop offset="1" stop-color="#B3B6B9"/>
</linearGradient>
<linearGradient id="paint9_linear_214_36383" x1="100.679" y1="83.7773" x2="100.679" y2="106.608" gradientUnits="userSpaceOnUse">
<stop stop-color="#C5C8CA"/>
<stop offset="1" stop-color="#E0E1E2"/>
</linearGradient>
<linearGradient id="paint10_linear_214_36383" x1="71.2034" y1="70.9984" x2="71.2034" y2="124.443" gradientUnits="userSpaceOnUse">
<stop stop-color="#CCCED1"/>
<stop offset="1" stop-color="#EDEEEF"/>
</linearGradient>
<linearGradient id="paint11_linear_214_36383" x1="71.2015" y1="72.5007" x2="71.2015" y2="125.945" gradientUnits="userSpaceOnUse">
<stop stop-color="#D7D8DA"/>
<stop offset="1" stop-color="#EDEEEF"/>
</linearGradient>
<linearGradient id="paint12_linear_214_36383" x1="100.929" y1="70.9986" x2="100.929" y2="89.3672" gradientUnits="userSpaceOnUse">
<stop stop-color="#CBCDD0"/>
<stop offset="1" stop-color="#F4F5F5"/>
</linearGradient>
<linearGradient id="paint13_linear_214_36383" x1="100.929" y1="71.9999" x2="100.929" y2="88.4999" gradientUnits="userSpaceOnUse">
<stop stop-color="#D7D8DA"/>
<stop offset="1" stop-color="#EDEEEF"/>
</linearGradient>
<linearGradient id="paint14_linear_214_36383" x1="130.398" y1="70.9966" x2="130.398" y2="124.052" gradientUnits="userSpaceOnUse">
<stop stop-color="#CCCED1"/>
<stop offset="1" stop-color="#EDEEEF"/>
</linearGradient>
<linearGradient id="paint15_linear_214_36383" x1="130.43" y1="72.5018" x2="130.43" y2="125.28" gradientUnits="userSpaceOnUse">
<stop stop-color="#D7D8DA"/>
<stop offset="1" stop-color="#EDEEEF"/>
</linearGradient>
<linearGradient id="paint16_linear_214_36383" x1="100.677" y1="95.4876" x2="100.677" y2="138.877" gradientUnits="userSpaceOnUse">
<stop stop-color="#E4E5E6"/>
<stop offset="1" stop-color="#AFB2B6"/>
</linearGradient>
<linearGradient id="paint17_linear_214_36383" x1="100.677" y1="96.4886" x2="100.677" y2="136.989" gradientUnits="userSpaceOnUse">
<stop stop-color="#EFF0F1"/>
<stop offset="1" stop-color="#BBBDC1"/>
</linearGradient>
<linearGradient id="paint18_linear_214_36383" x1="86.7189" y1="114.097" x2="115.673" y2="114.097" gradientUnits="userSpaceOnUse">
<stop stop-color="#C4C7C9"/>
<stop offset="1" stop-color="#E0E1E2"/>
</linearGradient>
<linearGradient id="paint19_linear_214_36383" x1="86.7189" y1="113.458" x2="115.673" y2="113.458" gradientUnits="userSpaceOnUse">
<stop stop-color="white"/>
<stop offset="1" stop-color="white" stop-opacity="0.0974377"/>
</linearGradient>
<linearGradient id="paint20_linear_214_36383" x1="100.944" y1="116.707" x2="100.944" y2="111.166" gradientUnits="userSpaceOnUse">
<stop stop-color="white"/>
<stop offset="1" stop-color="#CFD1D3"/>
</linearGradient>
<linearGradient id="paint21_linear_214_36383" x1="100.944" y1="117.206" x2="100.944" y2="111.666" gradientUnits="userSpaceOnUse">
<stop stop-color="white" stop-opacity="0.0974377"/>
<stop offset="1" stop-color="white"/>
</linearGradient>
<clipPath id="clip0_214_36383">
<rect width="200" height="200" fill="white"/>
</clipPath>
</defs>
</svg>
