<svg width="24" height="24" viewBox="0 0 24 24" fill="none" xmlns="http://www.w3.org/2000/svg">
<g id="plus">
<path id="Union" fill-rule="evenodd" clip-rule="evenodd" d="M13.0303 5.00131C13.031 4.44902 12.5839 4.00072 12.0316 4C11.4793 3.99928 11.031 4.44641 11.0303 4.99869L11.0224 10.9999H5C4.44772 10.9999 4 11.4477 4 11.9999C4 12.5522 4.44772 12.9999 5 12.9999H11.0198L11.012 18.9987C11.0112 19.551 11.4584 19.9993 12.0107 20C12.5629 20.0007 13.0112 19.5536 13.012 19.0013L13.0198 12.9999H19C19.5523 12.9999 20 12.5522 20 11.9999C20 11.4477 19.5523 10.9999 19 10.9999H13.0224L13.0303 5.00131Z" fill="#323335"/>
</g>
</svg>
