<svg width="84" height="84" viewBox="0 0 84 84" fill="none" xmlns="http://www.w3.org/2000/svg">
<circle cx="41.7499" cy="42.25" r="41.75" fill="white"/>
<path d="M42.5066 0.506985C19.4388 0.0894677 0.424379 18.4428 0.00686247 41.4932C-0.410654 64.5436 17.9427 83.5754 40.9931 83.993C64.0435 84.4105 83.0753 66.0571 83.4928 42.9893C83.9104 19.9389 65.557 0.907105 42.5066 0.506985ZM41.1323 76.1645C22.431 75.8166 7.48737 60.3337 7.8353 41.6324C8.16584 22.9311 23.6488 7.98749 42.35 8.31803C61.0687 8.66596 75.9949 24.1489 75.6644 42.8502C75.3339 61.5514 59.8335 76.495 41.1323 76.1645Z" fill="#627EEA"/>
<path d="M42.3013 11.8043C25.5137 11.5086 11.6138 24.9213 11.3181 41.7089C11.005 58.4792 24.4177 72.379 41.2053 72.6922C57.993 72.9879 71.8928 59.5752 72.1886 42.8049C72.4843 26.0173 59.089 12.1174 42.3013 11.8043ZM41.7533 20.4817L51.4275 37.7408L42.5988 32.828C42.0717 32.5357 41.4332 32.5357 40.9061 32.828L32.0774 37.7408L41.7533 20.4817ZM41.7533 64.013L32.0774 46.7539L40.9061 51.6667C41.1688 51.8128 41.4611 51.8859 41.7516 51.8859C42.0421 51.8859 42.3344 51.8128 42.5971 51.6667L51.4258 46.7539L41.7533 64.013ZM41.7533 48.1544L31.1345 42.2465L41.7533 36.3386L52.3704 42.2465L41.7533 48.1544Z" fill="#627EEA"/>
</svg>
