<svg width="537" height="135" viewBox="0 0 537 135" fill="none" xmlns="http://www.w3.org/2000/svg">
<rect width="536.5" height="135" fill="white"/>
<path fill-rule="evenodd" clip-rule="evenodd" d="M0 5.5C0 2.46243 2.45783 0 5.48972 0H72.8636C82.7489 0 97.7658 3.74557 110.401 14.4203C123.258 25.2824 133.25 42.9858 133.25 70C133.25 95.5012 121.349 111.934 107.856 121.815C94.6728 131.47 79.8237 135 72.8636 135H31.9402C28.9083 135 26.4505 132.538 26.4505 129.5V29.5C26.4505 26.4624 28.9083 24 31.9402 24H65.8766C66.1405 24 66.4041 24.0191 66.6653 24.057C72.4245 24.8946 81.4722 27.4031 89.1951 33.7468C97.1418 40.2743 103.307 50.5755 103.307 66C103.307 83.0063 97.0553 93.9197 88.803 100.443C80.8107 106.761 71.5325 108.5 65.8766 108.5C62.8447 108.5 60.3869 106.038 60.3869 103C60.3869 99.9624 62.8447 97.5 65.8766 97.5C69.703 97.5 76.3949 96.2395 82.0022 91.8071C87.3494 87.5803 92.3271 79.9937 92.3271 66C92.3271 53.9245 87.6787 46.7257 82.2339 42.2532C76.7194 37.7236 70.0185 35.7157 65.465 35H37.4299V124H72.8636C77.3819 124 89.9814 121.28 101.377 112.935C112.463 104.816 122.271 91.4988 122.271 70C122.271 46.0142 113.548 31.4676 103.323 22.8297C92.8772 14.0044 80.4455 11 72.8636 11H10.9794V129.5C10.9794 132.538 8.52161 135 5.48972 135C2.45783 135 0 132.538 0 129.5V5.5Z" fill="url(#paint0_linear_3_13)"/>
<path d="M166.588 99.94V80.8H179.763C183.204 80.8 186.278 80.3233 188.986 79.37C191.768 78.3433 194.11 76.9133 196.013 75.08C197.916 73.1733 199.38 70.9 200.405 68.26C201.429 65.5467 201.942 62.5033 201.942 59.13C201.942 55.61 201.429 52.53 200.405 49.89C199.38 47.1767 197.916 44.94 196.013 43.18C194.11 41.3467 191.768 39.99 188.986 39.11C186.278 38.1567 183.204 37.68 179.763 37.68H166.588V18.54H178.885C186.131 18.54 192.463 19.5667 197.879 21.62C203.369 23.6733 207.944 26.5333 211.604 30.2C215.264 33.7933 218.008 37.9733 219.838 42.74C221.668 47.5067 222.583 52.5667 222.583 57.92V60.34C222.583 65.2533 221.668 70.0933 219.838 74.86C218.008 79.5533 215.264 83.8067 211.604 87.62C207.944 91.36 203.369 94.3667 197.879 96.64C192.463 98.84 186.131 99.94 178.885 99.94H166.588ZM148.362 99.94V18.54H168.784V99.94H148.362Z" fill="#D03D87"/>
<path d="M229.216 68.32V50.5H277.306V68.32H229.216Z" fill="#D03D87"/>
<path d="M307.584 99.94V80.8H320.759C324.199 80.8 327.274 80.3233 329.982 79.37C332.763 78.3433 335.106 76.9133 337.009 75.08C338.912 73.1733 340.376 70.9 341.4 68.26C342.425 65.5467 342.938 62.5033 342.938 59.13C342.938 55.61 342.425 52.53 341.4 49.89C340.376 47.1767 338.912 44.94 337.009 43.18C335.106 41.3467 332.763 39.99 329.982 39.11C327.274 38.1567 324.199 37.68 320.759 37.68H307.584V18.54H319.881C327.127 18.54 333.459 19.5667 338.875 21.62C344.365 23.6733 348.94 26.5333 352.599 30.2C356.259 33.7933 359.004 37.9733 360.834 42.74C362.664 47.5067 363.579 52.5667 363.579 57.92V60.34C363.579 65.2533 362.664 70.0933 360.834 74.86C359.004 79.5533 356.259 83.8067 352.599 87.62C348.94 91.36 344.365 94.3667 338.875 96.64C333.459 98.84 327.127 99.94 319.881 99.94H307.584ZM289.358 99.94V18.54H309.78V99.94H289.358Z" fill="#D03D87"/>
<path d="M374.813 99.5V19.2H408.3L434.98 83.22H438.823L436.627 85.2V19.2H455.732V99.5H422.025L395.345 35.48H391.502L393.698 33.5V99.5H374.813Z" fill="#D03D87"/>
<path d="M500.502 101.7C493.036 101.7 486.741 100.527 481.617 98.18C476.567 95.8333 472.724 92.6433 470.089 88.61C467.527 84.5033 466.246 79.81 466.246 74.53H486.009C486.009 76.4367 486.521 78.1967 487.546 79.81C488.644 81.35 490.254 82.56 492.377 83.44C494.5 84.32 497.208 84.76 500.502 84.76C503.357 84.76 505.772 84.3933 507.748 83.66C509.798 82.9267 511.335 81.9 512.36 80.58C513.458 79.26 514.007 77.6833 514.007 75.85C514.007 73.5033 513.019 71.7067 511.042 70.46C509.066 69.14 505.735 68.2967 501.051 67.93L495.891 67.49C487.619 66.7567 481.032 64.1533 476.128 59.68C471.223 55.2067 468.771 49.2667 468.771 41.86C468.771 36.58 469.979 32.07 472.395 28.33C474.883 24.59 478.36 21.73 482.825 19.75C487.29 17.77 492.56 16.78 498.635 16.78C505.223 16.78 510.786 17.88 515.324 20.08C519.936 22.28 523.449 25.3967 525.864 29.43C528.28 33.39 529.488 38.01 529.488 43.29H509.725C509.725 41.53 509.286 39.9167 508.407 38.45C507.529 36.9833 506.248 35.8467 504.564 35.04C502.954 34.16 500.978 33.72 498.635 33.72C496.44 33.72 494.573 34.0867 493.036 34.82C491.572 35.48 490.437 36.4333 489.632 37.68C488.9 38.9267 488.534 40.32 488.534 41.86C488.534 43.9133 489.23 45.6733 490.62 47.14C492.011 48.6067 494.427 49.4867 497.867 49.78L503.027 50.22C509.029 50.7333 514.336 52.0533 518.947 54.18C523.559 56.2333 527.182 59.0567 529.817 62.65C532.452 66.2433 533.77 70.6433 533.77 75.85C533.77 81.0567 532.416 85.6033 529.707 89.49C527.072 93.3767 523.266 96.3833 518.289 98.51C513.384 100.637 507.456 101.7 500.502 101.7Z" fill="#D03D87"/>
<path d="M149.72 117H534" stroke="#D03D87" stroke-width="4" stroke-linecap="round"/>
<defs>
<linearGradient id="paint0_linear_3_13" x1="127.262" y1="15.5" x2="-0.722662" y2="135.261" gradientUnits="userSpaceOnUse">
<stop stop-color="#793C8F"/>
<stop offset="0.140625" stop-color="#793C8F"/>
<stop offset="0.444152" stop-color="#D03D87"/>
<stop offset="1" stop-color="#E1743B"/>
</linearGradient>
</defs>
</svg>
